SplineFontDB: 3.0
FontName: FiraSlav-Regular
FullName: Fira Slav Regular
FamilyName: Fira Slav
Weight: Regular
Copyright: Copyright 2019 Aleksandr Andreev. Slavonic Computing Initiative. Digitized data copyright \\(c\\) 2012-2015, The Mozilla Foundation and Telefonica S.A.
Version: 004.0
ItalicAngle: 0
UnderlinePosition: -100
UnderlineWidth: 50
Ascent: 800
Descent: 200
InvalidEm: 0
sfntRevision: 0x0003fff9
LayerCount: 2
Layer: 0 0 "Back" 1
Layer: 1 0 "Fore" 0
XUID: [1021 16 -658691101 954425]
StyleMap: 0x0040
FSType: 0
OS2Version: 3
OS2_WeightWidthSlopeOnly: 0
OS2_UseTypoMetrics: 0
CreationTime: 1441835615
ModificationTime: 1553858359
PfmFamily: 17
TTFWeight: 400
TTFWidth: 5
LineGap: 0
VLineGap: 0
Panose: 2 11 5 9 5 0 0 2 0 4
OS2TypoAscent: 935
OS2TypoAOffset: 0
OS2TypoDescent: -265
OS2TypoDOffset: 0
OS2TypoLinegap: 0
OS2WinAscent: 935
OS2WinAOffset: 0
OS2WinDescent: 265
OS2WinDOffset: 0
HheadAscent: 935
HheadAOffset: 0
HheadDescent: -265
HheadDOffset: 0
OS2SubXSize: 650
OS2SubYSize: 600
OS2SubXOff: 0
OS2SubYOff: 75
OS2SupXSize: 650
OS2SupYSize: 600
OS2SupXOff: 0
OS2SupYOff: 350
OS2StrikeYSize: 50
OS2StrikeYPos: 316
OS2CapHeight: 689
OS2XHeight: 527
OS2Vendor: 'CTDB'
OS2CodePages: 6000009f.00000000
OS2UnicodeRanges: 40000287.02003801.00000000.00000000
Lookup: 1 0 0 "'ccmp' Map Combining Glyphs" { "Map Combining Glyphs lookup 1"  } ['ccmp' ('DFLT' <'dflt' > 'cyrl' <'ABK ' 'BEL ' 'BGR ' 'BOS ' 'CHE ' 'CHK ' 'CHU ' 'CSL ' 'KAZ ' 'RUS ' 'SRB ' 'UKR ' 'dflt' > 'grek' <' ELL' 'ELL ' 'dflt' > 'latn' <'AFK ' 'AZE ' 'CAT ' 'CRT ' 'KAZ ' 'MOL ' 'PLK ' 'ROM ' 'TAT ' 'TRK ' 'dflt' > ) ]
MarkAttachClasses: 3
"MarkClass-1" 125 acutecomb uni0306 uni030C uni0302 uni0313 uni0314 uni030F uni0308 uni0307 gravecomb uni030B uni0304 uni030A tildecomb uni0342
"MarkClass-2" 36 uni0327 uni0326 uni0326.case uni0345
DEI: 91125

StartChar: .notdef
Encoding: 1114112 -1 0
Width: 600
Flags: W
HStem: -350 52<145 456> 48 72<249.988 314.012> 149 108<257.078 305.929> 403 48<214.617 336.616> 998 52<145 456>
VStem: 90 55<-298 998> 247 70<50.4951 117.657> 257 50<149.235 222.291> 348 54<274.958 392.016> 456 54<-298 998>
LayerCount: 2
Fore
SplineSet
90 1050 m 1xfcc0
 510 1050 l 1
 510 -350 l 1
 90 -350 l 1
 90 1050 l 1xfcc0
456 -298 m 1
 456 998 l 1
 145 998 l 1
 145 -298 l 1
 456 -298 l 1
307 173 m 2xfdc0
 307 158 294 149 282 149 c 0
 269 149 257 158 257 173 c 2
 257 257 l 1
 329 261 348 281 348 334 c 0
 348 373 337 403 287 403 c 0
 266 403 252 400 235 392 c 0
 230 390 226 389 222 389 c 0
 207 389 198 399 198 412 c 0
 198 439 252 451 291 451 c 0
 377 451 402 396 402 336 c 0
 402 266 374 228 307 218 c 1
 307 173 l 2xfdc0
247 85 m 0xfec0
 247 105 262 120 282 120 c 0
 302 120 317 105 317 85 c 0
 317 64 302 48 282 48 c 0
 262 48 247 64 247 85 c 0xfec0
EndSplineSet
Validated: 1
EndChar

StartChar: A
Encoding: 65 65 2
Width: 600
GlyphClass: 2
Flags: W
HStem: 0 21G<20 112.25 482.75 579> 176 72<184 411> 669 20G<238.469 361.502>
LayerCount: 2
Fore
SplineSet
434 176 m 1
 161 176 l 1
 106 0 l 1
 20 0 l 1
 245 689 l 1
 355 689 l 1
 579 0 l 1
 489 0 l 1
 434 176 l 1
184 248 m 1
 411 248 l 1
 298 615 l 1
 184 248 l 1
EndSplineSet
Validated: 1
EndChar

StartChar: Aacute
Encoding: 193 193 3
Width: 600
GlyphClass: 2
Flags: W
HStem: 0 21G<20 112.25 482.75 579> 176 72<184 411> 669 20G<238.469 361.502>
LayerCount: 2
Fore
SplineSet
383 906 m 1
 420 834 l 1
 207 755 l 1
 185 801 l 1
 383 906 l 1
434 176 m 1
 161 176 l 1
 106 0 l 1
 20 0 l 1
 245 689 l 1
 355 689 l 1
 579 0 l 1
 489 0 l 1
 434 176 l 1
184 248 m 1
 411 248 l 1
 298 615 l 1
 184 248 l 1
EndSplineSet
Validated: 1
EndChar

StartChar: Abreve
Encoding: 258 258 4
Width: 600
GlyphClass: 2
Flags: W
HStem: 0 21G<20 112.25 482.75 579> 176 72<184 411> 669 20G<238.469 361.502> 759 65<237.34 360.237>
VStem: 151 57<855.041 879.596> 391 58<855.041 879.569>
LayerCount: 2
Fore
SplineSet
298 759 m 0
 222 759 158 805 151 878 c 1
 208 891 l 1
 223 851 251 824 298 824 c 0
 345 824 377 851 391 891 c 1
 449 878 l 1
 441 805 375 759 298 759 c 0
434 176 m 1
 161 176 l 1
 106 0 l 1
 20 0 l 1
 245 689 l 1
 355 689 l 1
 579 0 l 1
 489 0 l 1
 434 176 l 1
184 248 m 1
 411 248 l 1
 298 615 l 1
 184 248 l 1
EndSplineSet
Validated: 1
EndChar

StartChar: Acircumflex
Encoding: 194 194 5
Width: 600
GlyphClass: 2
Flags: W
HStem: 0 21G<20 112.25 482.75 579> 176 72<184 411> 669 20G<238.469 361.502>
LayerCount: 2
Fore
SplineSet
329 910 m 1
 463 803 l 1
 426 760 l 1
 300 841 l 1
 175 760 l 1
 137 803 l 1
 272 910 l 1
 329 910 l 1
434 176 m 1
 161 176 l 1
 106 0 l 1
 20 0 l 1
 245 689 l 1
 355 689 l 1
 579 0 l 1
 489 0 l 1
 434 176 l 1
184 248 m 1
 411 248 l 1
 298 615 l 1
 184 248 l 1
EndSplineSet
Validated: 1
EndChar

StartChar: Adieresis
Encoding: 196 196 6
Width: 600
GlyphClass: 2
Flags: W
HStem: 0 21G<20 112.25 482.75 579> 176 72<184 411> 669 20G<238.469 361.502> 767 108<151.743 239.618 359.382 447.257>
VStem: 141 109<777.315 864.551> 349 109<777.315 864.551>
LayerCount: 2
Fore
SplineSet
196 767 m 0
 165 767 141 790 141 820 c 0
 141 852 165 875 196 875 c 0
 227 875 250 852 250 820 c 0
 250 790 227 767 196 767 c 0
403 767 m 0
 372 767 349 790 349 820 c 0
 349 852 372 875 403 875 c 0
 434 875 458 852 458 820 c 0
 458 790 434 767 403 767 c 0
434 176 m 1
 161 176 l 1
 106 0 l 1
 20 0 l 1
 245 689 l 1
 355 689 l 1
 579 0 l 1
 489 0 l 1
 434 176 l 1
184 248 m 1
 411 248 l 1
 298 615 l 1
 184 248 l 1
EndSplineSet
Validated: 1
EndChar

StartChar: Agrave
Encoding: 192 192 7
Width: 600
GlyphClass: 2
Flags: W
HStem: 0 21G<20 112.25 482.75 579> 176 72<184 411> 669 20G<238.469 361.502>
LayerCount: 2
Fore
SplineSet
231 909 m 1
 416 801 l 1
 390 755 l 1
 185 837 l 1
 231 909 l 1
434 176 m 1
 161 176 l 1
 106 0 l 1
 20 0 l 1
 245 689 l 1
 355 689 l 1
 579 0 l 1
 489 0 l 1
 434 176 l 1
184 248 m 1
 411 248 l 1
 298 615 l 1
 184 248 l 1
EndSplineSet
Validated: 1
EndChar

StartChar: Amacron
Encoding: 256 256 8
Width: 600
GlyphClass: 2
Flags: W
HStem: 0 21G<20 112.25 482.75 579> 176 72<184 411> 669 20G<238.469 361.502> 795 64<165 434>
LayerCount: 2
Fore
SplineSet
434 795 m 1
 165 795 l 1
 165 859 l 1
 434 859 l 1
 434 795 l 1
434 176 m 1
 161 176 l 1
 106 0 l 1
 20 0 l 1
 245 689 l 1
 355 689 l 1
 579 0 l 1
 489 0 l 1
 434 176 l 1
184 248 m 1
 411 248 l 1
 298 615 l 1
 184 248 l 1
EndSplineSet
Validated: 1
EndChar

StartChar: Aogonek
Encoding: 260 260 9
Width: 600
GlyphClass: 2
Flags: W
HStem: -229 67<420.526 524.235> 0 21G<20 112.25> 176 72<184 411> 669 20G<238.469 361.502>
VStem: 338 77<-154.51 -64.2198>
LayerCount: 2
Fore
SplineSet
539 0 m 1
 436 -45 415 -79 415 -114 c 0
 415 -144 429 -162 471 -162 c 0
 492 -162 508 -160 532 -155 c 1
 524 -223 l 1
 503 -226 487 -229 460 -229 c 0
 384 -229 338 -187 338 -131 c 0
 338 -69 383 -20 483 17 c 1
 434 176 l 1
 161 176 l 1
 106 0 l 1
 20 0 l 1
 245 689 l 1
 355 689 l 1
 579 0 l 1
 539 0 l 1
184 248 m 1
 411 248 l 1
 298 615 l 1
 184 248 l 1
EndSplineSet
Validated: 1
EndChar

StartChar: Aring
Encoding: 197 197 10
Width: 600
GlyphClass: 2
Flags: W
HStem: 0 21G<20 112.25 482.75 579> 176 72<184 411> 669 20G<238.469 361.502> 738 45<255.514 344.633> 896 47<255.155 344.984>
VStem: 189 57<792.763 886.873> 354 57<792.407 887.226>
LayerCount: 2
Fore
SplineSet
300 943 m 0
 365 943 411 897 411 840 c 0
 411 783 365 738 300 738 c 0
 235 738 189 783 189 840 c 0
 189 897 235 943 300 943 c 0
300 896 m 0
 267 896 246 875 246 840 c 0
 246 804 267 783 300 783 c 0
 334 783 354 804 354 840 c 0
 354 875 334 896 300 896 c 0
434 176 m 1
 161 176 l 1
 106 0 l 1
 20 0 l 1
 245 689 l 1
 355 689 l 1
 579 0 l 1
 489 0 l 1
 434 176 l 1
184 248 m 1
 411 248 l 1
 298 615 l 1
 184 248 l 1
EndSplineSet
Validated: 1
EndChar

StartChar: Atilde
Encoding: 195 195 11
Width: 600
GlyphClass: 2
Flags: W
HStem: 0 21G<20 112.25 482.75 579> 176 72<184 411> 669 20G<238.469 361.502> 778 64<311.768 395.172> 826 65<204.528 290.304>
LayerCount: 2
Fore
SplineSet
358 778 m 0xf0
 306 778 278 826 242 826 c 0
 219 826 205 810 189 780 c 1
 136 806 l 1
 159 854 194 891 242 891 c 0xe8
 298 891 321 842 358 842 c 0
 378 842 393 856 411 887 c 1
 465 860 l 1
 439 804 401 778 358 778 c 0xf0
434 176 m 1
 161 176 l 1
 106 0 l 1
 20 0 l 1
 245 689 l 1
 355 689 l 1
 579 0 l 1
 489 0 l 1
 434 176 l 1
184 248 m 1
 411 248 l 1
 298 615 l 1
 184 248 l 1
EndSplineSet
Validated: 1
EndChar

StartChar: AE
Encoding: 198 198 12
Width: 600
GlyphClass: 2
Flags: W
HStem: 0 71<436 607> 175 73<148 314> 314 71<384 557> 618 71<320 556>
LayerCount: 2
Fore
SplineSet
330 175 m 5
 126 175 l 5
 77 0 l 5
 -12 0 l 5
 190 689 l 5
 566 689 l 5
 556 618 l 5
 320 618 l 5
 371 385 l 5
 557 385 l 5
 557 314 l 5
 384 314 l 5
 436 71 l 5
 607 71 l 5
 607 0 l 5
 366 0 l 5
 330 175 l 5
148 248 m 5
 314 248 l 5
 241 620 l 5
 148 248 l 5
EndSplineSet
Validated: 1
EndChar

StartChar: AEacute
Encoding: 508 508 13
Width: 600
GlyphClass: 2
Flags: W
HStem: 0 71<436 607> 175 73<148 314> 314 71<384 557> 618 71<320 556>
LayerCount: 2
Fore
SplineSet
444 906 m 1
 481 834 l 1
 268 755 l 1
 246 801 l 1
 444 906 l 1
330 175 m 1
 126 175 l 1
 77 0 l 1
 -12 0 l 1
 190 689 l 1
 566 689 l 1
 556 618 l 1
 320 618 l 1
 371 385 l 1
 557 385 l 1
 557 314 l 1
 384 314 l 1
 436 71 l 1
 607 71 l 1
 607 0 l 1
 366 0 l 1
 330 175 l 1
148 248 m 1
 314 248 l 1
 241 620 l 1
 148 248 l 1
EndSplineSet
Validated: 1
EndChar

StartChar: B
Encoding: 66 66 14
Width: 600
GlyphClass: 2
Flags: W
HStem: 0 72<183 392.194> 324 72<183 379.294> 618 71<183 376.209>
VStem: 96 87<72 324 396 618> 421 89<435.871 577.64> 448 92<120.975 274.564>
LayerCount: 2
Fore
SplineSet
540 196 m 0xf4
 540 46 408 0 282 0 c 2
 96 0 l 1
 96 689 l 1
 266 689 l 2
 387 689 510 650 510 515 c 0xf8
 510 426 447 380 381 365 c 1
 458 352 540 313 540 196 c 0xf4
421 510 m 0
 421 589 369 618 286 618 c 2
 183 618 l 1
 183 396 l 1
 294 396 l 2
 375 396 421 430 421 510 c 0
448 193 m 0xf4
 448 298 381 324 300 324 c 2
 183 324 l 1
 183 72 l 1
 297 72 l 2
 364 72 448 91 448 193 c 0xf4
EndSplineSet
Validated: 1
EndChar

StartChar: C
Encoding: 67 67 15
Width: 600
GlyphClass: 2
Flags: W
HStem: -11 74<269.371 466.779> 627 73<270.941 463.201>
VStem: 63 91<200.575 490.445>
LayerCount: 2
Fore
SplineSet
358 700 m 0
 448 700 503 676 558 633 c 1
 509 576 l 1
 465 613 417 627 364 627 c 0
 252 627 154 555 154 345 c 0
 154 140 245 63 363 63 c 0
 440 63 486 91 523 120 c 1
 568 64 l 1
 526 23 460 -11 362 -11 c 0
 194 -11 63 113 63 345 c 0
 63 577 199 700 358 700 c 0
EndSplineSet
Validated: 1
EndChar

StartChar: Cacute
Encoding: 262 262 16
Width: 600
GlyphClass: 2
Flags: W
HStem: -11 74<269.371 466.779> 627 73<270.941 463.201>
VStem: 63 91<200.575 490.445>
LayerCount: 2
Fore
SplineSet
448 906 m 1
 485 834 l 1
 272 755 l 1
 250 801 l 1
 448 906 l 1
358 700 m 0
 448 700 503 676 558 633 c 1
 509 576 l 1
 465 613 417 627 364 627 c 0
 252 627 154 555 154 345 c 0
 154 140 245 63 363 63 c 0
 440 63 486 91 523 120 c 1
 568 64 l 1
 526 23 460 -11 362 -11 c 0
 194 -11 63 113 63 345 c 0
 63 577 199 700 358 700 c 0
EndSplineSet
Validated: 1
EndChar

StartChar: Ccaron
Encoding: 268 268 17
Width: 600
GlyphClass: 2
Flags: W
HStem: -11 74<269.371 466.779> 627 73<270.941 463.201>
VStem: 63 91<200.575 490.445>
LayerCount: 2
Fore
SplineSet
491 905 m 1
 528 862 l 1
 394 754 l 1
 337 754 l 1
 202 862 l 1
 240 905 l 1
 365 824 l 1
 491 905 l 1
358 700 m 0
 448 700 503 676 558 633 c 1
 509 576 l 1
 465 613 417 627 364 627 c 0
 252 627 154 555 154 345 c 0
 154 140 245 63 363 63 c 0
 440 63 486 91 523 120 c 1
 568 64 l 1
 526 23 460 -11 362 -11 c 0
 194 -11 63 113 63 345 c 0
 63 577 199 700 358 700 c 0
EndSplineSet
Validated: 1
EndChar

StartChar: Ccedilla
Encoding: 199 199 18
Width: 600
GlyphClass: 2
Flags: W
HStem: -238 56<253.111 384.743> -7 70<271.094 310 370 466.067> 627 73<270.941 463.201>
VStem: 63 91<199.786 490.445> 390 73<-174.385 -106.039>
LayerCount: 2
Fore
SplineSet
370 -57 m 1
 435 -63 463 -101 463 -140 c 0
 463 -206 405 -238 341 -238 c 0
 301 -238 262 -229 236 -214 c 1
 263 -166 l 1
 282 -176 308 -182 330 -182 c 0
 366 -182 390 -170 390 -141 c 0
 390 -104 357 -97 304 -97 c 1
 310 -7 l 1
 168 16 63 138 63 345 c 0
 63 577 199 700 358 700 c 0
 448 700 503 676 558 633 c 1
 509 576 l 1
 465 613 417 627 364 627 c 0
 252 627 154 555 154 345 c 0
 154 140 245 63 363 63 c 0
 440 63 486 91 523 120 c 1
 568 64 l 1
 527 24 463 -9 370 -11 c 1
 370 -57 l 1
EndSplineSet
Validated: 1
EndChar

StartChar: Ccircumflex
Encoding: 264 264 19
Width: 600
GlyphClass: 2
Flags: W
HStem: -11 74<269.371 466.779> 627 73<270.941 463.201>
VStem: 63 91<200.575 490.445>
LayerCount: 2
Fore
SplineSet
394 910 m 1
 528 803 l 1
 491 760 l 1
 365 841 l 1
 240 760 l 1
 202 803 l 1
 337 910 l 1
 394 910 l 1
358 700 m 0
 448 700 503 676 558 633 c 1
 509 576 l 1
 465 613 417 627 364 627 c 0
 252 627 154 555 154 345 c 0
 154 140 245 63 363 63 c 0
 440 63 486 91 523 120 c 1
 568 64 l 1
 526 23 460 -11 362 -11 c 0
 194 -11 63 113 63 345 c 0
 63 577 199 700 358 700 c 0
EndSplineSet
Validated: 1
EndChar

StartChar: Cdotaccent
Encoding: 266 266 20
Width: 600
GlyphClass: 2
Flags: W
HStem: -11 74<269.371 466.779> 627 73<270.941 463.201> 774 118<315.913 413.011>
VStem: 63 91<200.575 490.445> 304 121<786.147 879.853>
LayerCount: 2
Fore
SplineSet
364 892 m 0
 401 892 425 867 425 833 c 0
 425 799 401 774 364 774 c 0
 328 774 304 799 304 833 c 0
 304 867 328 892 364 892 c 0
358 700 m 0
 448 700 503 676 558 633 c 1
 509 576 l 1
 465 613 417 627 364 627 c 0
 252 627 154 555 154 345 c 0
 154 140 245 63 363 63 c 0
 440 63 486 91 523 120 c 1
 568 64 l 1
 526 23 460 -11 362 -11 c 0
 194 -11 63 113 63 345 c 0
 63 577 199 700 358 700 c 0
EndSplineSet
Validated: 1
EndChar

StartChar: D
Encoding: 68 68 21
Width: 600
GlyphClass: 2
Flags: W
HStem: 0 70<170 348.479> 618 71<170 354.61>
VStem: 83 87<70 618> 460 93<200.259 496.668>
LayerCount: 2
Fore
SplineSet
553 348 m 0
 553 59 384 0 241 0 c 2
 83 0 l 1
 83 689 l 1
 230 689 l 2
 392 689 553 634 553 348 c 0
460 348 m 0
 460 588 346 618 251 618 c 2
 170 618 l 1
 170 70 l 1
 252 70 l 2
 351 70 460 120 460 348 c 0
EndSplineSet
Validated: 1
EndChar

StartChar: Eth
Encoding: 208 208 22
Width: 600
GlyphClass: 2
Flags: W
HStem: 0 70<180 358.479> 320 66<20 93 180 338> 618 71<180 364.168>
VStem: 93 87<70 320 386 618> 470 92<200.259 496.668>
LayerCount: 2
Fore
SplineSet
240 689 m 2
 401 689 562 634 562 348 c 0
 562 59 394 0 251 0 c 2
 93 0 l 1
 93 320 l 1
 20 320 l 1
 20 386 l 1
 93 386 l 1
 93 689 l 1
 240 689 l 2
262 70 m 2
 361 70 470 120 470 348 c 0
 470 588 355 618 261 618 c 2
 180 618 l 1
 180 386 l 1
 338 386 l 1
 338 320 l 1
 180 320 l 1
 180 70 l 1
 262 70 l 2
EndSplineSet
Validated: 1
EndChar

StartChar: Dcaron
Encoding: 270 270 23
Width: 600
GlyphClass: 2
Flags: W
HStem: 0 70<170 348.479> 618 71<170 354.61>
VStem: 83 87<70 618> 460 93<200.259 496.668>
LayerCount: 2
Fore
SplineSet
410 905 m 1
 447 862 l 1
 313 754 l 1
 256 754 l 1
 121 862 l 1
 159 905 l 1
 284 824 l 1
 410 905 l 1
553 348 m 0
 553 59 384 0 241 0 c 2
 83 0 l 1
 83 689 l 1
 230 689 l 2
 392 689 553 634 553 348 c 0
460 348 m 0
 460 588 346 618 251 618 c 2
 170 618 l 1
 170 70 l 1
 252 70 l 2
 351 70 460 120 460 348 c 0
EndSplineSet
Validated: 1
EndChar

StartChar: Dcroat
Encoding: 272 272 24
Width: 600
GlyphClass: 2
Flags: W
HStem: 0 70<180 358.479> 320 66<20 93 180 338> 618 71<180 364.168>
VStem: 93 87<70 320 386 618> 470 92<200.259 496.668>
LayerCount: 2
Fore
SplineSet
240 689 m 2
 401 689 562 634 562 348 c 0
 562 59 394 0 251 0 c 2
 93 0 l 1
 93 320 l 1
 20 320 l 1
 20 386 l 1
 93 386 l 1
 93 689 l 1
 240 689 l 2
262 70 m 2
 361 70 470 120 470 348 c 0
 470 588 355 618 261 618 c 2
 180 618 l 1
 180 386 l 1
 338 386 l 1
 338 320 l 1
 180 320 l 1
 180 70 l 1
 262 70 l 2
EndSplineSet
Validated: 1
EndChar

StartChar: E
Encoding: 69 69 25
Width: 600
GlyphClass: 2
Flags: W
HStem: 0 70<212 526> 314 71<212 468> 617 72<212 507>
VStem: 126 86<70 314 385 617>
LayerCount: 2
Fore
SplineSet
212 617 m 1
 212 385 l 1
 468 385 l 1
 468 314 l 1
 212 314 l 1
 212 70 l 1
 526 70 l 1
 526 0 l 1
 126 0 l 1
 126 689 l 1
 517 689 l 1
 507 617 l 1
 212 617 l 1
EndSplineSet
Validated: 1
EndChar

StartChar: Eacute
Encoding: 201 201 26
Width: 600
GlyphClass: 2
Flags: W
HStem: 0 70<212 526> 314 71<212 468> 617 72<212 507>
VStem: 126 86<70 314 385 617>
LayerCount: 2
Fore
SplineSet
404 906 m 1
 441 834 l 1
 228 755 l 1
 206 801 l 1
 404 906 l 1
212 617 m 1
 212 385 l 1
 468 385 l 1
 468 314 l 1
 212 314 l 1
 212 70 l 1
 526 70 l 1
 526 0 l 1
 126 0 l 1
 126 689 l 1
 517 689 l 1
 507 617 l 1
 212 617 l 1
EndSplineSet
Validated: 1
EndChar

StartChar: Ebreve
Encoding: 276 276 27
Width: 600
GlyphClass: 2
Flags: W
HStem: 0 70<212 526> 314 71<212 468> 617 72<212 507> 759 65<258.34 381.237>
VStem: 126 86<70 314 385 617> 172 57<855.041 879.596> 412 58<855.041 879.569>
LayerCount: 2
Fore
SplineSet
319 759 m 0xf6
 243 759 179 805 172 878 c 1
 229 891 l 1
 244 851 272 824 319 824 c 0
 366 824 398 851 412 891 c 1
 470 878 l 1
 462 805 396 759 319 759 c 0xf6
212 617 m 1xfa
 212 385 l 1
 468 385 l 1
 468 314 l 1
 212 314 l 1
 212 70 l 1
 526 70 l 1
 526 0 l 1
 126 0 l 1
 126 689 l 1
 517 689 l 1
 507 617 l 1
 212 617 l 1xfa
EndSplineSet
Validated: 1
EndChar

StartChar: Ecaron
Encoding: 282 282 28
Width: 600
GlyphClass: 2
Flags: W
HStem: 0 70<212 526> 314 71<212 468> 617 72<212 507>
VStem: 126 86<70 314 385 617>
LayerCount: 2
Fore
SplineSet
447 905 m 1
 484 862 l 1
 350 754 l 1
 293 754 l 1
 158 862 l 1
 196 905 l 1
 321 824 l 1
 447 905 l 1
212 617 m 1
 212 385 l 1
 468 385 l 1
 468 314 l 1
 212 314 l 1
 212 70 l 1
 526 70 l 1
 526 0 l 1
 126 0 l 1
 126 689 l 1
 517 689 l 1
 507 617 l 1
 212 617 l 1
EndSplineSet
Validated: 1
EndChar

StartChar: Ecircumflex
Encoding: 202 202 29
Width: 600
GlyphClass: 2
Flags: W
HStem: 0 70<212 526> 314 71<212 468> 617 72<212 507>
VStem: 126 86<70 314 385 617>
LayerCount: 2
Fore
SplineSet
350 910 m 1
 484 803 l 1
 447 760 l 1
 321 841 l 1
 196 760 l 1
 158 803 l 1
 293 910 l 1
 350 910 l 1
212 617 m 1
 212 385 l 1
 468 385 l 1
 468 314 l 1
 212 314 l 1
 212 70 l 1
 526 70 l 1
 526 0 l 1
 126 0 l 1
 126 689 l 1
 517 689 l 1
 507 617 l 1
 212 617 l 1
EndSplineSet
Validated: 1
EndChar

StartChar: Edieresis
Encoding: 203 203 30
Width: 600
GlyphClass: 2
Flags: W
HStem: 0 70<212 526> 314 71<212 468> 617 72<212 507> 767 108<172.743 260.618 380.382 468.257>
VStem: 126 86<70 314 385 617> 162 109<777.315 864.551> 370 109<777.315 864.551>
LayerCount: 2
Fore
SplineSet
217 767 m 0xf6
 186 767 162 790 162 820 c 0
 162 852 186 875 217 875 c 0
 248 875 271 852 271 820 c 0
 271 790 248 767 217 767 c 0xf6
424 767 m 0
 393 767 370 790 370 820 c 0
 370 852 393 875 424 875 c 0
 455 875 479 852 479 820 c 0
 479 790 455 767 424 767 c 0
212 617 m 1xfa
 212 385 l 1
 468 385 l 1
 468 314 l 1
 212 314 l 1
 212 70 l 1
 526 70 l 1
 526 0 l 1
 126 0 l 1
 126 689 l 1
 517 689 l 1
 507 617 l 1
 212 617 l 1xfa
EndSplineSet
Validated: 1
EndChar

StartChar: Edotaccent
Encoding: 278 278 31
Width: 600
GlyphClass: 2
Flags: W
HStem: 0 70<212 526> 314 71<212 468> 617 72<212 507> 774 118<271.913 369.011>
VStem: 126 86<70 314 385 617> 260 121<786.147 879.853>
LayerCount: 2
Fore
SplineSet
320 892 m 0
 357 892 381 867 381 833 c 0
 381 799 357 774 320 774 c 0
 284 774 260 799 260 833 c 0
 260 867 284 892 320 892 c 0
212 617 m 1
 212 385 l 1
 468 385 l 1
 468 314 l 1
 212 314 l 1
 212 70 l 1
 526 70 l 1
 526 0 l 1
 126 0 l 1
 126 689 l 1
 517 689 l 1
 507 617 l 1
 212 617 l 1
EndSplineSet
Validated: 1
EndChar

StartChar: Egrave
Encoding: 200 200 32
Width: 600
GlyphClass: 2
Flags: W
HStem: 0 70<212 526> 314 71<212 468> 617 72<212 507>
VStem: 126 86<70 314 385 617>
LayerCount: 2
Fore
SplineSet
252 909 m 1
 437 801 l 1
 411 755 l 1
 206 837 l 1
 252 909 l 1
212 617 m 1
 212 385 l 1
 468 385 l 1
 468 314 l 1
 212 314 l 1
 212 70 l 1
 526 70 l 1
 526 0 l 1
 126 0 l 1
 126 689 l 1
 517 689 l 1
 507 617 l 1
 212 617 l 1
EndSplineSet
Validated: 1
EndChar

StartChar: Emacron
Encoding: 274 274 33
Width: 600
GlyphClass: 2
Flags: W
HStem: 0 70<212 526> 314 71<212 468> 617 72<212 507> 795 64<186 455>
VStem: 126 86<70 314 385 617>
LayerCount: 2
Fore
SplineSet
455 795 m 1
 186 795 l 1
 186 859 l 1
 455 859 l 1
 455 795 l 1
212 617 m 1
 212 385 l 1
 468 385 l 1
 468 314 l 1
 212 314 l 1
 212 70 l 1
 526 70 l 1
 526 0 l 1
 126 0 l 1
 126 689 l 1
 517 689 l 1
 507 617 l 1
 212 617 l 1
EndSplineSet
Validated: 1
EndChar

StartChar: Eogonek
Encoding: 280 280 34
Width: 600
GlyphClass: 2
Flags: W
HStem: -229 67<349.526 453.235> 0 70<212 372 425.492 526> 314 71<212 468> 617 72<212 507>
VStem: 126 86<70 314 385 617> 267 77<-154.51 -64.5656>
LayerCount: 2
Fore
SplineSet
212 70 m 1
 526 70 l 1
 526 0 l 1
 468 0 l 1
 365 -45 344 -79 344 -114 c 0
 344 -144 358 -162 400 -162 c 0
 421 -162 437 -160 461 -155 c 1
 453 -223 l 1
 432 -226 416 -229 389 -229 c 0
 313 -229 267 -187 267 -131 c 0
 267 -78 300 -35 372 0 c 1
 126 0 l 1
 126 689 l 1
 517 689 l 1
 507 617 l 1
 212 617 l 1
 212 385 l 1
 468 385 l 1
 468 314 l 1
 212 314 l 1
 212 70 l 1
EndSplineSet
Validated: 1
EndChar

StartChar: F
Encoding: 70 70 35
Width: 600
GlyphClass: 2
Flags: W
HStem: 0 21G<138 225> 306 70<225 495> 617 72<225 534>
VStem: 138 87<0 306 376 617>
LayerCount: 2
Fore
SplineSet
225 617 m 1
 225 376 l 1
 495 376 l 1
 495 306 l 1
 225 306 l 1
 225 0 l 1
 138 0 l 1
 138 689 l 1
 544 689 l 1
 534 617 l 1
 225 617 l 1
EndSplineSet
Validated: 1
EndChar

StartChar: G
Encoding: 71 71 36
Width: 600
GlyphClass: 2
Flags: W
HStem: -11 73<234.155 429.409> 304 73<317 452> 627 73<250.201 428.282>
VStem: 45 93<182.711 491.911> 452 87<84.6311 304>
LayerCount: 2
Fore
SplineSet
314 -11 m 0
 150 -11 45 107 45 345 c 0
 45 582 185 700 334 700 c 0
 424 700 476 674 530 624 c 1
 478 570 l 1
 436 609 391 627 334 627 c 0
 234 627 138 557 138 345 c 0
 138 145 201 62 321 62 c 0
 369 62 413 73 452 95 c 1
 452 304 l 1
 317 304 l 1
 307 377 l 1
 539 377 l 1
 539 49 l 1
 477 14 411 -11 314 -11 c 0
EndSplineSet
Validated: 1
EndChar

StartChar: Gbreve
Encoding: 286 286 37
Width: 600
GlyphClass: 2
Flags: W
HStem: -11 73<234.155 429.409> 304 73<317 452> 627 73<250.201 428.282> 759 65<267.34 390.237>
VStem: 45 93<182.711 491.911> 181 57<855.041 879.596> 421 58<855.041 879.569> 452 87<84.6311 304>
LayerCount: 2
Fore
SplineSet
328 759 m 0xfe
 252 759 188 805 181 878 c 1
 238 891 l 1
 253 851 281 824 328 824 c 0
 375 824 407 851 421 891 c 1
 479 878 l 1
 471 805 405 759 328 759 c 0xfe
314 -11 m 0
 150 -11 45 107 45 345 c 0
 45 582 185 700 334 700 c 0
 424 700 476 674 530 624 c 1
 478 570 l 1
 436 609 391 627 334 627 c 0
 234 627 138 557 138 345 c 0
 138 145 201 62 321 62 c 0
 369 62 413 73 452 95 c 1
 452 304 l 1
 317 304 l 1
 307 377 l 1
 539 377 l 1
 539 49 l 1xfd
 477 14 411 -11 314 -11 c 0
EndSplineSet
Validated: 1
EndChar

StartChar: Gcircumflex
Encoding: 284 284 38
Width: 600
GlyphClass: 2
Flags: W
HStem: -11 73<234.155 429.409> 304 73<317 452> 627 73<250.201 428.282>
VStem: 45 93<182.711 491.911> 452 87<84.6311 304>
LayerCount: 2
Fore
SplineSet
359 910 m 1
 493 803 l 1
 456 760 l 1
 330 841 l 1
 205 760 l 1
 167 803 l 1
 302 910 l 1
 359 910 l 1
314 -11 m 0
 150 -11 45 107 45 345 c 0
 45 582 185 700 334 700 c 0
 424 700 476 674 530 624 c 1
 478 570 l 1
 436 609 391 627 334 627 c 0
 234 627 138 557 138 345 c 0
 138 145 201 62 321 62 c 0
 369 62 413 73 452 95 c 1
 452 304 l 1
 317 304 l 1
 307 377 l 1
 539 377 l 1
 539 49 l 1
 477 14 411 -11 314 -11 c 0
EndSplineSet
Validated: 1
EndChar

StartChar: Gcommaaccent
Encoding: 290 290 39
Width: 600
GlyphClass: 2
Flags: W
HStem: -11 73<234.155 429.409> 304 73<317 452> 627 73<250.201 428.282>
VStem: 45 93<182.711 491.911> 279 109<-168.481 -81.7705> 452 87<84.6311 304>
LayerCount: 2
Fore
SplineSet
314 -11 m 0
 150 -11 45 107 45 345 c 0
 45 582 185 700 334 700 c 0
 424 700 476 674 530 624 c 1
 478 570 l 1
 436 609 391 627 334 627 c 0
 234 627 138 557 138 345 c 0
 138 145 201 62 321 62 c 0
 369 62 413 73 452 95 c 1
 452 304 l 1
 317 304 l 1
 307 377 l 1
 539 377 l 1
 539 49 l 1
 477 14 411 -11 314 -11 c 0
333 -71 m 0
 364 -71 388 -94 388 -124 c 0
 388 -141 383 -156 373 -179 c 2
 322 -286 l 1
 272 -286 l 1
 301 -169 l 1
 287 -158 279 -142 279 -124 c 0
 279 -93 303 -71 333 -71 c 0
EndSplineSet
Validated: 1
EndChar

StartChar: Gdotaccent
Encoding: 288 288 40
Width: 600
GlyphClass: 2
Flags: W
HStem: -11 73<234.155 429.409> 304 73<317 452> 627 73<250.201 428.282> 774 118<280.913 378.011>
VStem: 45 93<182.711 491.911> 269 121<786.147 879.853> 452 87<84.6311 304>
LayerCount: 2
Fore
SplineSet
329 892 m 0
 366 892 390 867 390 833 c 0
 390 799 366 774 329 774 c 0
 293 774 269 799 269 833 c 0
 269 867 293 892 329 892 c 0
314 -11 m 0
 150 -11 45 107 45 345 c 0
 45 582 185 700 334 700 c 0
 424 700 476 674 530 624 c 1
 478 570 l 1
 436 609 391 627 334 627 c 0
 234 627 138 557 138 345 c 0
 138 145 201 62 321 62 c 0
 369 62 413 73 452 95 c 1
 452 304 l 1
 317 304 l 1
 307 377 l 1
 539 377 l 1
 539 49 l 1
 477 14 411 -11 314 -11 c 0
EndSplineSet
Validated: 1
EndChar

StartChar: H
Encoding: 72 72 41
Width: 600
GlyphClass: 2
Flags: W
HStem: 0 21G<83 170 430 517> 327 71<170 430> 669 20G<83 170 430 517>
VStem: 83 87<0 327 398 689> 430 87<0 327 398 689>
LayerCount: 2
Fore
SplineSet
430 0 m 1
 430 327 l 1
 170 327 l 1
 170 0 l 1
 83 0 l 1
 83 689 l 1
 170 689 l 1
 170 398 l 1
 430 398 l 1
 430 689 l 1
 517 689 l 1
 517 0 l 1
 430 0 l 1
EndSplineSet
Validated: 1
EndChar

StartChar: Hbar
Encoding: 294 294 42
Width: 600
GlyphClass: 2
Flags: W
HStem: 0 21G<83 169 431 517> 326 72<169 431> 509 66<2 83 169 431 517 598> 669 20G<83 169 431 517>
VStem: 83 86<0 326 398 509 575 689> 431 86<0 326 398 509 575 689>
LayerCount: 2
Fore
SplineSet
598 575 m 1
 598 509 l 1
 517 509 l 1
 517 0 l 1
 431 0 l 1
 431 326 l 1
 169 326 l 1
 169 0 l 1
 83 0 l 1
 83 509 l 1
 2 509 l 1
 2 575 l 1
 83 575 l 1
 83 689 l 1
 169 689 l 1
 169 575 l 1
 431 575 l 1
 431 689 l 1
 517 689 l 1
 517 575 l 1
 598 575 l 1
431 398 m 1
 431 509 l 1
 169 509 l 1
 169 398 l 1
 431 398 l 1
EndSplineSet
Validated: 1
EndChar

StartChar: Hcircumflex
Encoding: 292 292 43
Width: 600
GlyphClass: 2
Flags: W
HStem: 0 21G<83 170 430 517> 327 71<170 430> 669 20G<83 170 430 517>
VStem: 83 87<0 327 398 689> 430 87<0 327 398 689>
LayerCount: 2
Fore
SplineSet
329 910 m 1
 463 803 l 1
 426 760 l 1
 300 841 l 1
 175 760 l 1
 137 803 l 1
 272 910 l 1
 329 910 l 1
430 0 m 1
 430 327 l 1
 170 327 l 1
 170 0 l 1
 83 0 l 1
 83 689 l 1
 170 689 l 1
 170 398 l 1
 430 398 l 1
 430 689 l 1
 517 689 l 1
 517 0 l 1
 430 0 l 1
EndSplineSet
Validated: 1
EndChar

StartChar: I
Encoding: 73 73 44
Width: 600
GlyphClass: 2
Flags: W
HStem: 0 69<103 256 344 497> 619 70<103 256 344 497>
VStem: 256 88<69 619>
LayerCount: 2
Fore
SplineSet
497 689 m 1
 497 619 l 1
 344 619 l 1
 344 69 l 1
 497 69 l 1
 497 0 l 1
 103 0 l 1
 103 69 l 1
 256 69 l 1
 256 619 l 1
 103 619 l 1
 103 689 l 1
 497 689 l 1
EndSplineSet
Validated: 1
EndChar

StartChar: IJ
Encoding: 306 306 45
Width: 600
GlyphClass: 2
Flags: W
HStem: -136 65<202.923 294.752> 0 72<11 111 201 281> 617 72<11 111 201 445>
VStem: 111 90<72 617> 445 87<61.6254 617>
LayerCount: 2
Fore
SplineSet
194 -71 m 1
 398 -51 445 45 445 193 c 2
 445 617 l 1
 201 617 l 1
 201 72 l 1
 281 72 l 1
 281 0 l 1
 11 0 l 1
 11 72 l 1
 111 72 l 1
 111 617 l 1
 11 617 l 1
 11 689 l 1
 532 689 l 1
 532 188 l 2
 532 32 471 -112 204 -136 c 1
 194 -71 l 1
EndSplineSet
Validated: 1
EndChar

StartChar: Iacute
Encoding: 205 205 46
Width: 600
GlyphClass: 2
Flags: W
HStem: 0 69<103 256 344 497> 619 70<103 256 344 497>
VStem: 256 88<69 619>
LayerCount: 2
Fore
SplineSet
383 906 m 1
 420 834 l 1
 207 755 l 1
 185 801 l 1
 383 906 l 1
497 689 m 1
 497 619 l 1
 344 619 l 1
 344 69 l 1
 497 69 l 1
 497 0 l 1
 103 0 l 1
 103 69 l 1
 256 69 l 1
 256 619 l 1
 103 619 l 1
 103 689 l 1
 497 689 l 1
EndSplineSet
Validated: 1
EndChar

StartChar: Ibreve
Encoding: 300 300 47
Width: 600
GlyphClass: 2
Flags: W
HStem: 0 69<103 256 344 497> 619 70<103 256 344 497> 759 65<237.34 360.237>
VStem: 151 57<855.041 879.596> 256 88<69 619> 391 58<855.041 879.569>
LayerCount: 2
Fore
SplineSet
298 759 m 0
 222 759 158 805 151 878 c 1
 208 891 l 1
 223 851 251 824 298 824 c 0
 345 824 377 851 391 891 c 1
 449 878 l 1
 441 805 375 759 298 759 c 0
497 689 m 1
 497 619 l 1
 344 619 l 1
 344 69 l 1
 497 69 l 1
 497 0 l 1
 103 0 l 1
 103 69 l 1
 256 69 l 1
 256 619 l 1
 103 619 l 1
 103 689 l 1
 497 689 l 1
EndSplineSet
Validated: 1
EndChar

StartChar: Icircumflex
Encoding: 206 206 48
Width: 600
GlyphClass: 2
Flags: W
HStem: 0 69<103 256 344 497> 619 70<103 256 344 497>
VStem: 256 88<69 619>
LayerCount: 2
Fore
SplineSet
329 910 m 1
 463 803 l 1
 426 760 l 1
 300 841 l 1
 175 760 l 1
 137 803 l 1
 272 910 l 1
 329 910 l 1
497 689 m 1
 497 619 l 1
 344 619 l 1
 344 69 l 1
 497 69 l 1
 497 0 l 1
 103 0 l 1
 103 69 l 1
 256 69 l 1
 256 619 l 1
 103 619 l 1
 103 689 l 1
 497 689 l 1
EndSplineSet
Validated: 1
EndChar

StartChar: Idieresis
Encoding: 207 207 49
Width: 600
GlyphClass: 2
Flags: W
HStem: 0 69<103 256 344 497> 619 70<103 256 344 497> 767 108<151.743 239.618 359.382 447.257>
VStem: 141 109<777.315 864.551> 256 88<69 619> 349 109<777.315 864.551>
LayerCount: 2
Fore
SplineSet
196 767 m 0
 165 767 141 790 141 820 c 0
 141 852 165 875 196 875 c 0
 227 875 250 852 250 820 c 0
 250 790 227 767 196 767 c 0
403 767 m 0
 372 767 349 790 349 820 c 0
 349 852 372 875 403 875 c 0
 434 875 458 852 458 820 c 0
 458 790 434 767 403 767 c 0
497 689 m 1
 497 619 l 1
 344 619 l 1
 344 69 l 1
 497 69 l 1
 497 0 l 1
 103 0 l 1
 103 69 l 1
 256 69 l 1
 256 619 l 1
 103 619 l 1
 103 689 l 1
 497 689 l 1
EndSplineSet
Validated: 1
EndChar

StartChar: Idotaccent
Encoding: 304 304 50
Width: 600
GlyphClass: 2
Flags: W
HStem: 0 69<103 256 344 497> 619 70<103 256 344 497> 774 118<250.913 348.011>
VStem: 239 121<786.147 879.853> 256 88<69 619>
LayerCount: 2
Fore
SplineSet
299 892 m 0xf0
 336 892 360 867 360 833 c 0
 360 799 336 774 299 774 c 0
 263 774 239 799 239 833 c 0
 239 867 263 892 299 892 c 0xf0
497 689 m 1
 497 619 l 1
 344 619 l 1
 344 69 l 1
 497 69 l 1
 497 0 l 1
 103 0 l 1
 103 69 l 1
 256 69 l 1
 256 619 l 1xe8
 103 619 l 1
 103 689 l 1
 497 689 l 1
EndSplineSet
Validated: 1
EndChar

StartChar: Igrave
Encoding: 204 204 51
Width: 600
GlyphClass: 2
Flags: W
HStem: 0 69<103 256 344 497> 619 70<103 256 344 497>
VStem: 256 88<69 619>
LayerCount: 2
Fore
SplineSet
231 909 m 1
 416 801 l 1
 390 755 l 1
 185 837 l 1
 231 909 l 1
497 689 m 1
 497 619 l 1
 344 619 l 1
 344 69 l 1
 497 69 l 1
 497 0 l 1
 103 0 l 1
 103 69 l 1
 256 69 l 1
 256 619 l 1
 103 619 l 1
 103 689 l 1
 497 689 l 1
EndSplineSet
Validated: 1
EndChar

StartChar: Imacron
Encoding: 298 298 52
Width: 600
GlyphClass: 2
Flags: W
HStem: 0 69<103 256 344 497> 619 70<103 256 344 497> 795 64<165 434>
VStem: 256 88<69 619>
LayerCount: 2
Fore
SplineSet
434 795 m 1
 165 795 l 1
 165 859 l 1
 434 859 l 1
 434 795 l 1
497 689 m 1
 497 619 l 1
 344 619 l 1
 344 69 l 1
 497 69 l 1
 497 0 l 1
 103 0 l 1
 103 69 l 1
 256 69 l 1
 256 619 l 1
 103 619 l 1
 103 689 l 1
 497 689 l 1
EndSplineSet
Validated: 1
EndChar

StartChar: Iogonek
Encoding: 302 302 53
Width: 600
GlyphClass: 2
Flags: W
HStem: -229 67<225.526 329.235> 0 69<103 248 344 497> 619 70<103 256 344 497>
VStem: 143 77<-154.51 -64.5656> 256 88<69 619>
LayerCount: 2
Fore
SplineSet
497 619 m 1
 344 619 l 1
 344 69 l 1
 497 69 l 1
 497 0 l 1
 344 0 l 1
 241 -45 220 -79 220 -114 c 0
 220 -144 234 -162 276 -162 c 0
 297 -162 313 -160 337 -155 c 1
 329 -223 l 1
 308 -226 292 -229 265 -229 c 0
 189 -229 143 -187 143 -131 c 0
 143 -78 176 -35 248 0 c 1
 103 0 l 1
 103 69 l 1
 256 69 l 1
 256 619 l 1
 103 619 l 1
 103 689 l 1
 497 689 l 1
 497 619 l 1
EndSplineSet
Validated: 1
EndChar

StartChar: Itilde
Encoding: 296 296 54
Width: 600
GlyphClass: 2
Flags: W
HStem: 0 69<103 256 344 497> 619 70<103 256 344 497> 778 64<311.768 395.172> 826 65<204.528 290.304>
VStem: 256 88<69 619>
LayerCount: 2
Fore
SplineSet
358 778 m 0xe8
 306 778 278 826 242 826 c 0
 219 826 205 810 189 780 c 1
 136 806 l 1
 159 854 194 891 242 891 c 0xd8
 298 891 321 842 358 842 c 0
 378 842 393 856 411 887 c 1
 465 860 l 1
 439 804 401 778 358 778 c 0xe8
497 689 m 1
 497 619 l 1
 344 619 l 1
 344 69 l 1
 497 69 l 1
 497 0 l 1
 103 0 l 1
 103 69 l 1
 256 69 l 1
 256 619 l 1
 103 619 l 1
 103 689 l 1
 497 689 l 1
EndSplineSet
Validated: 1
EndChar

StartChar: J
Encoding: 74 74 55
Width: 600
GlyphClass: 2
Flags: W
HStem: -12 73<158.882 338.865> 618 71<206 410>
VStem: 410 87<134.981 618>
LayerCount: 2
Fore
SplineSet
497 689 m 1
 497 229 l 2
 497 114 443 -12 261 -12 c 0
 194 -12 127 10 73 51 c 1
 111 108 l 1
 170 71 220 61 260 61 c 0
 356 61 410 126 410 233 c 2
 410 618 l 1
 206 618 l 1
 206 689 l 1
 497 689 l 1
EndSplineSet
Validated: 1
EndChar

StartChar: Jcircumflex
Encoding: 308 308 56
Width: 600
GlyphClass: 2
Flags: W
HStem: -12 73<158.882 338.865> 618 71<206 410>
VStem: 410 87<134.981 618>
LayerCount: 2
Fore
SplineSet
379 910 m 1
 513 803 l 1
 476 760 l 1
 350 841 l 1
 225 760 l 1
 187 803 l 1
 322 910 l 1
 379 910 l 1
497 689 m 1
 497 229 l 2
 497 114 443 -12 261 -12 c 0
 194 -12 127 10 73 51 c 1
 111 108 l 1
 170 71 220 61 260 61 c 0
 356 61 410 126 410 233 c 2
 410 618 l 1
 206 618 l 1
 206 689 l 1
 497 689 l 1
EndSplineSet
Validated: 1
EndChar

StartChar: K
Encoding: 75 75 57
Width: 600
GlyphClass: 2
Flags: W
HStem: 0 21G<105 192 462.728 587> 669 20G<105 192 450.178 568>
VStem: 105 87<0 689>
LayerCount: 2
Fore
SplineSet
192 0 m 1
 105 0 l 1
 105 689 l 1
 192 689 l 1
 192 0 l 1
197 368 m 1
 467 689 l 1
 568 689 l 1
 299 373 l 1
 587 0 l 1
 478 0 l 1
 197 368 l 1
EndSplineSet
Validated: 1
EndChar

StartChar: Kcommaaccent
Encoding: 310 310 58
Width: 600
GlyphClass: 2
Flags: W
HStem: 0 21G<105 192 462.728 587> 669 20G<105 192 450.178 568>
VStem: 105 87<0 689> 271 109<-168.481 -81.7705>
LayerCount: 2
Fore
SplineSet
192 0 m 1
 105 0 l 1
 105 689 l 1
 192 689 l 1
 192 0 l 1
197 368 m 1
 467 689 l 1
 568 689 l 1
 299 373 l 1
 587 0 l 1
 478 0 l 1
 197 368 l 1
325 -71 m 0
 356 -71 380 -94 380 -124 c 0
 380 -141 375 -156 365 -179 c 2
 314 -286 l 1
 264 -286 l 1
 293 -169 l 1
 279 -158 271 -142 271 -124 c 0
 271 -93 295 -71 325 -71 c 0
EndSplineSet
Validated: 1
EndChar

StartChar: L
Encoding: 76 76 59
Width: 600
GlyphClass: 2
Flags: W
HStem: 0 77<222 526> 669 20G<136 222>
VStem: 136 86<77 689>
LayerCount: 2
Fore
SplineSet
136 0 m 1
 136 689 l 1
 222 689 l 1
 222 77 l 1
 537 77 l 1
 526 0 l 1
 136 0 l 1
EndSplineSet
Validated: 1
EndChar

StartChar: Lacute
Encoding: 313 313 60
Width: 600
GlyphClass: 2
Flags: W
HStem: 0 77<222 526> 669 20G<136 222>
VStem: 136 86<77 689>
LayerCount: 2
Fore
SplineSet
262 906 m 1
 299 834 l 1
 86 755 l 1
 64 801 l 1
 262 906 l 1
136 0 m 1
 136 689 l 1
 222 689 l 1
 222 77 l 1
 537 77 l 1
 526 0 l 1
 136 0 l 1
EndSplineSet
Validated: 1
EndChar

StartChar: Lcaron
Encoding: 317 317 61
Width: 600
GlyphClass: 2
Flags: W
HStem: 0 77<222 526> 678 11G<136 222 305.238 384>
VStem: 136 86<77 689>
LayerCount: 2
Fore
SplineSet
308 698 m 1
 384 688 l 1
 331 510 l 1
 283 517 l 1
 308 698 l 1
136 0 m 1
 136 689 l 1
 222 689 l 1
 222 77 l 1
 537 77 l 1
 526 0 l 1
 136 0 l 1
EndSplineSet
Validated: 1
EndChar

StartChar: Lcommaaccent
Encoding: 315 315 62
Width: 600
GlyphClass: 2
Flags: W
HStem: 0 77<222 526> 669 20G<136 222>
VStem: 136 86<77 689> 281 109<-168.481 -81.7705>
LayerCount: 2
Fore
SplineSet
136 0 m 1
 136 689 l 1
 222 689 l 1
 222 77 l 1
 537 77 l 1
 526 0 l 1
 136 0 l 1
335 -71 m 0
 366 -71 390 -94 390 -124 c 0
 390 -141 385 -156 375 -179 c 2
 324 -286 l 1
 274 -286 l 1
 303 -169 l 1
 289 -158 281 -142 281 -124 c 0
 281 -93 305 -71 335 -71 c 0
EndSplineSet
Validated: 1
EndChar

StartChar: Ldot
Encoding: 319 319 63
Width: 600
GlyphClass: 2
Flags: W
HStem: 0 77<222 526> 319 118<423.913 521.011> 669 20G<136 222>
VStem: 136 86<77 689> 412 121<331.147 424.853>
LayerCount: 2
Fore
SplineSet
136 0 m 1
 136 689 l 1
 222 689 l 1
 222 77 l 1
 537 77 l 1
 526 0 l 1
 136 0 l 1
472 437 m 0
 509 437 533 412 533 378 c 0
 533 344 509 319 472 319 c 0
 436 319 412 344 412 378 c 0
 412 412 436 437 472 437 c 0
EndSplineSet
Validated: 1
EndChar

StartChar: Lslash
Encoding: 321 321 64
Width: 600
GlyphClass: 2
Flags: W
HStem: 0 77<220 525> 669 20G<134 220>
VStem: 134 86<77 268 399 689>
LayerCount: 2
Fore
SplineSet
220 77 m 1
 535 77 l 1
 525 0 l 1
 134 0 l 1
 134 268 l 1
 77 232 l 1
 40 289 l 1
 134 346 l 1
 134 689 l 1
 220 689 l 1
 220 399 l 1
 385 502 l 1
 422 446 l 1
 220 321 l 1
 220 77 l 1
EndSplineSet
Validated: 1
EndChar

StartChar: M
Encoding: 77 77 65
Width: 600
GlyphClass: 2
Flags: W
HStem: 0 21G<30 113 484.833 570> 669 20G<67.8679 194.746 404.466 532.132>
VStem: 30 82<0 123.667>
LayerCount: 2
Fore
SplineSet
531 689 m 5
 570 0 l 1
 486 0 l 1
 465 360 l 2
 459 455 459 575 459 609 c 5
 343 124 l 1
 256 124 l 1
 132 609 l 1
 133 591 134 555 134 513 c 0
 134 464 133 406 130 360 c 2
 112 0 l 1
 30 0 l 1
 69 689 l 1
 190 689 l 1
 302 217 l 1
 409 689 l 5
 531 689 l 5
EndSplineSet
Validated: 1
EndChar

StartChar: N
Encoding: 78 78 66
Width: 600
GlyphClass: 2
Flags: W
HStem: 0 21G<83 164 386.967 517> 669 20G<83 209.125 436 517>
VStem: 83 81<0 591.929> 436 81<97.5419 689> 448 69<81 315.209>
LayerCount: 2
Fore
SplineSet
395 0 m 1xe8
 152 605 l 1
 154 575 164 451 164 345 c 2
 164 0 l 1
 83 0 l 1
 83 689 l 1
 201 689 l 1
 448 81 l 1xe8
 447 109 436 220 436 344 c 2
 436 689 l 1
 517 689 l 1xf0
 517 0 l 1
 395 0 l 1xe8
EndSplineSet
Validated: 1
EndChar

StartChar: Nacute
Encoding: 323 323 67
Width: 600
GlyphClass: 2
Flags: W
HStem: 0 21G<83 164 386.967 517> 669 20G<83 209.125 436 517>
VStem: 83 81<0 591.929> 436 81<97.5419 689> 448 69<81 315.209>
LayerCount: 2
Fore
SplineSet
382 906 m 1xe0
 419 834 l 1
 206 755 l 1
 184 801 l 1
 382 906 l 1xe0
395 0 m 1
 152 605 l 1
 154 575 164 451 164 345 c 2
 164 0 l 1
 83 0 l 1
 83 689 l 1
 201 689 l 1
 448 81 l 1xe8
 447 109 436 220 436 344 c 2
 436 689 l 1
 517 689 l 1xf0
 517 0 l 1xe8
 395 0 l 1
EndSplineSet
Validated: 1
EndChar

StartChar: Ncaron
Encoding: 327 327 68
Width: 600
GlyphClass: 2
Flags: W
HStem: 0 21G<83 164 386.967 517> 669 20G<83 209.125 436 517>
VStem: 83 81<0 591.929> 436 81<97.5419 689> 448 69<81 315.209>
LayerCount: 2
Fore
SplineSet
425 905 m 1xe0
 462 862 l 1
 328 754 l 1
 271 754 l 1
 136 862 l 1
 174 905 l 1
 299 824 l 1
 425 905 l 1xe0
395 0 m 1
 152 605 l 1
 154 575 164 451 164 345 c 2
 164 0 l 1
 83 0 l 1
 83 689 l 1
 201 689 l 1
 448 81 l 1xe8
 447 109 436 220 436 344 c 2
 436 689 l 1
 517 689 l 1xf0
 517 0 l 1xe8
 395 0 l 1
EndSplineSet
Validated: 1
EndChar

StartChar: Ncommaaccent
Encoding: 325 325 69
Width: 600
GlyphClass: 2
Flags: W
HStem: 0 21G<83 164 386.967 517> 669 20G<83 209.125 436 517>
VStem: 83 81<0 591.929> 249 109<-168.481 -81.7705> 436 81<97.5419 689> 448 69<81 315.209>
LayerCount: 2
Fore
SplineSet
395 0 m 1xf4
 152 605 l 1
 154 575 164 451 164 345 c 2
 164 0 l 1
 83 0 l 1
 83 689 l 1
 201 689 l 1
 448 81 l 1xf4
 447 109 436 220 436 344 c 2
 436 689 l 1
 517 689 l 1xf8
 517 0 l 1
 395 0 l 1xf4
303 -71 m 0
 334 -71 358 -94 358 -124 c 0
 358 -141 353 -156 343 -179 c 2
 292 -286 l 1
 242 -286 l 1
 271 -169 l 1
 257 -158 249 -142 249 -124 c 0
 249 -93 273 -71 303 -71 c 0
EndSplineSet
Validated: 1
EndChar

StartChar: Eng
Encoding: 330 330 70
Width: 600
GlyphClass: 2
Flags: W
HStem: -212 70<290.034 415.203> 0 21G<83 164> 669 20G<83 209.125 436 517>
VStem: 83 81<0 591.929> 436 81<-120.447 0 97.5419 689> 448 69<81 315.209>
LayerCount: 2
Fore
SplineSet
517 -62 m 2xf8
 517 -162 460 -212 372 -212 c 0
 320 -212 283 -193 259 -175 c 1
 293 -118 l 1
 316 -133 334 -142 368 -142 c 0
 408 -142 430 -118 430 -67 c 2
 430 0 l 1
 395 0 l 1
 152 605 l 1
 154 575 164 451 164 345 c 2
 164 0 l 1
 83 0 l 1
 83 689 l 1
 201 689 l 1
 448 81 l 1xf4
 447 109 436 220 436 344 c 2
 436 689 l 1
 517 689 l 1
 517 -62 l 2xf8
EndSplineSet
Validated: 1
EndChar

StartChar: Ntilde
Encoding: 209 209 71
Width: 600
GlyphClass: 2
Flags: W
HStem: 0 21G<83 164 386.967 517> 669 20G<83 209.125 436 517> 778 64<309.768 393.172> 826 65<202.528 288.304>
VStem: 83 81<0 591.929> 436 81<97.5419 689> 448 69<81 315.209>
LayerCount: 2
Fore
SplineSet
356 778 m 0xe8
 304 778 276 826 240 826 c 0
 217 826 203 810 187 780 c 1
 134 806 l 1
 157 854 192 891 240 891 c 0xd8
 296 891 319 842 356 842 c 0
 376 842 391 856 409 887 c 1
 463 860 l 1
 437 804 399 778 356 778 c 0xe8
395 0 m 1
 152 605 l 1
 154 575 164 451 164 345 c 2
 164 0 l 1
 83 0 l 1
 83 689 l 1
 201 689 l 1
 448 81 l 1xca
 447 109 436 220 436 344 c 2
 436 689 l 1
 517 689 l 1xcc
 517 0 l 1xca
 395 0 l 1
EndSplineSet
Validated: 1
EndChar

StartChar: O
Encoding: 79 79 72
Width: 600
GlyphClass: 2
Flags: W
HStem: -11 73<222.07 378.575> 627 73<221.425 378.575>
VStem: 47 90<180.35 505.07> 463 90<181.978 506.698>
LayerCount: 2
Fore
SplineSet
553 344 m 0
 553 135 467 -11 300 -11 c 0
 133 -11 47 130 47 343 c 0
 47 551 133 700 300 700 c 0
 467 700 553 556 553 344 c 0
463 344 m 0
 463 527 416 627 300 627 c 0
 184 627 137 526 137 343 c 0
 137 159 187 62 300 62 c 0
 416 62 463 160 463 344 c 0
EndSplineSet
Validated: 1
EndChar

StartChar: Oacute
Encoding: 211 211 73
Width: 600
GlyphClass: 2
Flags: W
HStem: -11 73<222.07 378.575> 627 73<221.425 378.575>
VStem: 47 90<180.35 505.07> 463 90<181.978 506.698>
LayerCount: 2
Fore
SplineSet
383 906 m 1
 420 834 l 1
 207 755 l 1
 185 801 l 1
 383 906 l 1
553 344 m 0
 553 135 467 -11 300 -11 c 0
 133 -11 47 130 47 343 c 0
 47 551 133 700 300 700 c 0
 467 700 553 556 553 344 c 0
463 344 m 0
 463 527 416 627 300 627 c 0
 184 627 137 526 137 343 c 0
 137 159 187 62 300 62 c 0
 416 62 463 160 463 344 c 0
EndSplineSet
Validated: 1
EndChar

StartChar: Obreve
Encoding: 334 334 74
Width: 600
GlyphClass: 2
Flags: W
HStem: -11 73<222.07 378.575> 627 73<221.425 378.575> 759 65<237.34 360.237>
VStem: 47 90<180.35 505.07> 151 57<855.041 879.596> 391 58<855.041 879.569> 463 90<181.978 506.698>
LayerCount: 2
Fore
SplineSet
298 759 m 0
 222 759 158 805 151 878 c 1
 208 891 l 1
 223 851 251 824 298 824 c 0
 345 824 377 851 391 891 c 1
 449 878 l 1
 441 805 375 759 298 759 c 0
553 344 m 0
 553 135 467 -11 300 -11 c 0
 133 -11 47 130 47 343 c 0
 47 551 133 700 300 700 c 0
 467 700 553 556 553 344 c 0
463 344 m 0
 463 527 416 627 300 627 c 0
 184 627 137 526 137 343 c 0
 137 159 187 62 300 62 c 0
 416 62 463 160 463 344 c 0
EndSplineSet
Validated: 1
EndChar

StartChar: Ocircumflex
Encoding: 212 212 75
Width: 600
GlyphClass: 2
Flags: W
HStem: -11 73<222.07 378.575> 627 73<221.425 378.575>
VStem: 47 90<180.35 505.07> 463 90<181.978 506.698>
LayerCount: 2
Fore
SplineSet
329 910 m 1
 463 803 l 1
 426 760 l 1
 300 841 l 1
 175 760 l 1
 137 803 l 1
 272 910 l 1
 329 910 l 1
553 344 m 0
 553 135 467 -11 300 -11 c 0
 133 -11 47 130 47 343 c 0
 47 551 133 700 300 700 c 0
 467 700 553 556 553 344 c 0
463 344 m 0
 463 527 416 627 300 627 c 0
 184 627 137 526 137 343 c 0
 137 159 187 62 300 62 c 0
 416 62 463 160 463 344 c 0
EndSplineSet
Validated: 1
EndChar

StartChar: Odieresis
Encoding: 214 214 76
Width: 600
GlyphClass: 2
Flags: W
HStem: -11 73<222.07 378.575> 627 73<221.425 378.575> 767 108<151.743 239.618 359.382 447.257>
VStem: 47 90<180.35 505.07> 141 109<777.315 864.551> 349 109<777.315 864.551> 463 90<181.978 506.698>
LayerCount: 2
Fore
SplineSet
196 767 m 0
 165 767 141 790 141 820 c 0
 141 852 165 875 196 875 c 0
 227 875 250 852 250 820 c 0
 250 790 227 767 196 767 c 0
403 767 m 0
 372 767 349 790 349 820 c 0
 349 852 372 875 403 875 c 0
 434 875 458 852 458 820 c 0
 458 790 434 767 403 767 c 0
553 344 m 0
 553 135 467 -11 300 -11 c 0
 133 -11 47 130 47 343 c 0
 47 551 133 700 300 700 c 0
 467 700 553 556 553 344 c 0
463 344 m 0
 463 527 416 627 300 627 c 0
 184 627 137 526 137 343 c 0
 137 159 187 62 300 62 c 0
 416 62 463 160 463 344 c 0
EndSplineSet
Validated: 1
EndChar

StartChar: Ograve
Encoding: 210 210 77
Width: 600
GlyphClass: 2
Flags: W
HStem: -11 73<222.07 378.575> 627 73<221.425 378.575>
VStem: 47 90<180.35 505.07> 463 90<181.978 506.698>
LayerCount: 2
Fore
SplineSet
231 909 m 1
 416 801 l 1
 390 755 l 1
 185 837 l 1
 231 909 l 1
553 344 m 0
 553 135 467 -11 300 -11 c 0
 133 -11 47 130 47 343 c 0
 47 551 133 700 300 700 c 0
 467 700 553 556 553 344 c 0
463 344 m 0
 463 527 416 627 300 627 c 0
 184 627 137 526 137 343 c 0
 137 159 187 62 300 62 c 0
 416 62 463 160 463 344 c 0
EndSplineSet
Validated: 1
EndChar

StartChar: Ohungarumlaut
Encoding: 336 336 78
Width: 600
GlyphClass: 2
Flags: W
HStem: -11 73<222.07 378.575> 627 73<221.425 378.575>
VStem: 47 90<180.35 505.07> 463 90<181.978 506.698>
LayerCount: 2
Fore
SplineSet
182 781 m 1
 260 955 l 1
 335 919 l 1
 238 755 l 1
 182 781 l 1
347 781 m 1
 434 955 l 1
 508 916 l 1
 400 753 l 1
 347 781 l 1
553 344 m 0
 553 135 467 -11 300 -11 c 0
 133 -11 47 130 47 343 c 0
 47 551 133 700 300 700 c 0
 467 700 553 556 553 344 c 0
463 344 m 0
 463 527 416 627 300 627 c 0
 184 627 137 526 137 343 c 0
 137 159 187 62 300 62 c 0
 416 62 463 160 463 344 c 0
EndSplineSet
Validated: 1
EndChar

StartChar: Omacron
Encoding: 332 332 79
Width: 600
GlyphClass: 2
Flags: W
HStem: -11 73<222.07 378.575> 627 73<221.425 378.575> 795 64<165 434>
VStem: 47 90<180.35 505.07> 463 90<181.978 506.698>
LayerCount: 2
Fore
SplineSet
434 795 m 1
 165 795 l 1
 165 859 l 1
 434 859 l 1
 434 795 l 1
553 344 m 0
 553 135 467 -11 300 -11 c 0
 133 -11 47 130 47 343 c 0
 47 551 133 700 300 700 c 0
 467 700 553 556 553 344 c 0
463 344 m 0
 463 527 416 627 300 627 c 0
 184 627 137 526 137 343 c 0
 137 159 187 62 300 62 c 0
 416 62 463 160 463 344 c 0
EndSplineSet
Validated: 1
EndChar

StartChar: Oslash
Encoding: 216 216 80
Width: 600
GlyphClass: 2
Flags: W
HStem: -11 73<251.664 378.273> 627 73<221.512 348.477>
VStem: 47 91<177.581 505.07> 462 91<181.978 508.121>
LayerCount: 2
Fore
SplineSet
434 659 m 1
 513 602 553 489 553 344 c 0
 553 135 467 -11 300 -11 c 0
 277 -11 256 -9 237 -4 c 1
 204 -110 l 1
 129 -91 l 1
 167 28 l 1
 87 85 47 197 47 343 c 0
 47 551 133 700 300 700 c 0
 323 700 345 697 365 692 c 1
 397 803 l 1
 472 783 l 1
 434 659 l 1
138 343 m 0
 138 216 157 139 198 98 c 1
 349 621 l 1
 334 625 318 627 300 627 c 0
 184 627 138 526 138 343 c 0
300 62 m 0
 415 62 462 160 462 344 c 0
 462 472 444 550 402 591 c 1
 251 68 l 1
 266 64 282 62 300 62 c 0
EndSplineSet
Validated: 1
EndChar

StartChar: Oslashacute
Encoding: 510 510 81
Width: 600
GlyphClass: 2
Flags: W
HStem: -11 73<251.664 378.273> 627 73<221.512 348.477>
VStem: 47 91<177.581 505.07> 462 91<181.978 508.121>
LayerCount: 2
Fore
SplineSet
420 834 m 1
 207 755 l 1
 185 801 l 1
 383 906 l 1
 420 834 l 1
434 659 m 1
 513 602 553 489 553 344 c 0
 553 135 467 -11 300 -11 c 0
 277 -11 256 -9 237 -4 c 1
 204 -110 l 1
 129 -91 l 1
 167 28 l 1
 87 85 47 197 47 343 c 0
 47 551 133 700 300 700 c 0
 323 700 345 697 365 692 c 1
 397 803 l 1
 472 783 l 1
 434 659 l 1
138 343 m 0
 138 216 157 139 198 98 c 1
 349 621 l 1
 334 625 318 627 300 627 c 0
 184 627 138 526 138 343 c 0
300 62 m 0
 415 62 462 160 462 344 c 0
 462 472 444 550 402 591 c 1
 251 68 l 1
 266 64 282 62 300 62 c 0
EndSplineSet
Validated: 1
EndChar

StartChar: Otilde
Encoding: 213 213 82
Width: 600
GlyphClass: 2
Flags: W
HStem: -11 73<222.07 378.575> 627 73<221.425 378.575> 778 64<311.768 395.172> 826 65<204.528 290.304>
VStem: 47 90<180.35 505.07> 463 90<181.978 506.698>
LayerCount: 2
Fore
SplineSet
358 778 m 0xec
 306 778 278 826 242 826 c 0
 219 826 205 810 189 780 c 1
 136 806 l 1
 159 854 194 891 242 891 c 0xdc
 298 891 321 842 358 842 c 0
 378 842 393 856 411 887 c 1
 465 860 l 1
 439 804 401 778 358 778 c 0xec
553 344 m 0
 553 135 467 -11 300 -11 c 0
 133 -11 47 130 47 343 c 0
 47 551 133 700 300 700 c 0
 467 700 553 556 553 344 c 0
463 344 m 0
 463 527 416 627 300 627 c 0
 184 627 137 526 137 343 c 0
 137 159 187 62 300 62 c 0
 416 62 463 160 463 344 c 0
EndSplineSet
Validated: 1
EndChar

StartChar: OE
Encoding: 338 338 83
Width: 600
GlyphClass: 2
Flags: W
HStem: -11 70<155.026 271.958> 0 71<350 617> 314 71<419 573> 618 71<354 598> 628 72<154.528 273.026>
VStem: -1 93<154.577 527.989> 333 86<163.736 314 385 528.487>
LayerCount: 2
Fore
SplineSet
212 700 m 0xae
 236 700 259 696 283 689 c 1
 608 689 l 1
 598 618 l 1
 354 618 l 1
 391 574 414 499 419 385 c 1
 573 385 l 1
 573 314 l 1
 419 314 l 1
 416 196 391 118 350 71 c 1
 617 71 l 1
 617 0 l 1
 280 0 l 1x76
 258 -7 236 -11 212 -11 c 0
 69 -11 -1 108 -1 343 c 0
 -1 573 70 700 212 700 c 0xae
211 628 m 0xae
 130 628 92 547 92 343 c 0
 92 138 133 59 211 59 c 0
 295 59 333 139 333 344 c 0
 333 547 297 628 211 628 c 0xae
EndSplineSet
Validated: 1
EndChar

StartChar: P
Encoding: 80 80 84
Width: 600
GlyphClass: 2
Flags: W
HStem: 0 21G<116 202> 256 69<202 397.953> 620 69<202 400.444>
VStem: 116 86<0 256 325 620> 464 93<385.438 560.057>
LayerCount: 2
Fore
SplineSet
557 477 m 0
 557 316 446 256 291 256 c 2
 202 256 l 1
 202 0 l 1
 116 0 l 1
 116 689 l 1
 291 689 l 2
 456 689 557 621 557 477 c 0
464 476 m 0
 464 582 395 620 302 620 c 2
 202 620 l 1
 202 325 l 1
 299 325 l 2
 394 325 464 358 464 476 c 0
EndSplineSet
Validated: 1
EndChar

StartChar: Thorn
Encoding: 222 222 85
Width: 600
GlyphClass: 2
Flags: W
HStem: 0 21G<107 194> 128 70<194 401.942> 503 69<194 397.126> 669 20G<107 194>
VStem: 107 87<0 128 198 503 572 689> 464 92<256.993 441.399>
LayerCount: 2
Fore
SplineSet
194 689 m 1
 194 572 l 1
 292 572 l 2
 458 572 556 504 556 355 c 0
 556 194 446 128 292 128 c 2
 194 128 l 1
 194 0 l 1
 107 0 l 1
 107 689 l 1
 194 689 l 1
303 503 m 2
 194 503 l 1
 194 198 l 1
 303 198 l 2
 398 198 464 232 464 353 c 0
 464 460 399 503 303 503 c 2
EndSplineSet
Validated: 1
EndChar

StartChar: Q
Encoding: 81 81 86
Width: 600
GlyphClass: 2
Flags: W
HStem: -10 72<222.871 378.245> 627 73<221.083 378.614>
VStem: 45 91<180.446 502.188> 463 91<181.69 506.698>
LayerCount: 2
Fore
SplineSet
554 344 m 0
 554 198 517 85 411 27 c 1
 508 7 559 -36 593 -137 c 1
 501 -173 l 1
 459 -67 409 -10 290 -10 c 0
 132 -10 45 130 45 343 c 0
 45 551 132 700 300 700 c 0
 467 700 554 556 554 344 c 0
463 344 m 0
 463 527 416 627 300 627 c 0
 184 627 136 526 136 343 c 0
 136 159 187 62 300 62 c 0
 416 62 463 160 463 344 c 0
EndSplineSet
Validated: 1
EndChar

StartChar: R
Encoding: 82 82 87
Width: 600
GlyphClass: 2
Flags: W
HStem: 0 21G<102 188 457.186 574> 295 68<188 281> 619 70<188 395.878>
VStem: 102 86<0 295 363 619> 445 92<413.946 571.702>
LayerCount: 2
Fore
SplineSet
537 495 m 0
 537 392 464 329 369 305 c 1
 574 0 l 1
 470 0 l 1
 281 295 l 1
 188 295 l 1
 188 0 l 1
 102 0 l 1
 102 689 l 1
 278 689 l 2
 448 689 537 623 537 495 c 0
445 495 m 0
 445 584 394 619 288 619 c 2
 188 619 l 1
 188 363 l 1
 289 363 l 2
 388 363 445 400 445 495 c 0
EndSplineSet
Validated: 1
EndChar

StartChar: Racute
Encoding: 340 340 88
Width: 600
GlyphClass: 2
Flags: W
HStem: 0 21G<102 188 457.186 574> 295 68<188 281> 619 70<188 395.878>
VStem: 102 86<0 295 363 619> 445 92<413.946 571.702>
LayerCount: 2
Fore
SplineSet
383 906 m 1
 420 834 l 1
 207 755 l 1
 185 801 l 1
 383 906 l 1
537 495 m 0
 537 392 464 329 369 305 c 1
 574 0 l 1
 470 0 l 1
 281 295 l 1
 188 295 l 1
 188 0 l 1
 102 0 l 1
 102 689 l 1
 278 689 l 2
 448 689 537 623 537 495 c 0
445 495 m 0
 445 584 394 619 288 619 c 2
 188 619 l 1
 188 363 l 1
 289 363 l 2
 388 363 445 400 445 495 c 0
EndSplineSet
Validated: 1
EndChar

StartChar: Rcaron
Encoding: 344 344 89
Width: 600
GlyphClass: 2
Flags: W
HStem: 0 21G<102 188 457.186 574> 295 68<188 281> 619 70<188 395.878>
VStem: 102 86<0 295 363 619> 445 92<413.946 571.702>
LayerCount: 2
Fore
SplineSet
426 905 m 1
 463 862 l 1
 329 754 l 1
 272 754 l 1
 137 862 l 1
 175 905 l 1
 300 824 l 1
 426 905 l 1
537 495 m 0
 537 392 464 329 369 305 c 1
 574 0 l 1
 470 0 l 1
 281 295 l 1
 188 295 l 1
 188 0 l 1
 102 0 l 1
 102 689 l 1
 278 689 l 2
 448 689 537 623 537 495 c 0
445 495 m 0
 445 584 394 619 288 619 c 2
 188 619 l 1
 188 363 l 1
 289 363 l 2
 388 363 445 400 445 495 c 0
EndSplineSet
Validated: 1
EndChar

StartChar: Rcommaaccent
Encoding: 342 342 90
Width: 600
GlyphClass: 2
Flags: W
HStem: 0 21G<102 188 457.186 574> 295 68<188 281> 619 70<188 395.878>
VStem: 102 86<0 295 363 619> 248 109<-168.481 -81.7705> 445 92<413.946 571.702>
LayerCount: 2
Fore
SplineSet
537 495 m 0
 537 392 464 329 369 305 c 1
 574 0 l 1
 470 0 l 1
 281 295 l 1
 188 295 l 1
 188 0 l 1
 102 0 l 1
 102 689 l 1
 278 689 l 2
 448 689 537 623 537 495 c 0
445 495 m 0
 445 584 394 619 288 619 c 2
 188 619 l 1
 188 363 l 1
 289 363 l 2
 388 363 445 400 445 495 c 0
302 -71 m 0
 333 -71 357 -94 357 -124 c 0
 357 -141 352 -156 342 -179 c 2
 291 -286 l 1
 241 -286 l 1
 270 -169 l 1
 256 -158 248 -142 248 -124 c 0
 248 -93 272 -71 302 -71 c 0
EndSplineSet
Validated: 1
EndChar

StartChar: S
Encoding: 83 83 91
Width: 600
GlyphClass: 2
Flags: W
HStem: -11 72<174.691 379.921> 627 73<210.682 402.358>
VStem: 74 88<469.843 585.532> 446 91<119.664 257.181>
LayerCount: 2
Fore
SplineSet
537 191 m 0
 537 72 445 -11 285 -11 c 0
 184 -11 101 20 43 76 c 1
 95 135 l 1
 143 90 202 61 286 61 c 0
 370 61 446 102 446 189 c 0
 446 256 414 289 296 323 c 0
 159 363 74 413 74 522 c 0
 74 626 165 700 297 700 c 0
 391 700 459 671 517 621 c 1
 465 565 l 1
 416 608 358 627 300 627 c 0
 224 627 162 594 162 525 c 0
 162 466 204 436 335 398 c 0
 443 367 537 322 537 191 c 0
EndSplineSet
Validated: 1
EndChar

StartChar: Sacute
Encoding: 346 346 92
Width: 600
GlyphClass: 2
Flags: W
HStem: -11 72<174.691 379.921> 627 73<210.682 402.358>
VStem: 74 88<469.843 585.532> 446 91<119.664 257.181>
LayerCount: 2
Fore
SplineSet
388 906 m 1
 425 834 l 1
 212 755 l 1
 190 801 l 1
 388 906 l 1
537 191 m 0
 537 72 445 -11 285 -11 c 0
 184 -11 101 20 43 76 c 1
 95 135 l 1
 143 90 202 61 286 61 c 0
 370 61 446 102 446 189 c 0
 446 256 414 289 296 323 c 0
 159 363 74 413 74 522 c 0
 74 626 165 700 297 700 c 0
 391 700 459 671 517 621 c 1
 465 565 l 1
 416 608 358 627 300 627 c 0
 224 627 162 594 162 525 c 0
 162 466 204 436 335 398 c 0
 443 367 537 322 537 191 c 0
EndSplineSet
Validated: 1
EndChar

StartChar: Scaron
Encoding: 352 352 93
Width: 600
GlyphClass: 2
Flags: W
HStem: -11 72<174.691 379.921> 627 73<210.682 402.358>
VStem: 74 88<469.843 585.532> 446 91<119.664 257.181>
LayerCount: 2
Fore
SplineSet
432 905 m 1
 469 862 l 1
 335 754 l 1
 278 754 l 1
 143 862 l 1
 181 905 l 1
 306 824 l 1
 432 905 l 1
537 191 m 0
 537 72 445 -11 285 -11 c 0
 184 -11 101 20 43 76 c 1
 95 135 l 1
 143 90 202 61 286 61 c 0
 370 61 446 102 446 189 c 0
 446 256 414 289 296 323 c 0
 159 363 74 413 74 522 c 0
 74 626 165 700 297 700 c 0
 391 700 459 671 517 621 c 1
 465 565 l 1
 416 608 358 627 300 627 c 0
 224 627 162 594 162 525 c 0
 162 466 204 436 335 398 c 0
 443 367 537 322 537 191 c 0
EndSplineSet
Validated: 1
EndChar

StartChar: Scedilla
Encoding: 350 350 94
Width: 600
GlyphClass: 2
Flags: W
HStem: -238 56<200.111 331.743> -11 72<175.397 257 317 378.154> 627 73<210.682 402.358>
VStem: 74 88<469.843 585.532> 337 73<-174.385 -106.039> 446 91<119.663 257.181>
LayerCount: 2
Fore
SplineSet
537 191 m 0
 537 80 457 0 317 -10 c 1
 317 -57 l 1
 382 -63 410 -101 410 -140 c 0
 410 -206 352 -238 288 -238 c 0
 248 -238 209 -229 183 -214 c 1
 210 -166 l 1
 229 -176 255 -182 277 -182 c 0
 313 -182 337 -170 337 -141 c 0
 337 -104 304 -97 251 -97 c 1
 257 -11 l 1
 169 -5 96 26 43 76 c 1
 95 135 l 1
 143 90 202 61 286 61 c 0
 370 61 446 102 446 189 c 0
 446 256 414 289 296 323 c 0
 159 363 74 413 74 522 c 0
 74 626 165 700 297 700 c 0
 391 700 459 671 517 621 c 1
 465 565 l 1
 416 608 358 627 300 627 c 0
 224 627 162 594 162 525 c 0
 162 466 204 436 335 398 c 0
 443 367 537 322 537 191 c 0
EndSplineSet
Validated: 1
EndChar

StartChar: Scircumflex
Encoding: 348 348 95
Width: 600
GlyphClass: 2
Flags: W
HStem: -11 72<174.691 379.921> 627 73<210.682 402.358>
VStem: 74 88<469.843 585.532> 446 91<119.664 257.181>
LayerCount: 2
Fore
SplineSet
335 910 m 1
 469 803 l 1
 432 760 l 1
 306 841 l 1
 181 760 l 1
 143 803 l 1
 278 910 l 1
 335 910 l 1
537 191 m 0
 537 72 445 -11 285 -11 c 0
 184 -11 101 20 43 76 c 1
 95 135 l 1
 143 90 202 61 286 61 c 0
 370 61 446 102 446 189 c 0
 446 256 414 289 296 323 c 0
 159 363 74 413 74 522 c 0
 74 626 165 700 297 700 c 0
 391 700 459 671 517 621 c 1
 465 565 l 1
 416 608 358 627 300 627 c 0
 224 627 162 594 162 525 c 0
 162 466 204 436 335 398 c 0
 443 367 537 322 537 191 c 0
EndSplineSet
Validated: 1
EndChar

StartChar: Scommaaccent
Encoding: 536 536 96
Width: 600
GlyphClass: 2
Flags: W
HStem: -11 72<174.691 379.921> 627 73<210.682 402.358>
VStem: 74 88<469.843 585.532> 246 109<-168.481 -81.7705> 446 91<119.664 257.181>
LayerCount: 2
Fore
SplineSet
537 191 m 0
 537 72 445 -11 285 -11 c 0
 184 -11 101 20 43 76 c 1
 95 135 l 1
 143 90 202 61 286 61 c 0
 370 61 446 102 446 189 c 0
 446 256 414 289 296 323 c 0
 159 363 74 413 74 522 c 0
 74 626 165 700 297 700 c 0
 391 700 459 671 517 621 c 1
 465 565 l 1
 416 608 358 627 300 627 c 0
 224 627 162 594 162 525 c 0
 162 466 204 436 335 398 c 0
 443 367 537 322 537 191 c 0
300 -71 m 0
 331 -71 355 -94 355 -124 c 0
 355 -141 350 -156 340 -179 c 2
 289 -286 l 1
 239 -286 l 1
 268 -169 l 1
 254 -158 246 -142 246 -124 c 0
 246 -93 270 -71 300 -71 c 0
EndSplineSet
Validated: 1
EndChar

StartChar: T
Encoding: 84 84 97
Width: 600
GlyphClass: 2
Flags: W
HStem: 0 21G<255 342> 614 75<40 255 342 550>
VStem: 255 87<0 614>
LayerCount: 2
Fore
SplineSet
342 614 m 1
 342 0 l 1
 255 0 l 1
 255 614 l 1
 40 614 l 1
 40 689 l 1
 559 689 l 1
 550 614 l 1
 342 614 l 1
EndSplineSet
Validated: 1
EndChar

StartChar: Tbar
Encoding: 358 358 98
Width: 600
GlyphClass: 2
Flags: W
HStem: 0 21G<255 342> 350 67<125 255 342 473> 614 75<40 255 342 550>
VStem: 255 87<0 350 417 614>
LayerCount: 2
Fore
SplineSet
550 614 m 1
 342 614 l 1
 342 417 l 1
 473 417 l 1
 473 350 l 1
 342 350 l 1
 342 0 l 1
 255 0 l 1
 255 350 l 1
 125 350 l 1
 125 417 l 1
 255 417 l 1
 255 614 l 1
 40 614 l 1
 40 689 l 1
 559 689 l 1
 550 614 l 1
EndSplineSet
Validated: 1
EndChar

StartChar: Tcaron
Encoding: 356 356 99
Width: 600
GlyphClass: 2
Flags: W
HStem: 0 21G<255 342> 614 75<40 255 342 550>
VStem: 255 87<0 614>
LayerCount: 2
Fore
SplineSet
425 905 m 1
 462 862 l 1
 328 754 l 1
 271 754 l 1
 136 862 l 1
 174 905 l 1
 299 824 l 1
 425 905 l 1
342 614 m 1
 342 0 l 1
 255 0 l 1
 255 614 l 1
 40 614 l 1
 40 689 l 1
 559 689 l 1
 550 614 l 1
 342 614 l 1
EndSplineSet
Validated: 1
EndChar

StartChar: uni0162
Encoding: 354 354 100
Width: 600
GlyphClass: 2
Flags: W
HStem: -238 56<211.111 342.743> 614 75<40 255 342 550>
VStem: 255 87<0 614> 269 59<-60.0766 0> 348 73<-174.385 -106.039>
LayerCount: 2
Fore
SplineSet
342 0 m 1xe8
 328 0 l 1
 328 -57 l 1
 393 -63 421 -101 421 -140 c 0
 421 -206 363 -238 299 -238 c 0
 259 -238 220 -229 194 -214 c 1
 221 -166 l 1
 240 -176 266 -182 288 -182 c 0
 324 -182 348 -170 348 -141 c 0
 348 -104 315 -97 262 -97 c 1
 269 0 l 1xd8
 255 0 l 1
 255 614 l 1
 40 614 l 1
 40 689 l 1
 559 689 l 1
 550 614 l 1
 342 614 l 1
 342 0 l 1xe8
EndSplineSet
Validated: 1
EndChar

StartChar: uni021A
Encoding: 538 538 101
Width: 600
GlyphClass: 2
Flags: W
HStem: 0 21G<255 342> 614 75<40 255 342 550>
VStem: 248 109<-168.481 -81.7705> 255 87<0 614>
LayerCount: 2
Fore
SplineSet
342 614 m 1xd0
 342 0 l 1
 255 0 l 1
 255 614 l 1
 40 614 l 1
 40 689 l 1
 559 689 l 1
 550 614 l 1
 342 614 l 1xd0
302 -71 m 0
 333 -71 357 -94 357 -124 c 0xe0
 357 -141 352 -156 342 -179 c 2xd0
 291 -286 l 1
 241 -286 l 1
 270 -169 l 1
 256 -158 248 -142 248 -124 c 0xe0
 248 -93 272 -71 302 -71 c 0
EndSplineSet
Validated: 1
EndChar

StartChar: U
Encoding: 85 85 102
Width: 600
GlyphClass: 2
Flags: W
HStem: -11 75<217.675 382.96> 669 20G<72 159 440 528>
VStem: 72 87<124.498 689> 440 88<127.375 689>
LayerCount: 2
Fore
SplineSet
528 689 m 5
 528 223 l 6
 528 83 438 -11 299 -11 c 4
 157 -11 72 84 72 223 c 6
 72 689 l 5
 159 689 l 5
 159 220 l 6
 159 115 210 64 299 64 c 4
 389 64 440 115 440 220 c 6
 440 689 l 5
 528 689 l 5
EndSplineSet
Validated: 1
EndChar

StartChar: Uacute
Encoding: 218 218 103
Width: 600
GlyphClass: 2
Flags: W
HStem: -11 75<217.675 382.96> 669 20G<72 159 440 528>
VStem: 72 87<124.498 689> 440 88<127.375 689>
LayerCount: 2
Fore
SplineSet
383 906 m 1
 420 834 l 1
 207 755 l 1
 185 801 l 1
 383 906 l 1
528 689 m 1
 528 223 l 2
 528 83 438 -11 299 -11 c 0
 157 -11 72 84 72 223 c 2
 72 689 l 1
 159 689 l 1
 159 220 l 2
 159 115 210 64 299 64 c 0
 389 64 440 115 440 220 c 2
 440 689 l 1
 528 689 l 1
EndSplineSet
Validated: 1
EndChar

StartChar: Ubreve
Encoding: 364 364 104
Width: 600
GlyphClass: 2
Flags: W
HStem: -11 75<217.675 382.96> 669 20G<72 159 440 528> 759 65<237.34 360.237>
VStem: 72 87<124.498 689> 151 57<855.041 879.596> 391 58<855.041 879.569> 440 88<127.375 689>
LayerCount: 2
Fore
SplineSet
298 759 m 0xec
 222 759 158 805 151 878 c 1
 208 891 l 1
 223 851 251 824 298 824 c 0
 345 824 377 851 391 891 c 1
 449 878 l 1
 441 805 375 759 298 759 c 0xec
528 689 m 1xf2
 528 223 l 2
 528 83 438 -11 299 -11 c 0
 157 -11 72 84 72 223 c 2
 72 689 l 1
 159 689 l 1
 159 220 l 2
 159 115 210 64 299 64 c 0
 389 64 440 115 440 220 c 2
 440 689 l 1
 528 689 l 1xf2
EndSplineSet
Validated: 1
EndChar

StartChar: Ucircumflex
Encoding: 219 219 105
Width: 600
GlyphClass: 2
Flags: W
HStem: -11 75<217.675 382.96> 669 20G<72 159 440 528>
VStem: 72 87<124.498 689> 440 88<127.375 689>
LayerCount: 2
Fore
SplineSet
329 910 m 1
 463 803 l 1
 426 760 l 1
 300 841 l 1
 175 760 l 1
 137 803 l 1
 272 910 l 1
 329 910 l 1
528 689 m 1
 528 223 l 2
 528 83 438 -11 299 -11 c 0
 157 -11 72 84 72 223 c 2
 72 689 l 1
 159 689 l 1
 159 220 l 2
 159 115 210 64 299 64 c 0
 389 64 440 115 440 220 c 2
 440 689 l 1
 528 689 l 1
EndSplineSet
Validated: 1
EndChar

StartChar: Udieresis
Encoding: 220 220 106
Width: 600
GlyphClass: 2
Flags: W
HStem: -11 75<217.675 382.96> 669 20G<72 159 440 528> 767 108<151.743 239.618 359.382 447.257>
VStem: 72 87<124.498 689> 141 109<777.315 864.551> 349 109<777.315 864.551> 440 88<127.375 689>
LayerCount: 2
Fore
SplineSet
196 767 m 0xe8
 165 767 141 790 141 820 c 0
 141 852 165 875 196 875 c 0
 227 875 250 852 250 820 c 0
 250 790 227 767 196 767 c 0xe8
403 767 m 0
 372 767 349 790 349 820 c 0
 349 852 372 875 403 875 c 0
 434 875 458 852 458 820 c 0xe4
 458 790 434 767 403 767 c 0
528 689 m 1xf2
 528 223 l 2
 528 83 438 -11 299 -11 c 0
 157 -11 72 84 72 223 c 2
 72 689 l 1
 159 689 l 1
 159 220 l 2
 159 115 210 64 299 64 c 0
 389 64 440 115 440 220 c 2
 440 689 l 1
 528 689 l 1xf2
EndSplineSet
Validated: 1
EndChar

StartChar: Ugrave
Encoding: 217 217 107
Width: 600
GlyphClass: 2
Flags: W
HStem: -11 75<217.675 382.96> 669 20G<72 159 440 528>
VStem: 72 87<124.498 689> 440 88<127.375 689>
LayerCount: 2
Fore
SplineSet
231 909 m 1
 416 801 l 1
 390 755 l 1
 185 837 l 1
 231 909 l 1
528 689 m 1
 528 223 l 2
 528 83 438 -11 299 -11 c 0
 157 -11 72 84 72 223 c 2
 72 689 l 1
 159 689 l 1
 159 220 l 2
 159 115 210 64 299 64 c 0
 389 64 440 115 440 220 c 2
 440 689 l 1
 528 689 l 1
EndSplineSet
Validated: 1
EndChar

StartChar: Uhungarumlaut
Encoding: 368 368 108
Width: 600
GlyphClass: 2
Flags: W
HStem: -11 75<217.675 382.96> 669 20G<72 159 440 528>
VStem: 72 87<124.498 689> 440 88<127.375 689>
LayerCount: 2
Fore
SplineSet
182 781 m 1
 260 955 l 1
 335 919 l 1
 238 755 l 1
 182 781 l 1
347 781 m 1
 434 955 l 1
 508 916 l 1
 400 753 l 1
 347 781 l 1
528 689 m 1
 528 223 l 2
 528 83 438 -11 299 -11 c 0
 157 -11 72 84 72 223 c 2
 72 689 l 1
 159 689 l 1
 159 220 l 2
 159 115 210 64 299 64 c 0
 389 64 440 115 440 220 c 2
 440 689 l 1
 528 689 l 1
EndSplineSet
Validated: 1
EndChar

StartChar: Umacron
Encoding: 362 362 109
Width: 600
GlyphClass: 2
Flags: W
HStem: -11 75<217.675 382.96> 669 20G<72 159 440 528> 795 64<165 434>
VStem: 72 87<124.498 689> 440 88<127.375 689>
LayerCount: 2
Fore
SplineSet
434 795 m 1
 165 795 l 1
 165 859 l 1
 434 859 l 1
 434 795 l 1
528 689 m 1
 528 223 l 2
 528 83 438 -11 299 -11 c 0
 157 -11 72 84 72 223 c 2
 72 689 l 1
 159 689 l 1
 159 220 l 2
 159 115 210 64 299 64 c 0
 389 64 440 115 440 220 c 2
 440 689 l 1
 528 689 l 1
EndSplineSet
Validated: 1
EndChar

StartChar: Uogonek
Encoding: 370 370 110
Width: 600
GlyphClass: 2
Flags: W
HStem: -229 67<257.526 361.235> 669 20G<72 159 440 528>
VStem: 72 87<125.469 689> 175 77<-154.51 -63.723> 440 88<126.383 689>
LayerCount: 2
Fore
SplineSet
440 689 m 1
 528 689 l 1
 528 223 l 2
 528 110 469 26 372 -2 c 1
 273 -46 252 -79 252 -114 c 0
 252 -144 266 -162 308 -162 c 0
 329 -162 345 -160 369 -155 c 1
 361 -223 l 1
 340 -226 324 -229 297 -229 c 0
 221 -229 175 -187 175 -131 c 0
 175 -83 202 -42 262 -9 c 1
 143 6 72 96 72 223 c 2
 72 689 l 1
 159 689 l 1
 159 220 l 2
 159 115 210 64 299 64 c 0
 389 64 440 115 440 220 c 2
 440 689 l 1
EndSplineSet
Validated: 1
EndChar

StartChar: Uring
Encoding: 366 366 111
Width: 600
GlyphClass: 2
Flags: W
HStem: -11 75<217.675 382.96> 669 20G<72 159 440 528> 738 45<255.514 344.633> 896 47<255.155 344.984>
VStem: 72 87<124.498 689> 189 57<792.763 886.873> 354 57<792.407 887.226> 440 88<127.375 689>
LayerCount: 2
Fore
SplineSet
300 943 m 0
 365 943 411 897 411 840 c 0
 411 783 365 738 300 738 c 0
 235 738 189 783 189 840 c 0
 189 897 235 943 300 943 c 0
300 896 m 0
 267 896 246 875 246 840 c 0
 246 804 267 783 300 783 c 0
 334 783 354 804 354 840 c 0
 354 875 334 896 300 896 c 0
528 689 m 1
 528 223 l 2
 528 83 438 -11 299 -11 c 0
 157 -11 72 84 72 223 c 2
 72 689 l 1
 159 689 l 1
 159 220 l 2
 159 115 210 64 299 64 c 0
 389 64 440 115 440 220 c 2
 440 689 l 1
 528 689 l 1
EndSplineSet
Validated: 1
EndChar

StartChar: Utilde
Encoding: 360 360 112
Width: 600
GlyphClass: 2
Flags: W
HStem: -11 75<217.675 382.96> 669 20G<72 159 440 528> 778 64<311.768 395.172> 826 65<204.528 290.304>
VStem: 72 87<124.498 689> 440 88<127.375 689>
LayerCount: 2
Fore
SplineSet
358 778 m 0xec
 306 778 278 826 242 826 c 0
 219 826 205 810 189 780 c 1
 136 806 l 1
 159 854 194 891 242 891 c 0xdc
 298 891 321 842 358 842 c 0
 378 842 393 856 411 887 c 1
 465 860 l 1
 439 804 401 778 358 778 c 0xec
528 689 m 1
 528 223 l 2
 528 83 438 -11 299 -11 c 0
 157 -11 72 84 72 223 c 2
 72 689 l 1
 159 689 l 1
 159 220 l 2
 159 115 210 64 299 64 c 0
 389 64 440 115 440 220 c 2
 440 689 l 1
 528 689 l 1
EndSplineSet
Validated: 1
EndChar

StartChar: V
Encoding: 86 86 113
Width: 600
GlyphClass: 2
Flags: W
HStem: 0 21G<248.324 351.676> 669 20G<25 124.237 481.695 575>
LayerCount: 2
Fore
SplineSet
302 99 m 1
 488 689 l 1
 575 689 l 1
 345 0 l 1
 255 0 l 1
 25 689 l 1
 118 689 l 1
 302 99 l 1
EndSplineSet
Validated: 1
EndChar

StartChar: W
Encoding: 87 87 114
Width: 600
GlyphClass: 2
Flags: W
HStem: 0 21G<98.2134 221.077 373.962 494.019> 669 20G<5 94.4579 512.239 595>
LayerCount: 2
Fore
SplineSet
595 689 m 1
 491 0 l 1
 377 0 l 1
 298 520 l 1
 218 0 l 1
 101 0 l 1
 5 689 l 1
 92 689 l 1
 165 95 l 1
 248 609 l 1
 354 609 l 1
 433 95 l 1
 515 689 l 1
 595 689 l 1
EndSplineSet
Validated: 1
EndChar

StartChar: Wacute
Encoding: 7810 7810 115
Width: 600
GlyphClass: 2
Flags: W
HStem: 0 21G<98.2134 221.077 373.962 494.019> 669 20G<5 94.4579 512.239 595>
LayerCount: 2
Fore
SplineSet
383 906 m 1
 420 834 l 1
 207 755 l 1
 185 801 l 1
 383 906 l 1
595 689 m 1
 491 0 l 1
 377 0 l 1
 298 520 l 1
 218 0 l 1
 101 0 l 1
 5 689 l 1
 92 689 l 1
 165 95 l 1
 248 609 l 1
 354 609 l 1
 433 95 l 1
 515 689 l 1
 595 689 l 1
EndSplineSet
Validated: 1
EndChar

StartChar: Wcircumflex
Encoding: 372 372 116
Width: 600
GlyphClass: 2
Flags: W
HStem: 0 21G<98.2134 221.077 373.962 494.019> 669 20G<5 94.4579 512.239 595>
LayerCount: 2
Fore
SplineSet
329 910 m 1
 463 803 l 1
 426 760 l 1
 300 841 l 1
 175 760 l 1
 137 803 l 1
 272 910 l 1
 329 910 l 1
595 689 m 1
 491 0 l 1
 377 0 l 1
 298 520 l 1
 218 0 l 1
 101 0 l 1
 5 689 l 1
 92 689 l 1
 165 95 l 1
 248 609 l 1
 354 609 l 1
 433 95 l 1
 515 689 l 1
 595 689 l 1
EndSplineSet
Validated: 1
EndChar

StartChar: Wdieresis
Encoding: 7812 7812 117
Width: 600
GlyphClass: 2
Flags: W
HStem: 0 21G<98.2134 221.077 373.962 494.019> 669 20G<5 94.4579 512.239 595> 767 108<151.743 239.618 359.382 447.257>
VStem: 141 109<777.315 864.551> 349 109<777.315 864.551>
LayerCount: 2
Fore
SplineSet
196 767 m 0
 165 767 141 790 141 820 c 0
 141 852 165 875 196 875 c 0
 227 875 250 852 250 820 c 0
 250 790 227 767 196 767 c 0
403 767 m 0
 372 767 349 790 349 820 c 0
 349 852 372 875 403 875 c 0
 434 875 458 852 458 820 c 0
 458 790 434 767 403 767 c 0
595 689 m 1
 491 0 l 1
 377 0 l 1
 298 520 l 1
 218 0 l 1
 101 0 l 1
 5 689 l 1
 92 689 l 1
 165 95 l 1
 248 609 l 1
 354 609 l 1
 433 95 l 1
 515 689 l 1
 595 689 l 1
EndSplineSet
Validated: 1
EndChar

StartChar: Wgrave
Encoding: 7808 7808 118
Width: 600
GlyphClass: 2
Flags: W
HStem: 0 21G<98.2134 221.077 373.962 494.019> 669 20G<5 94.4579 512.239 595>
LayerCount: 2
Fore
SplineSet
231 909 m 1
 416 801 l 1
 390 755 l 1
 185 837 l 1
 231 909 l 1
595 689 m 1
 491 0 l 1
 377 0 l 1
 298 520 l 1
 218 0 l 1
 101 0 l 1
 5 689 l 1
 92 689 l 1
 165 95 l 1
 248 609 l 1
 354 609 l 1
 433 95 l 1
 515 689 l 1
 595 689 l 1
EndSplineSet
Validated: 1
EndChar

StartChar: X
Encoding: 88 88 119
Width: 600
GlyphClass: 2
Flags: W
HStem: 0 21G<31 135.19 458.003 569> 669 20G<49 160.396 440.528 545>
LayerCount: 2
Fore
SplineSet
49 689 m 5
 149 689 l 5
 300 424 l 5
 452 689 l 5
 545 689 l 5
 350 372 l 5
 569 0 l 5
 469 0 l 5
 298 311 l 5
 124 0 l 5
 31 0 l 5
 247 367 l 5
 49 689 l 5
EndSplineSet
Validated: 1
EndChar

StartChar: Y
Encoding: 89 89 120
Width: 600
GlyphClass: 2
Flags: W
HStem: 0 21G<256 344> 669 20G<23 129.578 476.306 577>
VStem: 256 88<0 265>
LayerCount: 2
Fore
SplineSet
344 266 m 1
 344 0 l 1
 256 0 l 1
 256 265 l 1
 23 689 l 1
 119 689 l 1
 302 343 l 1
 487 689 l 1
 577 689 l 1
 344 266 l 1
EndSplineSet
Validated: 1
EndChar

StartChar: Yacute
Encoding: 221 221 121
Width: 600
GlyphClass: 2
Flags: W
HStem: 0 21G<256 344> 669 20G<23 129.578 476.306 577>
VStem: 256 88<0 265>
LayerCount: 2
Fore
SplineSet
386 906 m 1
 423 834 l 1
 210 755 l 1
 188 801 l 1
 386 906 l 1
344 266 m 1
 344 0 l 1
 256 0 l 1
 256 265 l 1
 23 689 l 1
 119 689 l 1
 302 343 l 1
 487 689 l 1
 577 689 l 1
 344 266 l 1
EndSplineSet
Validated: 1
EndChar

StartChar: Ycircumflex
Encoding: 374 374 122
Width: 600
GlyphClass: 2
Flags: W
HStem: 0 21G<256 344> 669 20G<23 129.578 476.306 577>
VStem: 256 88<0 265>
LayerCount: 2
Fore
SplineSet
332 910 m 1
 466 803 l 1
 429 760 l 1
 303 841 l 1
 178 760 l 1
 140 803 l 1
 275 910 l 1
 332 910 l 1
344 266 m 1
 344 0 l 1
 256 0 l 1
 256 265 l 1
 23 689 l 1
 119 689 l 1
 302 343 l 1
 487 689 l 1
 577 689 l 1
 344 266 l 1
EndSplineSet
Validated: 1
EndChar

StartChar: Ydieresis
Encoding: 376 376 123
Width: 600
GlyphClass: 2
Flags: W
HStem: 0 21G<256 344> 669 20G<23 129.578 476.306 577> 767 108<154.743 242.618 362.382 450.257>
VStem: 144 109<777.315 864.551> 256 88<0 265> 352 109<777.315 864.551>
LayerCount: 2
Fore
SplineSet
199 767 m 0
 168 767 144 790 144 820 c 0
 144 852 168 875 199 875 c 0
 230 875 253 852 253 820 c 0
 253 790 230 767 199 767 c 0
406 767 m 0
 375 767 352 790 352 820 c 0
 352 852 375 875 406 875 c 0
 437 875 461 852 461 820 c 0
 461 790 437 767 406 767 c 0
344 266 m 1
 344 0 l 1
 256 0 l 1
 256 265 l 1
 23 689 l 1
 119 689 l 1
 302 343 l 1
 487 689 l 1
 577 689 l 1
 344 266 l 1
EndSplineSet
Validated: 1
EndChar

StartChar: Ygrave
Encoding: 7922 7922 124
Width: 600
GlyphClass: 2
Flags: W
HStem: 0 21G<256 344> 669 20G<23 129.578 476.306 577>
VStem: 256 88<0 265>
LayerCount: 2
Fore
SplineSet
234 909 m 1
 419 801 l 1
 393 755 l 1
 188 837 l 1
 234 909 l 1
344 266 m 1
 344 0 l 1
 256 0 l 1
 256 265 l 1
 23 689 l 1
 119 689 l 1
 302 343 l 1
 487 689 l 1
 577 689 l 1
 344 266 l 1
EndSplineSet
Validated: 1
EndChar

StartChar: Z
Encoding: 90 90 125
Width: 600
GlyphClass: 2
Flags: W
HStem: 0 75<167 517> 614 75<108 435>
LayerCount: 2
Fore
SplineSet
167 75 m 5
 527 75 l 5
 517 0 l 5
 72 0 l 5
 72 70 l 5
 435 614 l 5
 108 614 l 5
 108 689 l 5
 528 689 l 5
 528 617 l 5
 167 75 l 5
EndSplineSet
Validated: 1
EndChar

StartChar: Zacute
Encoding: 377 377 126
Width: 600
GlyphClass: 2
Flags: W
HStem: 0 75<167 517> 614 75<108 435>
LayerCount: 2
Fore
SplineSet
401 906 m 1
 438 834 l 1
 225 755 l 1
 203 801 l 1
 401 906 l 1
167 75 m 1
 527 75 l 1
 517 0 l 1
 72 0 l 1
 72 70 l 1
 435 614 l 1
 108 614 l 1
 108 689 l 1
 528 689 l 1
 528 617 l 1
 167 75 l 1
EndSplineSet
Validated: 1
EndChar

StartChar: Zcaron
Encoding: 381 381 127
Width: 600
GlyphClass: 2
Flags: W
HStem: 0 75<167 517> 614 75<108 435>
LayerCount: 2
Fore
SplineSet
445 905 m 1
 482 862 l 1
 348 754 l 1
 291 754 l 1
 156 862 l 1
 194 905 l 1
 319 824 l 1
 445 905 l 1
167 75 m 1
 527 75 l 1
 517 0 l 1
 72 0 l 1
 72 70 l 1
 435 614 l 1
 108 614 l 1
 108 689 l 1
 528 689 l 1
 528 617 l 1
 167 75 l 1
EndSplineSet
Validated: 1
EndChar

StartChar: Zdotaccent
Encoding: 379 379 128
Width: 600
GlyphClass: 2
Flags: W
HStem: 0 75<167 517> 614 75<108 435> 774 118<268.913 366.011>
VStem: 257 121<786.147 879.853>
LayerCount: 2
Fore
SplineSet
317 892 m 0
 354 892 378 867 378 833 c 0
 378 799 354 774 317 774 c 0
 281 774 257 799 257 833 c 0
 257 867 281 892 317 892 c 0
167 75 m 1
 527 75 l 1
 517 0 l 1
 72 0 l 1
 72 70 l 1
 435 614 l 1
 108 614 l 1
 108 689 l 1
 528 689 l 1
 528 617 l 1
 167 75 l 1
EndSplineSet
Validated: 1
EndChar

StartChar: a
Encoding: 97 97 129
Width: 600
GlyphClass: 2
Flags: W
HStem: -11 63<188.353 337.234 485.8 502.136> 262 58<209.484 393> 468 70<146.28 354.19>
VStem: 69 90<80.5763 218.922> 393 85<100.787 262 320 430.502>
LayerCount: 2
Fore
SplineSet
478 115 m 2
 478 73 491 57 521 48 c 1
 500 -12 l 1
 455 -6 418 15 404 63 c 1
 366 14 307 -11 239 -11 c 0
 133 -11 69 53 69 151 c 0
 69 259 156 320 315 320 c 2
 393 320 l 1
 393 363 l 2
 393 440 346 468 268 468 c 0
 233 468 185 460 131 441 c 1
 108 505 l 1
 173 528 229 538 281 538 c 0
 412 538 478 472 478 368 c 2
 478 115 l 2
260 52 m 0
 312 52 362 80 393 127 c 1
 393 262 l 1
 317 262 l 2
 201 262 159 220 159 152 c 0
 159 86 191 52 260 52 c 0
EndSplineSet
Validated: 1
EndChar

StartChar: aacute
Encoding: 225 225 130
Width: 600
GlyphClass: 2
Flags: W
HStem: -11 63<188.353 337.234 485.8 502.136> 262 58<209.484 393> 468 70<146.28 354.19>
VStem: 69 90<80.5763 218.922> 393 85<100.787 262 320 430.502>
LayerCount: 2
Fore
SplineSet
376 797 m 1
 414 725 l 1
 205 640 l 1
 179 685 l 1
 376 797 l 1
478 115 m 2
 478 73 491 57 521 48 c 1
 500 -12 l 1
 455 -6 418 15 404 63 c 1
 366 14 307 -11 239 -11 c 0
 133 -11 69 53 69 151 c 0
 69 259 156 320 315 320 c 2
 393 320 l 1
 393 363 l 2
 393 440 346 468 268 468 c 0
 233 468 185 460 131 441 c 1
 108 505 l 1
 173 528 229 538 281 538 c 0
 412 538 478 472 478 368 c 2
 478 115 l 2
260 52 m 0
 312 52 362 80 393 127 c 1
 393 262 l 1
 317 262 l 2
 201 262 159 220 159 152 c 0
 159 86 191 52 260 52 c 0
EndSplineSet
Validated: 1
EndChar

StartChar: abreve
Encoding: 259 259 131
Width: 600
GlyphClass: 2
Flags: W
HStem: -11 63<188.353 337.234 485.8 502.136> 262 58<209.484 393> 468 70<146.28 354.19> 630 64<235.347 345.884>
VStem: 69 90<80.5763 218.922> 142 58<731.391 767.569> 383 57<733.758 767.596> 393 85<100.787 262 320 430.502>
LayerCount: 2
Fore
SplineSet
290 630 m 0xf6
 199 630 150 705 142 766 c 1
 200 779 l 1
 215 728 243 694 290 694 c 0
 338 694 368 728 383 779 c 1
 440 766 l 1
 432 705 382 630 290 630 c 0xf6
478 115 m 2xf9
 478 73 491 57 521 48 c 1
 500 -12 l 1
 455 -6 418 15 404 63 c 1
 366 14 307 -11 239 -11 c 0
 133 -11 69 53 69 151 c 0
 69 259 156 320 315 320 c 2
 393 320 l 1
 393 363 l 2
 393 440 346 468 268 468 c 0
 233 468 185 460 131 441 c 1
 108 505 l 1
 173 528 229 538 281 538 c 0
 412 538 478 472 478 368 c 2
 478 115 l 2xf9
260 52 m 0
 312 52 362 80 393 127 c 1
 393 262 l 1
 317 262 l 2
 201 262 159 220 159 152 c 0
 159 86 191 52 260 52 c 0
EndSplineSet
Validated: 1
EndChar

StartChar: acircumflex
Encoding: 226 226 132
Width: 600
GlyphClass: 2
Flags: W
HStem: -11 63<188.353 337.234 485.8 502.136> 262 58<209.484 393> 468 70<146.28 354.19>
VStem: 69 90<80.5763 218.922> 393 85<100.787 262 320 430.502>
LayerCount: 2
Fore
SplineSet
169 629 m 1
 129 670 l 1
 264 789 l 1
 321 789 l 1
 455 670 l 1
 417 629 l 1
 293 720 l 1
 169 629 l 1
478 115 m 2
 478 73 491 57 521 48 c 1
 500 -12 l 1
 455 -6 418 15 404 63 c 1
 366 14 307 -11 239 -11 c 0
 133 -11 69 53 69 151 c 0
 69 259 156 320 315 320 c 2
 393 320 l 1
 393 363 l 2
 393 440 346 468 268 468 c 0
 233 468 185 460 131 441 c 1
 108 505 l 1
 173 528 229 538 281 538 c 0
 412 538 478 472 478 368 c 2
 478 115 l 2
260 52 m 0
 312 52 362 80 393 127 c 1
 393 262 l 1
 317 262 l 2
 201 262 159 220 159 152 c 0
 159 86 191 52 260 52 c 0
EndSplineSet
Validated: 1
EndChar

StartChar: adieresis
Encoding: 228 228 133
Width: 600
GlyphClass: 2
Flags: W
HStem: -11 63<188.353 337.234 485.8 502.136> 262 58<209.484 393> 468 70<146.28 354.19> 648 108<143.743 231.618 351.382 439.257>
VStem: 69 90<80.5763 218.922> 133 109<658.315 745.551> 341 109<658.315 745.551> 393 85<100.787 262 320 430.502>
LayerCount: 2
Fore
SplineSet
188 648 m 0xf4
 157 648 133 671 133 701 c 0
 133 733 157 756 188 756 c 0
 219 756 242 733 242 701 c 0
 242 671 219 648 188 648 c 0xf4
395 648 m 0
 364 648 341 671 341 701 c 0
 341 733 364 756 395 756 c 0
 426 756 450 733 450 701 c 0xf2
 450 671 426 648 395 648 c 0
478 115 m 2xf9
 478 73 491 57 521 48 c 1
 500 -12 l 1
 455 -6 418 15 404 63 c 1
 366 14 307 -11 239 -11 c 0
 133 -11 69 53 69 151 c 0
 69 259 156 320 315 320 c 2
 393 320 l 1
 393 363 l 2
 393 440 346 468 268 468 c 0
 233 468 185 460 131 441 c 1
 108 505 l 1
 173 528 229 538 281 538 c 0
 412 538 478 472 478 368 c 2
 478 115 l 2xf9
260 52 m 0
 312 52 362 80 393 127 c 1
 393 262 l 1
 317 262 l 2
 201 262 159 220 159 152 c 0
 159 86 191 52 260 52 c 0
EndSplineSet
Validated: 1
EndChar

StartChar: agrave
Encoding: 224 224 134
Width: 600
GlyphClass: 2
Flags: W
HStem: -11 63<188.353 337.234 485.8 502.136> 262 58<209.484 393> 468 70<146.28 354.19>
VStem: 69 90<80.5763 218.922> 393 85<100.787 262 320 430.502>
LayerCount: 2
Fore
SplineSet
379 622 m 1
 176 715 l 1
 222 787 l 1
 406 668 l 1
 379 622 l 1
478 115 m 2
 478 73 491 57 521 48 c 1
 500 -12 l 1
 455 -6 418 15 404 63 c 1
 366 14 307 -11 239 -11 c 0
 133 -11 69 53 69 151 c 0
 69 259 156 320 315 320 c 2
 393 320 l 1
 393 363 l 2
 393 440 346 468 268 468 c 0
 233 468 185 460 131 441 c 1
 108 505 l 1
 173 528 229 538 281 538 c 0
 412 538 478 472 478 368 c 2
 478 115 l 2
260 52 m 0
 312 52 362 80 393 127 c 1
 393 262 l 1
 317 262 l 2
 201 262 159 220 159 152 c 0
 159 86 191 52 260 52 c 0
EndSplineSet
Validated: 1
EndChar

StartChar: amacron
Encoding: 257 257 135
Width: 600
GlyphClass: 2
Flags: W
HStem: -11 63<188.353 337.234 485.8 502.136> 262 58<209.484 393> 468 70<146.28 354.19> 676 64<157 426>
VStem: 69 90<80.5763 218.922> 393 85<100.787 262 320 430.502>
LayerCount: 2
Fore
SplineSet
426 676 m 1
 157 676 l 1
 157 740 l 1
 426 740 l 1
 426 676 l 1
478 115 m 2
 478 73 491 57 521 48 c 1
 500 -12 l 1
 455 -6 418 15 404 63 c 1
 366 14 307 -11 239 -11 c 0
 133 -11 69 53 69 151 c 0
 69 259 156 320 315 320 c 2
 393 320 l 1
 393 363 l 2
 393 440 346 468 268 468 c 0
 233 468 185 460 131 441 c 1
 108 505 l 1
 173 528 229 538 281 538 c 0
 412 538 478 472 478 368 c 2
 478 115 l 2
260 52 m 0
 312 52 362 80 393 127 c 1
 393 262 l 1
 317 262 l 2
 201 262 159 220 159 152 c 0
 159 86 191 52 260 52 c 0
EndSplineSet
Validated: 1
EndChar

StartChar: aogonek
Encoding: 261 261 136
Width: 600
GlyphClass: 2
Flags: W
HStem: -241 67<381.526 485.235> -11 63<188.353 337.234> 262 58<209.484 393> 468 70<146.28 354.19>
VStem: 69 90<80.5763 218.922> 299 77<-166.51 -76.19> 393 85<100.787 262 320 430.502>
LayerCount: 2
Fore
SplineSet
500 -12 m 1
 397 -57 376 -91 376 -126 c 0
 376 -156 390 -174 432 -174 c 0
 453 -174 469 -172 493 -167 c 1
 485 -235 l 1
 464 -238 448 -241 421 -241 c 0
 345 -241 299 -199 299 -143 c 0
 299 -81 344 -32 447 6 c 1
 427 18 412 36 404 63 c 1
 366 14 307 -11 239 -11 c 0
 133 -11 69 53 69 151 c 0
 69 259 156 320 315 320 c 2
 393 320 l 1
 393 363 l 2
 393 440 346 468 268 468 c 0
 233 468 185 460 131 441 c 1
 108 505 l 1
 173 528 229 538 281 538 c 0
 412 538 478 472 478 368 c 2
 478 115 l 2
 478 73 491 57 521 48 c 1
 500 -12 l 1
393 127 m 1
 393 262 l 1
 317 262 l 2
 201 262 159 220 159 152 c 0
 159 86 191 52 260 52 c 0
 312 52 362 80 393 127 c 1
EndSplineSet
Validated: 1
EndChar

StartChar: aring
Encoding: 229 229 137
Width: 600
GlyphClass: 2
Flags: W
HStem: -11 63<188.353 337.234 485.8 502.136> 262 58<209.484 393> 468 70<146.28 354.19> 619 45<247.514 336.633> 777 47<247.155 336.984>
VStem: 69 90<80.5763 218.922> 181 57<673.763 767.873> 346 57<673.407 768.226> 393 85<100.787 262 320 430.502>
LayerCount: 2
Fore
SplineSet
292 824 m 0xff
 357 824 403 778 403 721 c 0
 403 664 357 619 292 619 c 0
 227 619 181 664 181 721 c 0
 181 778 227 824 292 824 c 0xff
292 777 m 0
 259 777 238 756 238 721 c 0
 238 685 259 664 292 664 c 0
 326 664 346 685 346 721 c 0
 346 756 326 777 292 777 c 0
478 115 m 2xfe80
 478 73 491 57 521 48 c 1
 500 -12 l 1
 455 -6 418 15 404 63 c 1
 366 14 307 -11 239 -11 c 0
 133 -11 69 53 69 151 c 0
 69 259 156 320 315 320 c 2
 393 320 l 1
 393 363 l 2
 393 440 346 468 268 468 c 0
 233 468 185 460 131 441 c 1
 108 505 l 1
 173 528 229 538 281 538 c 0
 412 538 478 472 478 368 c 2
 478 115 l 2xfe80
260 52 m 0
 312 52 362 80 393 127 c 1
 393 262 l 1
 317 262 l 2
 201 262 159 220 159 152 c 0
 159 86 191 52 260 52 c 0
EndSplineSet
Validated: 1
EndChar

StartChar: atilde
Encoding: 227 227 138
Width: 600
GlyphClass: 2
Flags: W
HStem: -11 63<188.353 337.234 485.8 502.136> 262 58<209.484 393> 468 70<146.28 354.19> 659 64<303.768 387.172> 707 65<196.528 282.304>
VStem: 69 90<80.5763 218.922> 393 85<100.787 262 320 430.502>
LayerCount: 2
Fore
SplineSet
350 659 m 0xf6
 298 659 270 707 234 707 c 0
 211 707 197 691 181 661 c 1
 128 687 l 1
 151 735 186 772 234 772 c 0xee
 290 772 313 723 350 723 c 0
 370 723 385 737 403 768 c 1
 457 741 l 1
 431 685 393 659 350 659 c 0xf6
478 115 m 2
 478 73 491 57 521 48 c 1
 500 -12 l 1
 455 -6 418 15 404 63 c 1
 366 14 307 -11 239 -11 c 0
 133 -11 69 53 69 151 c 0
 69 259 156 320 315 320 c 2
 393 320 l 1
 393 363 l 2
 393 440 346 468 268 468 c 0
 233 468 185 460 131 441 c 1
 108 505 l 1
 173 528 229 538 281 538 c 0
 412 538 478 472 478 368 c 2
 478 115 l 2
260 52 m 0
 312 52 362 80 393 127 c 1
 393 262 l 1
 317 262 l 2
 201 262 159 220 159 152 c 0
 159 86 191 52 260 52 c 0
EndSplineSet
Validated: 1
EndChar

StartChar: ae
Encoding: 230 230 139
Width: 600
GlyphClass: 2
Flags: W
HStem: -11 64<108.873 212.489 394.429 510.867> 233 66<336 525> 262 58<125.683 254> 468 70<70.8196 226.492 376.85 486.572>
VStem: -6 91<77.228 225.7> 254 82<151.505 233 320 415.5> 525 82<299 421.277>
LayerCount: 2
Fore
SplineSet
435 538 m 0xbe
 554 538 607 440 607 279 c 0
 607 261 606 245 605 233 c 1
 336 233 l 1xde
 345 113 378 59 449 59 c 0
 487 59 514 73 548 99 c 1
 587 41 l 1
 546 9 504 -11 447 -11 c 0
 377 -11 331 21 299 78 c 1
 253 16 213 -11 146 -11 c 0
 53 -11 -6 53 -6 151 c 0
 -6 261 68 320 208 320 c 2
 254 320 l 1
 254 363 l 2
 254 437 221 468 163 468 c 0
 127 468 102 460 58 441 c 1
 36 504 l 1
 80 525 128 538 171 538 c 0
 250 538 288 503 309 450 c 1
 327 504 371 538 435 538 c 0xbe
432 468 m 0
 372 468 344 424 336 299 c 1
 525 299 l 1
 523 409 500 468 432 468 c 0
254 262 m 1xbe
 212 262 l 2
 115 262 85 220 85 156 c 0
 85 88 114 53 159 53 c 0
 203 53 232 87 268 150 c 1
 258 182 254 221 254 262 c 1xbe
EndSplineSet
Validated: 1
EndChar

StartChar: aeacute
Encoding: 509 509 140
Width: 600
GlyphClass: 2
Flags: W
HStem: -11 64<108.873 212.489 394.429 510.867> 233 66<336 525> 262 58<125.683 254> 468 70<70.8196 226.492 376.85 486.572>
VStem: -6 91<77.228 225.7> 254 82<151.505 233 320 415.5> 525 82<299 421.277>
LayerCount: 2
Fore
SplineSet
393 797 m 1x9e
 431 725 l 1
 222 640 l 1
 196 685 l 1
 393 797 l 1x9e
435 538 m 0
 554 538 607 440 607 279 c 0
 607 261 606 245 605 233 c 1
 336 233 l 1xde
 345 113 378 59 449 59 c 0
 487 59 514 73 548 99 c 1
 587 41 l 1
 546 9 504 -11 447 -11 c 0
 377 -11 331 21 299 78 c 1
 253 16 213 -11 146 -11 c 0
 53 -11 -6 53 -6 151 c 0
 -6 261 68 320 208 320 c 2
 254 320 l 1xbe
 254 363 l 2
 254 437 221 468 163 468 c 0
 127 468 102 460 58 441 c 1
 36 504 l 1
 80 525 128 538 171 538 c 0
 250 538 288 503 309 450 c 1
 327 504 371 538 435 538 c 0
432 468 m 0
 372 468 344 424 336 299 c 1
 525 299 l 1
 523 409 500 468 432 468 c 0
254 262 m 1xbe
 212 262 l 2
 115 262 85 220 85 156 c 0
 85 88 114 53 159 53 c 0
 203 53 232 87 268 150 c 1
 258 182 254 221 254 262 c 1xbe
EndSplineSet
Validated: 1
EndChar

StartChar: b
Encoding: 98 98 141
Width: 600
GlyphClass: 2
Flags: W
HStem: -11 68<231.025 376.92> 0 21G<100 176.182> 470 68<250.505 382.494> 729 20G<100 184>
VStem: 100 84<99.4385 413.123 458 739> 100 74<0 55> 441 91<136.105 395.997>
LayerCount: 2
Fore
SplineSet
184 458 m 5x7a
 223 509 274 538 335 538 c 4
 475 538 532 429 532 264 c 4
 532 104 459 -11 323 -11 c 4xba
 263 -11 216 9 180 55 c 5
 174 0 l 5
 100 0 l 5x76
 100 739 l 5
 184 749 l 5
 184 458 l 5x7a
304 57 m 4
 391 57 441 124 441 264 c 4
 441 401 398 470 316 470 c 4
 258 470 213 428 184 386 c 5
 184 125 l 5
 212 82 255 57 304 57 c 4
EndSplineSet
Validated: 1
EndChar

StartChar: c
Encoding: 99 99 142
Width: 600
GlyphClass: 2
Flags: W
HStem: -11 72<256.563 433.314> 467 71<261.11 430.624>
VStem: 91 91<146.309 378.088>
LayerCount: 2
Fore
SplineSet
339 61 m 0
 392 61 436 80 476 107 c 1
 516 52 l 1
 471 13 400 -11 339 -11 c 0
 181 -11 91 96 91 261 c 0
 91 419 182 538 339 538 c 0
 407 538 466 517 515 476 c 1
 474 421 l 1
 429 451 385 467 338 467 c 0
 247 467 182 400 182 261 c 0
 182 120 248 61 339 61 c 0
EndSplineSet
Validated: 1
EndChar

StartChar: cacute
Encoding: 263 263 143
Width: 600
GlyphClass: 2
Flags: W
HStem: -11 72<256.563 433.314> 467 71<261.11 430.624>
VStem: 91 91<146.309 378.088>
LayerCount: 2
Fore
SplineSet
428 788 m 1
 466 716 l 1
 257 631 l 1
 231 676 l 1
 428 788 l 1
339 61 m 0
 392 61 436 80 476 107 c 1
 516 52 l 1
 471 13 400 -11 339 -11 c 0
 181 -11 91 96 91 261 c 0
 91 419 182 538 339 538 c 0
 407 538 466 517 515 476 c 1
 474 421 l 1
 429 451 385 467 338 467 c 0
 247 467 182 400 182 261 c 0
 182 120 248 61 339 61 c 0
EndSplineSet
Validated: 1
EndChar

StartChar: ccaron
Encoding: 269 269 144
Width: 600
GlyphClass: 2
Flags: W
HStem: -11 72<256.563 433.314> 467 71<261.11 430.624>
VStem: 91 91<146.309 378.088>
LayerCount: 2
Fore
SplineSet
469 780 m 1
 507 739 l 1
 373 620 l 1
 316 620 l 1
 181 739 l 1
 221 780 l 1
 345 690 l 1
 469 780 l 1
339 61 m 0
 392 61 436 80 476 107 c 1
 516 52 l 1
 471 13 400 -11 339 -11 c 0
 181 -11 91 96 91 261 c 0
 91 419 182 538 339 538 c 0
 407 538 466 517 515 476 c 1
 474 421 l 1
 429 451 385 467 338 467 c 0
 247 467 182 400 182 261 c 0
 182 120 248 61 339 61 c 0
EndSplineSet
Validated: 1
EndChar

StartChar: ccedilla
Encoding: 231 231 145
Width: 600
GlyphClass: 2
Flags: W
HStem: -238 56<242.111 373.743> -9 70<257.463 299 359 433.129> 467 71<261.11 430.624>
VStem: 91 91<144.875 378.088> 379 73<-174.385 -106.039>
LayerCount: 2
Fore
SplineSet
359 -57 m 1
 424 -63 452 -101 452 -140 c 0
 452 -206 394 -238 330 -238 c 0
 290 -238 251 -229 225 -214 c 1
 252 -166 l 1
 271 -176 297 -182 319 -182 c 0
 355 -182 379 -170 379 -141 c 0
 379 -104 346 -97 293 -97 c 1
 299 -9 l 1
 166 8 91 110 91 261 c 0
 91 419 182 538 339 538 c 0
 407 538 466 517 515 476 c 1
 474 421 l 1
 429 451 385 467 338 467 c 0
 247 467 182 400 182 261 c 0
 182 120 248 61 339 61 c 0
 392 61 436 80 476 107 c 1
 516 52 l 1
 476 17 415 -6 359 -11 c 1
 359 -57 l 1
EndSplineSet
Validated: 1
EndChar

StartChar: ccircumflex
Encoding: 265 265 146
Width: 600
GlyphClass: 2
Flags: W
HStem: -11 72<256.563 433.314> 467 71<261.11 430.624>
VStem: 91 91<146.309 378.088>
LayerCount: 2
Fore
SplineSet
221 620 m 1
 181 661 l 1
 316 780 l 1
 373 780 l 1
 507 661 l 1
 469 620 l 1
 345 711 l 1
 221 620 l 1
339 61 m 0
 392 61 436 80 476 107 c 1
 516 52 l 1
 471 13 400 -11 339 -11 c 0
 181 -11 91 96 91 261 c 0
 91 419 182 538 339 538 c 0
 407 538 466 517 515 476 c 1
 474 421 l 1
 429 451 385 467 338 467 c 0
 247 467 182 400 182 261 c 0
 182 120 248 61 339 61 c 0
EndSplineSet
Validated: 1
EndChar

StartChar: cdotaccent
Encoding: 267 267 147
Width: 600
GlyphClass: 2
Flags: W
HStem: -11 72<256.563 433.314> 467 71<261.11 430.624> 646 118<294.913 392.011>
VStem: 91 91<146.309 378.088> 283 121<658.147 751.853>
LayerCount: 2
Fore
SplineSet
343 764 m 0
 380 764 404 739 404 705 c 0
 404 671 380 646 343 646 c 0
 307 646 283 671 283 705 c 0
 283 739 307 764 343 764 c 0
339 61 m 0
 392 61 436 80 476 107 c 1
 516 52 l 1
 471 13 400 -11 339 -11 c 0
 181 -11 91 96 91 261 c 0
 91 419 182 538 339 538 c 0
 407 538 466 517 515 476 c 1
 474 421 l 1
 429 451 385 467 338 467 c 0
 247 467 182 400 182 261 c 0
 182 120 248 61 339 61 c 0
EndSplineSet
Validated: 1
EndChar

StartChar: d
Encoding: 100 100 148
Width: 600
GlyphClass: 2
Flags: W
HStem: -11 67<220.254 354.692> 0 21G<423.681 500> 470 68<226.893 365.249> 729 20G<416 500>
VStem: 68 91<131.043 390.235> 416 84<112.076 427.561 475 739> 426 74<0 60.375>
LayerCount: 2
Fore
SplineSet
416 749 m 1xbc
 500 739 l 1xbc
 500 0 l 1
 426 0 l 1x7a
 418 69 l 1
 379 14 326 -11 269 -11 c 0
 131 -11 68 99 68 263 c 0
 68 421 145 538 274 538 c 0
 335 538 380 516 416 475 c 1
 416 749 l 1xbc
296 470 m 0
 209 470 159 402 159 263 c 0
 159 126 203 56 286 56 c 0
 346 56 387 96 416 140 c 1
 416 402 l 1
 387 445 345 470 296 470 c 0
EndSplineSet
Validated: 1
EndChar

StartChar: eth
Encoding: 240 240 149
Width: 600
GlyphClass: 2
Flags: W
HStem: -11 68<221.69 370.45> 414 67<217.895 376.564> 532 21G<189.667 248.75> 683 66<149.985 214.086>
VStem: 67 86<134.199 341.228> 448 84<149.031 340.022>
LayerCount: 2
Fore
SplineSet
170 562 m 1
 250 647 l 1
 218 662 180 674 133 683 c 1
 152 749 l 1
 210 737 261 721 301 700 c 1
 371 773 l 1
 422 729 l 1
 360 665 l 1
 479 583 532 455 532 264 c 0
 532 95 438 -11 295 -11 c 0
 169 -11 67 77 67 235 c 0
 67 383 166 481 280 481 c 0
 348 481 399 456 437 412 c 1
 419 497 372 566 308 612 c 1
 229 532 l 1
 170 562 l 1
448 267 m 0
 448 291 446 312 444 332 c 1
 410 385 355 414 290 414 c 0
 218 414 153 361 153 239 c 0
 153 120 211 57 294 57 c 0
 387 57 448 129 448 267 c 0
EndSplineSet
Validated: 1
EndChar

StartChar: dcaron
Encoding: 271 271 150
Width: 600
GlyphClass: 2
Flags: W
HStem: -11 67<191.254 325.692> 0 21G<394.681 471> 470 68<195.521 336.286> 729 20G<387 471 534.333 613>
VStem: 39 91<131.043 390.235> 387 84<112.076 427.561 475 739> 397 74<0 60.375>
LayerCount: 2
Fore
SplineSet
387 749 m 1xbc
 471 739 l 1xbc
 471 0 l 1
 397 0 l 1x7a
 389 69 l 1
 350 14 297 -11 240 -11 c 0
 102 -11 39 99 39 263 c 0
 39 421 116 538 246 538 c 0
 306 538 351 516 387 475 c 1
 387 749 l 1xbc
537 747 m 1
 613 738 l 1
 560 560 l 1
 513 567 l 1
 537 747 l 1
267 470 m 0
 180 470 130 402 130 263 c 0
 130 126 174 56 257 56 c 0
 317 56 358 96 387 140 c 1
 387 402 l 1
 358 445 316 470 267 470 c 0
EndSplineSet
Validated: 1
EndChar

StartChar: dcroat
Encoding: 273 273 151
Width: 600
GlyphClass: 2
Flags: W
HStem: -11 67<222.592 356.867> 0 21G<425.681 502> 470 68<226.637 367.498> 597 68<247 418 502 581> 729 20G<418 502>
VStem: 70 92<131.043 392.229> 418 84<112.076 427.561 475 597 665 739> 428 74<0 60.375>
LayerCount: 2
Fore
SplineSet
581 665 m 1xbe
 581 597 l 1
 502 597 l 1xbe
 502 0 l 1
 428 0 l 1x7d
 420 69 l 1
 381 14 329 -11 271 -11 c 0
 133 -11 70 99 70 263 c 0
 70 421 147 538 277 538 c 0
 337 538 383 516 418 475 c 1
 418 597 l 1
 247 597 l 1
 247 665 l 1
 418 665 l 1
 418 749 l 1
 502 739 l 1
 502 665 l 1
 581 665 l 1xbe
418 140 m 1
 418 402 l 1
 389 445 347 470 298 470 c 0
 211 470 162 402 162 263 c 0
 162 126 206 56 288 56 c 0
 348 56 389 96 418 140 c 1
EndSplineSet
Validated: 1
EndChar

StartChar: e
Encoding: 101 101 152
Width: 600
GlyphClass: 2
Flags: W
HStem: -11 70<240.325 416.127> 234 64<167 441> 469 69<234.634 378.682>
VStem: 79 88<139.352 234 298 385.328> 441 82<298 398.679>
LayerCount: 2
Fore
SplineSet
167 234 m 1
 171 112 239 59 320 59 c 0
 374 59 414 75 461 106 c 1
 500 50 l 1
 451 12 385 -11 320 -11 c 0
 166 -11 79 99 79 263 c 0
 79 422 168 538 308 538 c 0
 441 538 523 439 523 279 c 0
 523 261 522 245 521 234 c 1
 167 234 l 1
309 469 m 0
 231 469 174 414 167 298 c 1
 441 298 l 1
 439 411 389 469 309 469 c 0
EndSplineSet
Validated: 1
EndChar

StartChar: eacute
Encoding: 233 233 153
Width: 600
GlyphClass: 2
Flags: W
HStem: -11 70<240.325 416.127> 234 64<167 441> 469 69<234.634 378.682>
VStem: 79 88<139.352 234 298 385.328> 441 82<298 398.679>
LayerCount: 2
Fore
SplineSet
394 797 m 1
 432 725 l 1
 223 640 l 1
 197 685 l 1
 394 797 l 1
167 234 m 1
 171 112 239 59 320 59 c 0
 374 59 414 75 461 106 c 1
 500 50 l 1
 451 12 385 -11 320 -11 c 0
 166 -11 79 99 79 263 c 0
 79 422 168 538 308 538 c 0
 441 538 523 439 523 279 c 0
 523 261 522 245 521 234 c 1
 167 234 l 1
309 469 m 0
 231 469 174 414 167 298 c 1
 441 298 l 1
 439 411 389 469 309 469 c 0
EndSplineSet
Validated: 1
EndChar

StartChar: ebreve
Encoding: 277 277 154
Width: 600
GlyphClass: 2
Flags: W
HStem: -11 70<240.325 416.127> 234 64<167 441> 469 69<234.634 378.682> 630 64<253.347 363.884>
VStem: 79 88<139.352 234 298 385.328> 160 58<731.391 767.569> 401 57<733.758 767.596> 441 82<298 398.679>
LayerCount: 2
Fore
SplineSet
308 630 m 0xf6
 217 630 168 705 160 766 c 1
 218 779 l 1
 233 728 261 694 308 694 c 0
 356 694 386 728 401 779 c 1
 458 766 l 1
 450 705 400 630 308 630 c 0xf6
167 234 m 1xf9
 171 112 239 59 320 59 c 0
 374 59 414 75 461 106 c 1
 500 50 l 1
 451 12 385 -11 320 -11 c 0
 166 -11 79 99 79 263 c 0
 79 422 168 538 308 538 c 0
 441 538 523 439 523 279 c 0
 523 261 522 245 521 234 c 1
 167 234 l 1xf9
309 469 m 0
 231 469 174 414 167 298 c 1
 441 298 l 1
 439 411 389 469 309 469 c 0
EndSplineSet
Validated: 1
EndChar

StartChar: ecaron
Encoding: 283 283 155
Width: 600
GlyphClass: 2
Flags: W
HStem: -11 70<240.325 416.127> 234 64<167 441> 469 69<234.634 378.682>
VStem: 79 88<139.352 234 298 385.328> 441 82<298 398.679>
LayerCount: 2
Fore
SplineSet
435 789 m 1
 473 748 l 1
 339 629 l 1
 282 629 l 1
 147 748 l 1
 187 789 l 1
 311 699 l 1
 435 789 l 1
167 234 m 1
 171 112 239 59 320 59 c 0
 374 59 414 75 461 106 c 1
 500 50 l 1
 451 12 385 -11 320 -11 c 0
 166 -11 79 99 79 263 c 0
 79 422 168 538 308 538 c 0
 441 538 523 439 523 279 c 0
 523 261 522 245 521 234 c 1
 167 234 l 1
309 469 m 0
 231 469 174 414 167 298 c 1
 441 298 l 1
 439 411 389 469 309 469 c 0
EndSplineSet
Validated: 1
EndChar

StartChar: ecircumflex
Encoding: 234 234 156
Width: 600
GlyphClass: 2
Flags: W
HStem: -11 70<240.325 416.127> 234 64<167 441> 469 69<234.634 378.682>
VStem: 79 88<139.352 234 298 385.328> 441 82<298 398.679>
LayerCount: 2
Fore
SplineSet
187 629 m 1
 147 670 l 1
 282 789 l 1
 339 789 l 1
 473 670 l 1
 435 629 l 1
 311 720 l 1
 187 629 l 1
167 234 m 1
 171 112 239 59 320 59 c 0
 374 59 414 75 461 106 c 1
 500 50 l 1
 451 12 385 -11 320 -11 c 0
 166 -11 79 99 79 263 c 0
 79 422 168 538 308 538 c 0
 441 538 523 439 523 279 c 0
 523 261 522 245 521 234 c 1
 167 234 l 1
309 469 m 0
 231 469 174 414 167 298 c 1
 441 298 l 1
 439 411 389 469 309 469 c 0
EndSplineSet
Validated: 1
EndChar

StartChar: edieresis
Encoding: 235 235 157
Width: 600
GlyphClass: 2
Flags: W
HStem: -11 70<240.325 416.127> 234 64<167 441> 469 69<234.634 378.682> 648 108<161.743 249.618 369.382 457.257>
VStem: 79 88<139.352 234 298 385.328> 151 109<658.315 745.551> 359 109<658.315 745.551> 441 82<298 398.679>
LayerCount: 2
Fore
SplineSet
206 648 m 0xf4
 175 648 151 671 151 701 c 0
 151 733 175 756 206 756 c 0
 237 756 260 733 260 701 c 0
 260 671 237 648 206 648 c 0xf4
413 648 m 0
 382 648 359 671 359 701 c 0
 359 733 382 756 413 756 c 0
 444 756 468 733 468 701 c 0xf2
 468 671 444 648 413 648 c 0
167 234 m 1xf9
 171 112 239 59 320 59 c 0
 374 59 414 75 461 106 c 1
 500 50 l 1
 451 12 385 -11 320 -11 c 0
 166 -11 79 99 79 263 c 0
 79 422 168 538 308 538 c 0
 441 538 523 439 523 279 c 0
 523 261 522 245 521 234 c 1
 167 234 l 1xf9
309 469 m 0
 231 469 174 414 167 298 c 1
 441 298 l 1
 439 411 389 469 309 469 c 0
EndSplineSet
Validated: 1
EndChar

StartChar: edotaccent
Encoding: 279 279 158
Width: 600
GlyphClass: 2
Flags: W
HStem: -11 70<240.325 416.127> 234 64<167 441> 469 69<234.634 378.682> 655 118<260.913 358.011>
VStem: 79 88<139.352 234 298 385.328> 249 121<667.147 760.853> 441 82<298 398.679>
LayerCount: 2
Fore
SplineSet
309 773 m 0
 346 773 370 748 370 714 c 0
 370 680 346 655 309 655 c 0
 273 655 249 680 249 714 c 0
 249 748 273 773 309 773 c 0
167 234 m 1
 171 112 239 59 320 59 c 0
 374 59 414 75 461 106 c 1
 500 50 l 1
 451 12 385 -11 320 -11 c 0
 166 -11 79 99 79 263 c 0
 79 422 168 538 308 538 c 0
 441 538 523 439 523 279 c 0
 523 261 522 245 521 234 c 1
 167 234 l 1
309 469 m 0
 231 469 174 414 167 298 c 1
 441 298 l 1
 439 411 389 469 309 469 c 0
EndSplineSet
Validated: 1
EndChar

StartChar: egrave
Encoding: 232 232 159
Width: 600
GlyphClass: 2
Flags: W
HStem: -11 70<240.325 416.127> 234 64<167 441> 469 69<234.634 378.682>
VStem: 79 88<139.352 234 298 385.328> 441 82<298 398.679>
LayerCount: 2
Fore
SplineSet
397 622 m 1
 194 715 l 1
 240 787 l 1
 424 668 l 1
 397 622 l 1
167 234 m 1
 171 112 239 59 320 59 c 0
 374 59 414 75 461 106 c 1
 500 50 l 1
 451 12 385 -11 320 -11 c 0
 166 -11 79 99 79 263 c 0
 79 422 168 538 308 538 c 0
 441 538 523 439 523 279 c 0
 523 261 522 245 521 234 c 1
 167 234 l 1
309 469 m 0
 231 469 174 414 167 298 c 1
 441 298 l 1
 439 411 389 469 309 469 c 0
EndSplineSet
Validated: 1
EndChar

StartChar: emacron
Encoding: 275 275 160
Width: 600
GlyphClass: 2
Flags: W
HStem: -11 70<240.325 416.127> 234 64<167 441> 469 69<234.634 378.682> 676 64<175 444>
VStem: 79 88<139.352 234 298 385.328> 441 82<298 398.679>
LayerCount: 2
Fore
SplineSet
444 676 m 1
 175 676 l 1
 175 740 l 1
 444 740 l 1
 444 676 l 1
167 234 m 1
 171 112 239 59 320 59 c 0
 374 59 414 75 461 106 c 1
 500 50 l 1
 451 12 385 -11 320 -11 c 0
 166 -11 79 99 79 263 c 0
 79 422 168 538 308 538 c 0
 441 538 523 439 523 279 c 0
 523 261 522 245 521 234 c 1
 167 234 l 1
309 469 m 0
 231 469 174 414 167 298 c 1
 441 298 l 1
 439 411 389 469 309 469 c 0
EndSplineSet
Validated: 1
EndChar

StartChar: eogonek
Encoding: 281 281 161
Width: 600
GlyphClass: 2
Flags: W
HStem: -229 67<280.526 384.235> 234 64<167 441> 469 69<234.634 378.682>
VStem: 79 88<139.352 234 298 385.328> 198 77<-154.51 -67.948> 441 82<298 398.679>
LayerCount: 2
Fore
SplineSet
523 279 m 0
 523 261 522 245 521 234 c 1
 167 234 l 1
 171 112 239 59 320 59 c 0
 374 59 414 75 461 106 c 1
 500 50 l 1
 471 27 435 10 397 -1 c 1
 296 -45 275 -79 275 -114 c 0
 275 -144 289 -162 331 -162 c 0
 352 -162 368 -160 392 -155 c 1
 384 -223 l 1
 363 -226 347 -229 320 -229 c 0
 244 -229 198 -187 198 -131 c 0
 198 -81 232 -38 300 -11 c 1
 158 -2 79 106 79 263 c 0
 79 422 168 538 308 538 c 0
 441 538 523 439 523 279 c 0
167 298 m 1
 441 298 l 1
 439 411 389 469 309 469 c 0
 231 469 174 414 167 298 c 1
EndSplineSet
Validated: 1
EndChar

StartChar: f
Encoding: 102 102 162
Width: 600
GlyphClass: 2
Flags: W
HStem: 0 21G<219 304> 419 67<94 219 304 473> 680 69<333.32 531.912>
VStem: 219 85<0 419 486 652.473>
LayerCount: 2
Fore
SplineSet
411 749 m 0
 468 749 513 738 554 721 c 1
 527 658 l 1
 493 673 454 680 414 680 c 0
 341 680 304 651 304 593 c 2
 304 486 l 1
 482 486 l 1
 473 419 l 1
 304 419 l 1
 304 0 l 1
 219 0 l 1
 219 419 l 1
 94 419 l 1
 94 486 l 1
 219 486 l 1
 219 591 l 2
 219 688 302 749 411 749 c 0
EndSplineSet
Validated: 1
EndChar

StartChar: g
Encoding: 103 103 163
Width: 600
GlyphClass: 2
Flags: W
HStem: -212 68<172.4 411.61> 18 73<195.563 422.551> 176 56<213.167 363.651> 476 62<209.369 365.895>
VStem: 66 76<-115.355 -53> 79 86<277.568 432.165> 109 79<100.387 177.27> 405 87<275.287 431.203> 454 85<-108.416 -10.8166>
LayerCount: 2
Fore
SplineSet
529 582 m 5xf4
 554 503 l 5
 510 489 459 488 400 488 c 5
 462 460 492 415 492 355 c 4
 492 251 419 176 294 176 c 4
 259 176 238 179 215 187 c 5
 200 175 188 155 188 136 c 4xf3
 188 111 204 91 258 91 c 6
 353 91 l 6
 459 91 539 30 539 -52 c 4
 539 -155 448 -212 288 -212 c 4
 120 -212 66 -160 66 -53 c 5
 142 -53 l 5xf880
 142 -115 170 -144 288 -144 c 4
 403 -144 454 -114 454 -57 c 4
 454 -7 403 18 336 18 c 6
 242 18 l 6
 150 18 109 65 109 118 c 4xf280
 109 151 129 185 167 210 c 5
 107 241 79 287 79 355 c 4
 79 462 164 538 289 538 c 4
 421 538 467 556 529 582 c 5xf4
288 476 m 4
 203 476 165 426 165 355 c 4xf5
 165 283 204 232 290 232 c 4
 365 232 405 278 405 356 c 4
 405 435 366 476 288 476 c 4
EndSplineSet
Validated: 1
EndChar

StartChar: gbreve
Encoding: 287 287 164
Width: 600
GlyphClass: 2
Flags: W
HStem: -212 68<172.4 411.61> 18 73<195.563 422.551> 176 56<213.167 363.651> 476 62<209.369 365.895> 630 64<236.347 346.884>
VStem: 66 76<-115.355 -53> 79 86<277.568 432.165> 109 79<100.387 177.27> 143 58<731.391 767.569> 384 57<733.758 767.596> 405 87<275.287 431.203> 454 85<-108.416 -10.8166>
LayerCount: 2
Fore
SplineSet
291 630 m 0xf8c0
 200 630 151 705 143 766 c 1
 201 779 l 1
 216 728 244 694 291 694 c 0
 339 694 369 728 384 779 c 1
 441 766 l 1
 433 705 383 630 291 630 c 0xf8c0
529 582 m 1
 554 503 l 1
 510 489 459 488 400 488 c 1
 462 460 492 415 492 355 c 0
 492 251 419 176 294 176 c 0
 259 176 238 179 215 187 c 1
 200 175 188 155 188 136 c 0xf920
 188 111 204 91 258 91 c 2
 353 91 l 2
 459 91 539 30 539 -52 c 0
 539 -155 448 -212 288 -212 c 0
 120 -212 66 -160 66 -53 c 1
 142 -53 l 1xfc10
 142 -115 170 -144 288 -144 c 0
 403 -144 454 -114 454 -57 c 0
 454 -7 403 18 336 18 c 2
 242 18 l 2
 150 18 109 65 109 118 c 0xf910
 109 151 129 185 167 210 c 1
 107 241 79 287 79 355 c 0xfa
 79 462 164 538 289 538 c 0
 421 538 467 556 529 582 c 1
288 476 m 0
 203 476 165 426 165 355 c 0xfa20
 165 283 204 232 290 232 c 0
 365 232 405 278 405 356 c 0
 405 435 366 476 288 476 c 0
EndSplineSet
Validated: 1
EndChar

StartChar: gcircumflex
Encoding: 285 285 165
Width: 600
GlyphClass: 2
Flags: W
HStem: -212 68<172.4 411.61> 18 73<195.563 422.551> 176 56<213.167 363.651> 476 62<209.369 365.895>
VStem: 66 76<-115.355 -53> 79 86<277.568 432.165> 109 79<100.387 177.27> 405 87<275.287 431.203> 454 85<-108.416 -10.8166>
LayerCount: 2
Fore
SplineSet
170 629 m 1xf0
 130 670 l 1
 265 789 l 1
 322 789 l 1
 456 670 l 1
 418 629 l 1
 294 720 l 1
 170 629 l 1xf0
529 582 m 1
 554 503 l 1
 510 489 459 488 400 488 c 1
 462 460 492 415 492 355 c 0
 492 251 419 176 294 176 c 0
 259 176 238 179 215 187 c 1
 200 175 188 155 188 136 c 0xf3
 188 111 204 91 258 91 c 2
 353 91 l 2
 459 91 539 30 539 -52 c 0
 539 -155 448 -212 288 -212 c 0
 120 -212 66 -160 66 -53 c 1
 142 -53 l 1xf880
 142 -115 170 -144 288 -144 c 0
 403 -144 454 -114 454 -57 c 0
 454 -7 403 18 336 18 c 2
 242 18 l 2
 150 18 109 65 109 118 c 0xf280
 109 151 129 185 167 210 c 1
 107 241 79 287 79 355 c 0xf4
 79 462 164 538 289 538 c 0
 421 538 467 556 529 582 c 1
288 476 m 0
 203 476 165 426 165 355 c 0xf5
 165 283 204 232 290 232 c 0
 365 232 405 278 405 356 c 0
 405 435 366 476 288 476 c 0
EndSplineSet
Validated: 1
EndChar

StartChar: gcommaaccent
Encoding: 291 291 166
Width: 600
GlyphClass: 2
Flags: W
HStem: -212 68<172.4 411.61> 18 73<195.563 422.551> 176 56<213.167 363.651> 476 62<209.369 365.895>
VStem: 66 76<-115.355 -53> 79 86<277.568 432.165> 109 79<100.387 177.27> 235 109<608.77 695.481> 405 87<275.287 431.203> 454 85<-108.416 -10.8166>
LayerCount: 2
Fore
SplineSet
290 598 m 0xf1
 259 598 235 621 235 651 c 0
 235 668 240 683 250 706 c 2
 301 813 l 1
 351 813 l 1
 322 696 l 1
 336 685 344 669 344 651 c 0
 344 620 320 598 290 598 c 0xf1
529 582 m 1
 554 503 l 1
 510 489 459 488 400 488 c 1
 462 460 492 415 492 355 c 0
 492 251 419 176 294 176 c 0
 259 176 238 179 215 187 c 1
 200 175 188 155 188 136 c 0xf380
 188 111 204 91 258 91 c 2
 353 91 l 2
 459 91 539 30 539 -52 c 0
 539 -155 448 -212 288 -212 c 0
 120 -212 66 -160 66 -53 c 1
 142 -53 l 1xf940
 142 -115 170 -144 288 -144 c 0
 403 -144 454 -114 454 -57 c 0
 454 -7 403 18 336 18 c 2
 242 18 l 2
 150 18 109 65 109 118 c 0xf340
 109 151 129 185 167 210 c 1
 107 241 79 287 79 355 c 0xf5
 79 462 164 538 289 538 c 0
 421 538 467 556 529 582 c 1
288 476 m 0
 203 476 165 426 165 355 c 0xf580
 165 283 204 232 290 232 c 0
 365 232 405 278 405 356 c 0
 405 435 366 476 288 476 c 0
EndSplineSet
Validated: 1
EndChar

StartChar: gdotaccent
Encoding: 289 289 167
Width: 600
GlyphClass: 2
Flags: W
HStem: -212 68<172.4 411.61> 18 73<195.563 422.551> 176 56<213.167 363.651> 476 62<209.369 365.895> 655 118<243.913 341.011>
VStem: 66 76<-115.355 -53> 79 86<277.568 432.165> 109 79<100.387 177.27> 232 121<667.147 760.853> 405 87<275.287 431.203> 454 85<-108.416 -10.8166>
LayerCount: 2
Fore
SplineSet
292 773 m 0xf880
 329 773 353 748 353 714 c 0
 353 680 329 655 292 655 c 0
 256 655 232 680 232 714 c 0
 232 748 256 773 292 773 c 0xf880
529 582 m 1
 554 503 l 1
 510 489 459 488 400 488 c 1
 462 460 492 415 492 355 c 0
 492 251 419 176 294 176 c 0
 259 176 238 179 215 187 c 1
 200 175 188 155 188 136 c 0xf9c0
 188 111 204 91 258 91 c 2
 353 91 l 2
 459 91 539 30 539 -52 c 0
 539 -155 448 -212 288 -212 c 0
 120 -212 66 -160 66 -53 c 1
 142 -53 l 1xfca0
 142 -115 170 -144 288 -144 c 0
 403 -144 454 -114 454 -57 c 0
 454 -7 403 18 336 18 c 2
 242 18 l 2
 150 18 109 65 109 118 c 0xf9a0
 109 151 129 185 167 210 c 1
 107 241 79 287 79 355 c 0xfa80
 79 462 164 538 289 538 c 0
 421 538 467 556 529 582 c 1
288 476 m 0
 203 476 165 426 165 355 c 0xfac0
 165 283 204 232 290 232 c 0
 365 232 405 278 405 356 c 0
 405 435 366 476 288 476 c 0
EndSplineSet
Validated: 1
EndChar

StartChar: h
Encoding: 104 104 168
Width: 600
GlyphClass: 2
Flags: W
HStem: 0 21G<100 184 417 501> 471 67<260.012 393.837> 727 20G<100 184>
VStem: 100 84<0 411.09 454 738> 417 84<0 447.719>
LayerCount: 2
Fore
SplineSet
184 747 m 5
 184 454 l 5
 226 509 290 538 353 538 c 4
 456 538 501 480 501 382 c 6
 501 0 l 5
 417 0 l 5
 417 381 l 6
 417 444 388 471 325 471 c 4
 266 471 212 425 184 384 c 5
 184 0 l 5
 100 0 l 5
 100 738 l 5
 184 747 l 5
EndSplineSet
Validated: 1
EndChar

StartChar: hbar
Encoding: 295 295 169
Width: 600
GlyphClass: 2
Flags: W
HStem: 0 21G<100 184 417 501> 471 67<260.012 393.837> 597 68<19 100 184 353> 727 20G<100 184>
VStem: 100 84<0 411.09 454 597 665 738> 417 84<0 447.719>
LayerCount: 2
Fore
SplineSet
353 538 m 0
 456 538 501 480 501 382 c 2
 501 0 l 1
 417 0 l 1
 417 381 l 2
 417 444 388 471 325 471 c 0
 266 471 212 425 184 384 c 1
 184 0 l 1
 100 0 l 1
 100 597 l 1
 19 597 l 1
 19 665 l 1
 100 665 l 1
 100 738 l 1
 184 747 l 1
 184 665 l 1
 353 665 l 1
 353 597 l 1
 184 597 l 1
 184 454 l 1
 226 509 290 538 353 538 c 0
EndSplineSet
Validated: 1
EndChar

StartChar: hcircumflex
Encoding: 293 293 170
Width: 600
GlyphClass: 2
Flags: W
HStem: 0 21G<100 184 417 501> 471 67<260.012 393.837> 727 20G<100 184>
VStem: 100 84<0 411.09 454 738> 417 84<0 447.719>
LayerCount: 2
Fore
SplineSet
329 960 m 1
 463 853 l 1
 426 810 l 1
 300 891 l 1
 175 810 l 1
 137 853 l 1
 272 960 l 1
 329 960 l 1
184 747 m 1
 184 454 l 1
 226 509 290 538 353 538 c 0
 456 538 501 480 501 382 c 2
 501 0 l 1
 417 0 l 1
 417 381 l 2
 417 444 388 471 325 471 c 0
 266 471 212 425 184 384 c 1
 184 0 l 1
 100 0 l 1
 100 738 l 1
 184 747 l 1
EndSplineSet
Validated: 1
EndChar

StartChar: i
Encoding: 105 105 171
Width: 600
GlyphClass: 2
Flags: W
HStem: 0 67<121 283 367 515> 460 67<126 283> 655 118<251.913 349.628>
VStem: 240 122<668.016 759.984> 283 84<67 460>
LayerCount: 2
Fore
SplineSet
300 773 m 0xf0
 337 773 362 748 362 714 c 0
 362 680 337 655 300 655 c 0
 264 655 240 680 240 714 c 0
 240 748 264 773 300 773 c 0xf0
367 527 m 1xe8
 367 67 l 1
 515 67 l 1
 515 0 l 1
 121 0 l 1
 121 67 l 1
 283 67 l 1
 283 460 l 1
 126 460 l 1
 126 527 l 1
 367 527 l 1xe8
EndSplineSet
Validated: 1
EndChar

StartChar: dotlessi
Encoding: 305 305 172
Width: 600
GlyphClass: 2
Flags: W
HStem: 0 67<121 283 367 515> 460 67<126 283>
VStem: 283 84<67 460>
LayerCount: 2
Fore
SplineSet
367 527 m 1
 367 67 l 1
 515 67 l 1
 515 0 l 1
 121 0 l 1
 121 67 l 1
 283 67 l 1
 283 460 l 1
 126 460 l 1
 126 527 l 1
 367 527 l 1
EndSplineSet
Validated: 1
EndChar

StartChar: iacute
Encoding: 237 237 173
Width: 600
GlyphClass: 2
Flags: W
HStem: 0 67<121 283 367 515> 460 67<126 283>
VStem: 283 84<67 460>
LayerCount: 2
Fore
SplineSet
385 797 m 1
 423 725 l 1
 214 640 l 1
 188 685 l 1
 385 797 l 1
367 527 m 1
 367 67 l 1
 515 67 l 1
 515 0 l 1
 121 0 l 1
 121 67 l 1
 283 67 l 1
 283 460 l 1
 126 460 l 1
 126 527 l 1
 367 527 l 1
EndSplineSet
Validated: 1
EndChar

StartChar: ibreve
Encoding: 301 301 174
Width: 600
GlyphClass: 2
Flags: W
HStem: 0 67<121 283 367 515> 460 67<126 283> 630 64<244.347 354.884>
VStem: 151 58<731.391 767.569> 283 84<67 460> 392 57<733.758 767.596>
LayerCount: 2
Fore
SplineSet
299 630 m 0
 208 630 159 705 151 766 c 1
 209 779 l 1
 224 728 252 694 299 694 c 0
 347 694 377 728 392 779 c 1
 449 766 l 1
 441 705 391 630 299 630 c 0
367 527 m 1
 367 67 l 1
 515 67 l 1
 515 0 l 1
 121 0 l 1
 121 67 l 1
 283 67 l 1
 283 460 l 1
 126 460 l 1
 126 527 l 1
 367 527 l 1
EndSplineSet
Validated: 1
EndChar

StartChar: icircumflex
Encoding: 238 238 175
Width: 600
GlyphClass: 2
Flags: W
HStem: 0 67<121 283 367 515> 460 67<126 283>
VStem: 283 84<67 460>
LayerCount: 2
Fore
SplineSet
178 629 m 1
 138 670 l 1
 273 789 l 1
 330 789 l 1
 464 670 l 1
 426 629 l 1
 302 720 l 1
 178 629 l 1
367 527 m 1
 367 67 l 1
 515 67 l 1
 515 0 l 1
 121 0 l 1
 121 67 l 1
 283 67 l 1
 283 460 l 1
 126 460 l 1
 126 527 l 1
 367 527 l 1
EndSplineSet
Validated: 1
EndChar

StartChar: idieresis
Encoding: 239 239 176
Width: 600
GlyphClass: 2
Flags: W
HStem: 0 67<121 283 367 515> 460 67<126 283> 648 108<152.743 240.618 360.382 448.257>
VStem: 142 109<658.315 745.551> 283 84<67 460> 350 109<658.315 745.551>
LayerCount: 2
Fore
SplineSet
197 648 m 0xf0
 166 648 142 671 142 701 c 0
 142 733 166 756 197 756 c 0
 228 756 251 733 251 701 c 0
 251 671 228 648 197 648 c 0xf0
404 648 m 0
 373 648 350 671 350 701 c 0
 350 733 373 756 404 756 c 0
 435 756 459 733 459 701 c 0xf4
 459 671 435 648 404 648 c 0
367 527 m 1xf8
 367 67 l 1
 515 67 l 1
 515 0 l 1
 121 0 l 1
 121 67 l 1
 283 67 l 1
 283 460 l 1
 126 460 l 1
 126 527 l 1
 367 527 l 1xf8
EndSplineSet
Validated: 1
EndChar

StartChar: igrave
Encoding: 236 236 177
Width: 600
GlyphClass: 2
Flags: W
HStem: 0 67<121 283 367 515> 460 67<126 283>
VStem: 283 84<67 460>
LayerCount: 2
Fore
SplineSet
388 622 m 1
 185 715 l 1
 231 787 l 1
 415 668 l 1
 388 622 l 1
367 527 m 1
 367 67 l 1
 515 67 l 1
 515 0 l 1
 121 0 l 1
 121 67 l 1
 283 67 l 1
 283 460 l 1
 126 460 l 1
 126 527 l 1
 367 527 l 1
EndSplineSet
Validated: 1
EndChar

StartChar: ij
Encoding: 307 307 178
Width: 600
GlyphClass: 2
Flags: W
HStem: -212 66<242.348 271.1> 0 67<48 142 223 319> 462 65<53 142 223 418> 655 118<135.913 233.319 399.913 497.319>
VStem: 124 122<668.016 759.984> 142 81<67 462> 388 122<668.016 759.984> 418 82<-25.1455 462>
LayerCount: 2
Fore
SplineSet
184 773 m 0xf8
 220 773 246 748 246 714 c 0
 246 680 220 655 184 655 c 0
 148 655 124 680 124 714 c 0
 124 748 148 773 184 773 c 0xf8
448 773 m 0
 484 773 510 748 510 714 c 0
 510 680 484 655 448 655 c 0
 412 655 388 680 388 714 c 0xf2
 388 748 412 773 448 773 c 0
500 527 m 1xf5
 500 55 l 2
 500 -90 386 -166 245 -212 c 1
 220 -146 l 1
 315 -110 418 -61 418 50 c 2
 418 462 l 1
 223 462 l 1
 223 67 l 1
 319 67 l 1
 319 0 l 1
 48 0 l 1
 48 67 l 1
 142 67 l 1
 142 462 l 1
 53 462 l 1
 53 527 l 1
 500 527 l 1xf5
EndSplineSet
Validated: 1
EndChar

StartChar: imacron
Encoding: 299 299 179
Width: 600
GlyphClass: 2
Flags: W
HStem: 0 67<121 283 367 515> 460 67<126 283> 676 64<166 435>
VStem: 283 84<67 460>
LayerCount: 2
Fore
SplineSet
435 676 m 1
 166 676 l 1
 166 740 l 1
 435 740 l 1
 435 676 l 1
367 527 m 1
 367 67 l 1
 515 67 l 1
 515 0 l 1
 121 0 l 1
 121 67 l 1
 283 67 l 1
 283 460 l 1
 126 460 l 1
 126 527 l 1
 367 527 l 1
EndSplineSet
Validated: 1
EndChar

StartChar: iogonek
Encoding: 303 303 180
Width: 600
GlyphClass: 2
Flags: W
HStem: -229 67<248.526 352.235> 0 67<121 271 367 515> 460 67<126 283> 655 118<251.913 349.011>
VStem: 166 77<-154.51 -64.5656> 240 121<667.147 760.853> 283 84<67 460>
LayerCount: 2
Fore
SplineSet
300 655 m 0xf4
 264 655 240 680 240 714 c 0
 240 748 264 773 300 773 c 0
 337 773 361 748 361 714 c 0
 361 680 337 655 300 655 c 0xf4
367 67 m 1xfa
 515 67 l 1
 515 0 l 1
 367 0 l 1
 264 -45 243 -79 243 -114 c 0
 243 -144 257 -162 299 -162 c 0
 320 -162 336 -160 360 -155 c 1
 352 -223 l 1
 331 -226 315 -229 288 -229 c 0
 212 -229 166 -187 166 -131 c 0
 166 -78 199 -35 271 0 c 1
 121 0 l 1
 121 67 l 1
 283 67 l 1
 283 460 l 1
 126 460 l 1
 126 527 l 1
 367 527 l 1
 367 67 l 1xfa
EndSplineSet
Validated: 1
EndChar

StartChar: itilde
Encoding: 297 297 181
Width: 600
GlyphClass: 2
Flags: W
HStem: 0 67<121 283 367 515> 460 67<126 283> 659 64<312.768 396.172> 707 65<205.528 291.304>
VStem: 283 84<67 460>
LayerCount: 2
Fore
SplineSet
359 659 m 0xe8
 307 659 279 707 243 707 c 0
 220 707 206 691 190 661 c 1
 137 687 l 1
 160 735 195 772 243 772 c 0xd8
 299 772 322 723 359 723 c 0
 379 723 394 737 412 768 c 1
 466 741 l 1
 440 685 402 659 359 659 c 0xe8
367 527 m 1
 367 67 l 1
 515 67 l 1
 515 0 l 1
 121 0 l 1
 121 67 l 1
 283 67 l 1
 283 460 l 1
 126 460 l 1
 126 527 l 1
 367 527 l 1
EndSplineSet
Validated: 1
EndChar

StartChar: j
Encoding: 106 106 182
Width: 600
GlyphClass: 2
Flags: W
HStem: -212 65<108.492 184.338> 460 67<142 361> 655 118<318.297 416.011>
VStem: 306 122<668.016 759.984> 361 84<-12.2311 460>
LayerCount: 2
Fore
SplineSet
367 773 m 4xf0
 404 773 428 748 428 714 c 4
 428 680 404 655 367 655 c 4
 331 655 306 680 306 714 c 4
 306 748 331 773 367 773 c 4xf0
445 527 m 5xe8
 445 84 l 6
 445 -92 322 -176 110 -212 c 5
 96 -147 l 5
 251 -121 361 -63 361 79 c 6
 361 460 l 5
 142 460 l 5
 142 527 l 5
 445 527 l 5xe8
EndSplineSet
Validated: 1
EndChar

StartChar: uni0237
Encoding: 567 567 183
Width: 600
GlyphClass: 2
Flags: W
HStem: -212 65<108.492 184.338> 460 67<142 361>
VStem: 361 84<-12.2311 460>
LayerCount: 2
Fore
SplineSet
445 527 m 1
 445 84 l 2
 445 -92 322 -176 110 -212 c 1
 96 -147 l 1
 251 -121 361 -63 361 79 c 2
 361 460 l 1
 142 460 l 1
 142 527 l 1
 445 527 l 1
EndSplineSet
Validated: 1
EndChar

StartChar: jcircumflex
Encoding: 309 309 184
Width: 600
GlyphClass: 2
Flags: W
HStem: -212 65<108.492 184.338> 460 67<142 361>
VStem: 361 84<-12.2311 460>
LayerCount: 2
Fore
SplineSet
245 629 m 1
 205 670 l 1
 340 789 l 1
 397 789 l 1
 531 670 l 1
 493 629 l 1
 369 720 l 1
 245 629 l 1
445 527 m 1
 445 84 l 2
 445 -92 322 -176 110 -212 c 1
 96 -147 l 1
 251 -121 361 -63 361 79 c 2
 361 460 l 1
 142 460 l 1
 142 527 l 1
 445 527 l 1
EndSplineSet
Validated: 1
EndChar

StartChar: k
Encoding: 107 107 185
Width: 600
GlyphClass: 2
Flags: W
HStem: 0 21G<106 190 440.014 569> 507 20G<413.418 541> 729 20G<106 190>
VStem: 106 84<0 739>
LayerCount: 2
Fore
SplineSet
190 749 m 1
 190 0 l 1
 106 0 l 1
 106 739 l 1
 190 749 l 1
541 527 m 1
 305 289 l 1
 569 0 l 1
 458 0 l 1
 199 288 l 1
 433 527 l 1
 541 527 l 1
EndSplineSet
Validated: 1
EndChar

StartChar: kcommaaccent
Encoding: 311 311 186
Width: 600
GlyphClass: 2
Flags: W
HStem: 0 21G<106 190 440.014 569> 507 20G<413.418 541> 729 20G<106 190>
VStem: 106 84<0 739> 255 109<-168.481 -81.7705>
LayerCount: 2
Fore
SplineSet
190 749 m 1
 190 0 l 1
 106 0 l 1
 106 739 l 1
 190 749 l 1
541 527 m 1
 305 289 l 1
 569 0 l 1
 458 0 l 1
 199 288 l 1
 433 527 l 1
 541 527 l 1
309 -71 m 0
 340 -71 364 -94 364 -124 c 0
 364 -141 359 -156 349 -179 c 2
 298 -286 l 1
 248 -286 l 1
 277 -169 l 1
 263 -158 255 -142 255 -124 c 0
 255 -93 279 -71 309 -71 c 0
EndSplineSet
Validated: 1
EndChar

StartChar: kgreenlandic
Encoding: 312 312 187
Width: 600
GlyphClass: 2
Flags: W
HStem: 0 21G<100 184 434.696 563> 507 20G<100 184 407.902 536>
VStem: 100 84<0 527>
LayerCount: 2
Fore
SplineSet
184 527 m 1
 184 0 l 1
 100 0 l 1
 100 527 l 1
 184 527 l 1
536 527 m 1
 297 288 l 1
 563 0 l 1
 453 0 l 1
 194 283 l 1
 427 527 l 1
 536 527 l 1
EndSplineSet
Validated: 1
EndChar

StartChar: l
Encoding: 108 108 188
Width: 600
GlyphClass: 2
Flags: W
HStem: -11 70<324.481 485.723> 672 67<60 222>
VStem: 222 84<79.7707 672>
LayerCount: 2
Fore
SplineSet
306 739 m 1
 306 130 l 2
 306 78 342 59 393 59 c 0
 424 59 452 66 481 77 c 1
 503 16 l 1
 475 1 432 -11 378 -11 c 0
 285 -11 222 43 222 134 c 2
 222 672 l 1
 60 672 l 1
 60 739 l 1
 306 739 l 1
EndSplineSet
Validated: 1
EndChar

StartChar: lacute
Encoding: 314 314 189
Width: 600
GlyphClass: 2
Flags: W
HStem: -11 70<324.481 485.723> 672 67<60 222>
VStem: 222 84<79.7707 672>
LayerCount: 2
Fore
SplineSet
349 1009 m 1
 387 937 l 1
 178 852 l 1
 152 897 l 1
 349 1009 l 1
306 739 m 1
 306 130 l 2
 306 78 342 59 393 59 c 0
 424 59 452 66 481 77 c 1
 503 16 l 1
 475 1 432 -11 378 -11 c 0
 285 -11 222 43 222 134 c 2
 222 672 l 1
 60 672 l 1
 60 739 l 1
 306 739 l 1
EndSplineSet
Validated: 1
EndChar

StartChar: lcaron
Encoding: 318 318 190
Width: 600
GlyphClass: 2
Flags: W
HStem: -11 70<324.481 485.723> 672 67<60 222> 728 20G<379.238 458>
VStem: 222 84<79.7707 672>
LayerCount: 2
Fore
SplineSet
382 748 m 1xb0
 458 738 l 1
 405 560 l 1
 357 567 l 1
 382 748 l 1xb0
306 739 m 1xd0
 306 130 l 2
 306 78 342 59 393 59 c 0
 424 59 452 66 481 77 c 1
 503 16 l 1
 475 1 432 -11 378 -11 c 0
 285 -11 222 43 222 134 c 2
 222 672 l 1
 60 672 l 1
 60 739 l 1
 306 739 l 1xd0
EndSplineSet
Validated: 1
EndChar

StartChar: lcommaaccent
Encoding: 316 316 191
Width: 600
GlyphClass: 2
Flags: W
HStem: -11 70<324.481 485.723> 672 67<60 222>
VStem: 222 84<79.7707 672> 310 109<-168.481 -81.7705>
LayerCount: 2
Fore
SplineSet
306 739 m 1
 306 130 l 2
 306 78 342 59 393 59 c 0
 424 59 452 66 481 77 c 1
 503 16 l 1
 475 1 432 -11 378 -11 c 0
 285 -11 222 43 222 134 c 2
 222 672 l 1
 60 672 l 1
 60 739 l 1
 306 739 l 1
364 -71 m 0
 395 -71 419 -94 419 -124 c 0
 419 -141 414 -156 404 -179 c 2
 353 -286 l 1
 303 -286 l 1
 332 -169 l 1
 318 -158 310 -142 310 -124 c 0
 310 -93 334 -71 364 -71 c 0
EndSplineSet
Validated: 1
EndChar

StartChar: ldot
Encoding: 320 320 192
Width: 600
GlyphClass: 2
Flags: W
HStem: -11 70<324.481 485.723> 322 118<511.913 609.011> 672 67<60 222>
VStem: 222 84<79.7707 672> 500 121<334.147 427.853>
LayerCount: 2
Fore
SplineSet
306 739 m 1
 306 130 l 2
 306 78 342 59 393 59 c 0
 424 59 452 66 481 77 c 1
 503 16 l 1
 475 1 432 -11 378 -11 c 0
 285 -11 222 43 222 134 c 2
 222 672 l 1
 60 672 l 1
 60 739 l 1
 306 739 l 1
560 440 m 0
 597 440 621 415 621 381 c 0
 621 347 597 322 560 322 c 0
 524 322 500 347 500 381 c 0
 500 415 524 440 560 440 c 0
EndSplineSet
Validated: 1
EndChar

StartChar: lslash
Encoding: 322 322 193
Width: 600
GlyphClass: 2
Flags: W
HStem: -11 70<324.481 485.723> 672 67<60 222>
VStem: 222 84<79.7707 306 433 672>
LayerCount: 2
Fore
SplineSet
481 77 m 1
 503 16 l 1
 475 1 432 -11 378 -11 c 0
 285 -11 222 43 222 134 c 2
 222 306 l 1
 154 265 l 1
 118 319 l 1
 222 381 l 1
 222 672 l 1
 60 672 l 1
 60 739 l 1
 306 739 l 1
 306 433 l 1
 395 489 l 1
 431 435 l 1
 306 357 l 1
 306 130 l 2
 306 78 342 59 393 59 c 0
 424 59 452 66 481 77 c 1
EndSplineSet
Validated: 1
EndChar

StartChar: m
Encoding: 109 109 194
Width: 600
GlyphClass: 2
Flags: W
HStem: 0 21G<51 128 261 339 472 549> 472 66<169.636 254.671 376.608 464.709> 507 20G<51 117.935>
VStem: 51 77<0 437.828> 51 65<465 527> 261 78<0 436.307> 472 77<0 465.859>
LayerCount: 2
Fore
SplineSet
447 538 m 0xce
 498 538 549 513 549 392 c 2
 549 0 l 1
 472 0 l 1
 472 378 l 2
 472 445 469 472 431 472 c 0
 399 472 368 454 339 409 c 1
 339 0 l 1
 261 0 l 1
 261 378 l 2
 261 445 258 472 220 472 c 0
 187 472 157 454 128 409 c 1
 128 0 l 1
 51 0 l 1xd6
 51 527 l 1
 116 527 l 1xae
 122 465 l 1
 150 506 183 538 236 538 c 0
 276 538 315 522 331 468 c 1
 360 510 394 538 447 538 c 0xce
EndSplineSet
Validated: 1
EndChar

StartChar: n
Encoding: 110 110 195
Width: 600
GlyphClass: 2
Flags: W
HStem: 0 21G<100 184 417 501> 471 67<260.392 390.39> 507 20G<100 173.892>
VStem: 100 84<0 410.613> 100 72<453 527> 417 84<0 444.083>
LayerCount: 2
Fore
SplineSet
100 0 m 5xd4
 100 527 l 5
 172 527 l 5xac
 179 453 l 5
 221 507 291 538 353 538 c 4
 456 538 501 480 501 382 c 6
 501 0 l 5
 417 0 l 5
 417 320 l 6
 417 428 406 471 327 471 c 4
 265 471 212 425 184 383 c 5
 184 0 l 5
 100 0 l 5xd4
EndSplineSet
Validated: 1
EndChar

StartChar: nacute
Encoding: 324 324 196
Width: 600
GlyphClass: 2
Flags: W
HStem: 0 21G<100 184 417 501> 471 67<260.392 390.39> 507 20G<100 173.892>
VStem: 100 84<0 410.613> 100 72<453 527> 417 84<0 444.083>
LayerCount: 2
Fore
SplineSet
384 797 m 1x84
 422 725 l 1
 213 640 l 1
 187 685 l 1
 384 797 l 1x84
100 0 m 1xd4
 100 527 l 1
 172 527 l 1xac
 179 453 l 1
 221 507 291 538 353 538 c 0
 456 538 501 480 501 382 c 2
 501 0 l 1
 417 0 l 1
 417 320 l 2
 417 428 406 471 327 471 c 0
 265 471 212 425 184 383 c 1
 184 0 l 1
 100 0 l 1xd4
EndSplineSet
Validated: 1
EndChar

StartChar: napostrophe
Encoding: 329 329 197
Width: 600
GlyphClass: 2
Flags: W
HStem: 0 21G<109 193 426 510> 471 67<270.161 401.018> 507 20G<109 182.622> 534 21G<1 60.4253> 732 20G<48 78.5>
VStem: 8 110<654.169 740.846> 109 84<0 410.613> 109 72<453 527> 426 84<0 444.083>
LayerCount: 2
Fore
SplineSet
63 752 m 0x9c80
 94 752 118 729 118 698 c 0
 118 682 113 666 92 621 c 2
 51 534 l 1
 1 534 l 1
 31 653 l 1
 17 665 8 680 8 698 c 0
 8 729 33 752 63 752 c 0x9c80
109 0 m 1xca80
 109 527 l 1
 181 527 l 1xa980
 187 453 l 1
 230 507 300 538 361 538 c 0
 465 538 510 480 510 382 c 2
 510 0 l 1
 426 0 l 1
 426 320 l 2
 426 428 415 471 335 471 c 0
 273 471 221 425 193 383 c 1
 193 0 l 1
 109 0 l 1xca80
EndSplineSet
Validated: 1
EndChar

StartChar: ncaron
Encoding: 328 328 198
Width: 600
GlyphClass: 2
Flags: W
HStem: 0 21G<100 184 417 501> 471 67<260.392 390.39> 507 20G<100 173.892>
VStem: 100 84<0 410.613> 100 72<453 527> 417 84<0 444.083>
LayerCount: 2
Fore
SplineSet
425 789 m 1x84
 463 748 l 1
 329 629 l 1
 272 629 l 1
 137 748 l 1
 177 789 l 1
 301 699 l 1
 425 789 l 1x84
100 0 m 1xd4
 100 527 l 1
 172 527 l 1xac
 179 453 l 1
 221 507 291 538 353 538 c 0
 456 538 501 480 501 382 c 2
 501 0 l 1
 417 0 l 1
 417 320 l 2
 417 428 406 471 327 471 c 0
 265 471 212 425 184 383 c 1
 184 0 l 1
 100 0 l 1xd4
EndSplineSet
Validated: 1
EndChar

StartChar: ncommaaccent
Encoding: 326 326 199
Width: 600
GlyphClass: 2
Flags: W
HStem: 0 21G<100 184 417 501> 471 67<260.392 390.39> 507 20G<100 173.892>
VStem: 100 84<0 410.613> 100 72<453 527> 250 109<-168.481 -81.7705> 417 84<0 444.083>
LayerCount: 2
Fore
SplineSet
100 0 m 1xd6
 100 527 l 1
 172 527 l 1xae
 179 453 l 1
 221 507 291 538 353 538 c 0
 456 538 501 480 501 382 c 2
 501 0 l 1
 417 0 l 1
 417 320 l 2
 417 428 406 471 327 471 c 0
 265 471 212 425 184 383 c 1
 184 0 l 1
 100 0 l 1xd6
304 -71 m 0
 335 -71 359 -94 359 -124 c 0
 359 -141 354 -156 344 -179 c 2
 293 -286 l 1
 243 -286 l 1
 272 -169 l 1
 258 -158 250 -142 250 -124 c 0
 250 -93 274 -71 304 -71 c 0
EndSplineSet
Validated: 1
EndChar

StartChar: eng
Encoding: 331 331 200
Width: 600
GlyphClass: 2
Flags: W
HStem: -211 21G<335.836 397.5> 0 21G<100 184> 471 67<260.383 390.381> 507 20G<100 173.892>
VStem: 100 84<0 411.09> 100 72<453 527> 417 84<-87.0087 444.083>
LayerCount: 2
Fore
SplineSet
501 29 m 2xe6
 501 -121 449 -164 346 -211 c 1
 315 -150 l 1
 384 -117 417 -92 417 23 c 2
 417 320 l 2
 417 428 407 471 325 471 c 0
 266 471 212 425 184 384 c 1
 184 0 l 1
 100 0 l 1xea
 100 527 l 1
 172 527 l 1xd6
 179 453 l 1
 221 507 291 538 353 538 c 0
 456 538 501 480 501 382 c 2
 501 29 l 2xe6
EndSplineSet
Validated: 1
EndChar

StartChar: ntilde
Encoding: 241 241 201
Width: 600
GlyphClass: 2
Flags: W
HStem: 0 21G<100 184 417 501> 471 67<260.392 390.39> 507 20G<100 173.892> 659 64<311.768 395.172> 707 65<204.528 290.304>
VStem: 100 84<0 410.613> 100 72<453 527> 417 84<0 444.083>
LayerCount: 2
Fore
SplineSet
358 659 m 0x91
 306 659 278 707 242 707 c 0
 219 707 205 691 189 661 c 1
 136 687 l 1
 159 735 194 772 242 772 c 0x89
 298 772 321 723 358 723 c 0
 378 723 393 737 411 768 c 1
 465 741 l 1
 439 685 401 659 358 659 c 0x91
100 0 m 1xc5
 100 527 l 1
 172 527 l 1xa3
 179 453 l 1
 221 507 291 538 353 538 c 0
 456 538 501 480 501 382 c 2
 501 0 l 1
 417 0 l 1
 417 320 l 2
 417 428 406 471 327 471 c 0
 265 471 212 425 184 383 c 1
 184 0 l 1
 100 0 l 1xc5
EndSplineSet
Validated: 1
EndChar

StartChar: o
Encoding: 111 111 202
Width: 600
GlyphClass: 2
Flags: W
HStem: -11 69<227.549 375.145> 469 69<228.383 373.064>
VStem: 73 91<132.237 393.158> 436 91<133.625 394.546>
LayerCount: 2
Fore
SplineSet
301 538 m 0
 449 538 527 430 527 264 c 0
 527 102 447 -11 300 -11 c 0
 152 -11 73 97 73 263 c 0
 73 425 153 538 301 538 c 0
301 469 m 0
 210 469 164 403 164 263 c 0
 164 123 209 58 300 58 c 0
 391 58 436 123 436 264 c 0
 436 403 391 469 301 469 c 0
EndSplineSet
Validated: 1
EndChar

StartChar: oacute
Encoding: 243 243 203
Width: 600
GlyphClass: 2
Flags: W
HStem: -11 69<227.549 375.145> 469 69<228.383 373.064>
VStem: 73 91<132.237 393.158> 436 91<133.625 394.546>
LayerCount: 2
Fore
SplineSet
384 797 m 1
 422 725 l 1
 213 640 l 1
 187 685 l 1
 384 797 l 1
301 538 m 0
 449 538 527 430 527 264 c 0
 527 102 447 -11 300 -11 c 0
 152 -11 73 97 73 263 c 0
 73 425 153 538 301 538 c 0
301 469 m 0
 210 469 164 403 164 263 c 0
 164 123 209 58 300 58 c 0
 391 58 436 123 436 264 c 0
 436 403 391 469 301 469 c 0
EndSplineSet
Validated: 1
EndChar

StartChar: obreve
Encoding: 335 335 204
Width: 600
GlyphClass: 2
Flags: W
HStem: -11 69<227.549 375.145> 469 69<228.383 373.064> 630 64<243.347 353.884>
VStem: 73 91<132.237 393.158> 150 58<731.391 767.569> 391 57<733.758 767.596> 436 91<133.625 394.546>
LayerCount: 2
Fore
SplineSet
298 630 m 0xec
 207 630 158 705 150 766 c 1
 208 779 l 1
 223 728 251 694 298 694 c 0
 346 694 376 728 391 779 c 1
 448 766 l 1
 440 705 390 630 298 630 c 0xec
301 538 m 0
 449 538 527 430 527 264 c 0
 527 102 447 -11 300 -11 c 0
 152 -11 73 97 73 263 c 0xf2
 73 425 153 538 301 538 c 0
301 469 m 0
 210 469 164 403 164 263 c 0
 164 123 209 58 300 58 c 0
 391 58 436 123 436 264 c 0
 436 403 391 469 301 469 c 0
EndSplineSet
Validated: 1
EndChar

StartChar: ocircumflex
Encoding: 244 244 205
Width: 600
GlyphClass: 2
Flags: W
HStem: -11 69<227.549 375.145> 469 69<228.383 373.064>
VStem: 73 91<132.237 393.158> 436 91<133.625 394.546>
LayerCount: 2
Fore
SplineSet
177 629 m 1
 137 670 l 1
 272 789 l 1
 329 789 l 1
 463 670 l 1
 425 629 l 1
 301 720 l 1
 177 629 l 1
301 538 m 0
 449 538 527 430 527 264 c 0
 527 102 447 -11 300 -11 c 0
 152 -11 73 97 73 263 c 0
 73 425 153 538 301 538 c 0
301 469 m 0
 210 469 164 403 164 263 c 0
 164 123 209 58 300 58 c 0
 391 58 436 123 436 264 c 0
 436 403 391 469 301 469 c 0
EndSplineSet
Validated: 1
EndChar

StartChar: odieresis
Encoding: 246 246 206
Width: 600
GlyphClass: 2
Flags: W
HStem: -11 69<227.549 375.145> 469 69<228.383 373.064> 648 108<151.743 239.618 359.382 447.257>
VStem: 73 91<132.237 393.158> 141 109<658.315 745.551> 349 109<658.315 745.551> 436 91<133.625 394.546>
LayerCount: 2
Fore
SplineSet
196 648 m 0xe8
 165 648 141 671 141 701 c 0
 141 733 165 756 196 756 c 0
 227 756 250 733 250 701 c 0
 250 671 227 648 196 648 c 0xe8
403 648 m 0
 372 648 349 671 349 701 c 0
 349 733 372 756 403 756 c 0
 434 756 458 733 458 701 c 0xe4
 458 671 434 648 403 648 c 0
301 538 m 0
 449 538 527 430 527 264 c 0
 527 102 447 -11 300 -11 c 0
 152 -11 73 97 73 263 c 0xf2
 73 425 153 538 301 538 c 0
301 469 m 0
 210 469 164 403 164 263 c 0
 164 123 209 58 300 58 c 0
 391 58 436 123 436 264 c 0
 436 403 391 469 301 469 c 0
EndSplineSet
Validated: 1
EndChar

StartChar: ograve
Encoding: 242 242 207
Width: 600
GlyphClass: 2
Flags: W
HStem: -11 69<227.549 375.145> 469 69<228.383 373.064>
VStem: 73 91<132.237 393.158> 436 91<133.625 394.546>
LayerCount: 2
Fore
SplineSet
387 622 m 1
 184 715 l 1
 230 787 l 1
 414 668 l 1
 387 622 l 1
301 538 m 0
 449 538 527 430 527 264 c 0
 527 102 447 -11 300 -11 c 0
 152 -11 73 97 73 263 c 0
 73 425 153 538 301 538 c 0
301 469 m 0
 210 469 164 403 164 263 c 0
 164 123 209 58 300 58 c 0
 391 58 436 123 436 264 c 0
 436 403 391 469 301 469 c 0
EndSplineSet
Validated: 1
EndChar

StartChar: ohungarumlaut
Encoding: 337 337 208
Width: 600
GlyphClass: 2
Flags: W
HStem: -11 69<227.549 375.145> 469 69<228.383 373.064>
VStem: 73 91<132.237 393.158> 436 91<133.625 394.546>
LayerCount: 2
Fore
SplineSet
176 662 m 1
 254 836 l 1
 329 800 l 1
 232 636 l 1
 176 662 l 1
341 662 m 1
 428 836 l 1
 502 797 l 1
 394 634 l 1
 341 662 l 1
301 538 m 0
 449 538 527 430 527 264 c 0
 527 102 447 -11 300 -11 c 0
 152 -11 73 97 73 263 c 0
 73 425 153 538 301 538 c 0
301 469 m 0
 210 469 164 403 164 263 c 0
 164 123 209 58 300 58 c 0
 391 58 436 123 436 264 c 0
 436 403 391 469 301 469 c 0
EndSplineSet
Validated: 1
EndChar

StartChar: omacron
Encoding: 333 333 209
Width: 600
GlyphClass: 2
Flags: W
HStem: -11 69<227.549 375.145> 469 69<228.383 373.064> 676 64<165 434>
VStem: 73 91<132.237 393.158> 436 91<133.625 394.546>
LayerCount: 2
Fore
SplineSet
434 676 m 1
 165 676 l 1
 165 740 l 1
 434 740 l 1
 434 676 l 1
301 538 m 0
 449 538 527 430 527 264 c 0
 527 102 447 -11 300 -11 c 0
 152 -11 73 97 73 263 c 0
 73 425 153 538 301 538 c 0
301 469 m 0
 210 469 164 403 164 263 c 0
 164 123 209 58 300 58 c 0
 391 58 436 123 436 264 c 0
 436 403 391 469 301 469 c 0
EndSplineSet
Validated: 1
EndChar

StartChar: oslash
Encoding: 248 248 210
Width: 600
GlyphClass: 2
Flags: W
HStem: -11 69<267 372.052> 469 69<228.606 334>
VStem: 73 91<133.129 393.158> 436 91<133.842 394.198>
LayerCount: 2
Fore
SplineSet
417 508 m 1
 487 465 527 378 527 264 c 0
 527 102 447 -11 300 -11 c 0
 282 -11 266 -10 250 -7 c 1
 213 -130 l 1
 143 -110 l 1
 185 18 l 1
 113 61 73 148 73 263 c 0
 73 425 153 538 301 538 c 0
 318 538 334 536 350 533 c 1
 388 654 l 1
 458 633 l 1
 417 508 l 1
301 469 m 0
 211 469 164 403 164 263 c 0
 164 171 182 115 216 85 c 1
 334 466 l 1
 324 468 313 469 301 469 c 0
300 58 m 0
 390 58 436 124 436 264 c 0
 436 355 419 411 385 441 c 1
 267 61 l 1
 277 59 288 58 300 58 c 0
EndSplineSet
Validated: 1
EndChar

StartChar: oslashacute
Encoding: 511 511 211
Width: 600
GlyphClass: 2
Flags: W
HStem: -11 69<267 372.052> 469 69<228.606 334>
VStem: 73 91<133.129 393.158> 436 91<133.842 394.198>
LayerCount: 2
Fore
SplineSet
422 725 m 1
 213 640 l 1
 187 685 l 1
 384 797 l 1
 422 725 l 1
417 508 m 1
 487 465 527 378 527 264 c 0
 527 102 447 -11 300 -11 c 0
 282 -11 266 -10 250 -7 c 1
 213 -130 l 1
 143 -110 l 1
 185 18 l 1
 113 61 73 148 73 263 c 0
 73 425 153 538 301 538 c 0
 318 538 334 536 350 533 c 1
 388 654 l 1
 458 633 l 1
 417 508 l 1
301 469 m 0
 211 469 164 403 164 263 c 0
 164 171 182 115 216 85 c 1
 334 466 l 1
 324 468 313 469 301 469 c 0
300 58 m 0
 390 58 436 124 436 264 c 0
 436 355 419 411 385 441 c 1
 267 61 l 1
 277 59 288 58 300 58 c 0
EndSplineSet
Validated: 1
EndChar

StartChar: otilde
Encoding: 245 245 212
Width: 600
GlyphClass: 2
Flags: W
HStem: -11 69<227.549 375.145> 469 69<228.383 373.064> 659 64<311.768 395.172> 707 65<204.528 290.304>
VStem: 73 91<132.237 393.158> 436 91<133.625 394.546>
LayerCount: 2
Fore
SplineSet
358 659 m 0xec
 306 659 278 707 242 707 c 0
 219 707 205 691 189 661 c 1
 136 687 l 1
 159 735 194 772 242 772 c 0xdc
 298 772 321 723 358 723 c 0
 378 723 393 737 411 768 c 1
 465 741 l 1
 439 685 401 659 358 659 c 0xec
301 538 m 0
 449 538 527 430 527 264 c 0
 527 102 447 -11 300 -11 c 0
 152 -11 73 97 73 263 c 0
 73 425 153 538 301 538 c 0
301 469 m 0
 210 469 164 403 164 263 c 0
 164 123 209 58 300 58 c 0
 391 58 436 123 436 264 c 0
 436 403 391 469 301 469 c 0
EndSplineSet
Validated: 1
EndChar

StartChar: oe
Encoding: 339 339 213
Width: 600
GlyphClass: 2
Flags: W
HStem: -11 69<125.928 230.188 401.417 529.059> 233 66<350 533> 468 70<124.697 230.02 391.18 498.752>
VStem: -2 89<107.662 417.35> 266 84<121.872 233 299 416.261> 533 82<299 426.544>
LayerCount: 2
Fore
SplineSet
449 538 m 0
 565 538 615 440 615 279 c 0
 615 261 614 245 613 233 c 1
 350 233 l 1
 359 113 390 59 460 59 c 0
 497 59 523 73 556 99 c 1
 595 41 l 1
 555 9 515 -11 458 -11 c 0
 385 -11 335 25 309 90 c 1
 284 30 245 -11 167 -11 c 0
 50 -11 -2 97 -2 263 c 0
 -2 425 48 538 167 538 c 0
 250 538 287 497 309 435 c 1
 333 494 374 538 449 538 c 0
178 470 m 0
 112 470 87 403 87 263 c 0
 87 119 112 58 178 58 c 0
 243 58 266 113 266 264 c 0
 266 404 242 470 178 470 c 0
447 468 m 0
 386 468 358 424 350 299 c 1
 533 299 l 1
 531 409 512 468 447 468 c 0
EndSplineSet
Validated: 1
EndChar

StartChar: p
Encoding: 112 112 214
Width: 600
GlyphClass: 2
Flags: W
HStem: -212 21G<100 184> -11 70<232.699 374.387> 470 68<250.195 379.702> 507 20G<100 173.892>
VStem: 100 84<-202 49 100.485 413.123> 100 72<453 527> 436 91<129.579 402.673>
LayerCount: 2
Fore
SplineSet
336 538 m 4xe6
 476 538 527 429 527 264 c 4
 527 104 461 -11 324 -11 c 4
 266 -11 220 9 184 49 c 5
 184 -202 l 5xea
 100 -212 l 5
 100 527 l 5
 172 527 l 5xd6
 179 453 l 5
 217 507 273 538 336 538 c 4xe6
316 470 m 4
 258 470 213 428 184 386 c 5
 184 125 l 5
 212 84 255 59 305 59 c 4
 392 59 436 124 436 264 c 4
 436 401 399 470 316 470 c 4
EndSplineSet
Validated: 1
EndChar

StartChar: thorn
Encoding: 254 254 215
Width: 600
GlyphClass: 2
Flags: W
HStem: -212 21G<100 184> -11 70<232.699 374.387> 470 68<249.927 379.702> 729 20G<100 184>
VStem: 100 84<-202 49 100.485 413.123 461 739> 436 91<129.579 402.673>
LayerCount: 2
Fore
SplineSet
184 749 m 1
 184 461 l 1
 223 511 277 538 336 538 c 0
 476 538 527 429 527 264 c 0
 527 104 461 -11 324 -11 c 0
 266 -11 220 9 184 49 c 1
 184 -202 l 1
 100 -212 l 1
 100 739 l 1
 184 749 l 1
316 470 m 0
 258 470 213 428 184 386 c 1
 184 125 l 1
 212 84 255 59 305 59 c 0
 392 59 436 124 436 264 c 0
 436 401 399 470 316 470 c 0
EndSplineSet
Validated: 1
EndChar

StartChar: q
Encoding: 113 113 216
Width: 600
GlyphClass: 2
Flags: W
HStem: -212 21G<416 500> -11 70<218.105 355.378> 470 68<227.052 365.231> 507 20G<425.586 500>
VStem: 73 91<126.326 397.124> 416 84<-202 66 112.444 427.561> 428 72<469 527>
LayerCount: 2
Fore
SplineSet
274 538 m 0xec
 337 538 386 513 421 469 c 1
 428 527 l 1
 500 527 l 1
 500 -212 l 1xda
 416 -202 l 1
 416 66 l 1
 377 12 325 -11 267 -11 c 0
 126 -11 73 97 73 263 c 0
 73 421 144 538 274 538 c 0xec
295 470 m 0xec
 208 470 164 402 164 263 c 0
 164 126 203 59 285 59 c 0
 343 59 387 96 416 140 c 1
 416 402 l 1
 388 445 345 470 295 470 c 0xec
EndSplineSet
Validated: 1
EndChar

StartChar: r
Encoding: 114 114 217
Width: 600
GlyphClass: 2
Flags: W
HStem: 0 65<105 188 272 379> 461 77<369.663 450> 462 65<105 188>
VStem: 188 84<65 346.133> 450 68<348 452.417>
LayerCount: 2
Fore
SplineSet
456 538 m 0xd8
 485 538 507 533 530 527 c 1xb8
 518 348 l 1
 450 348 l 1
 450 461 l 1
 445 461 l 2xd8
 364 461 306 403 272 287 c 1
 272 65 l 1
 379 65 l 1
 379 0 l 1
 105 0 l 1
 105 65 l 1
 188 65 l 1
 188 462 l 1
 105 462 l 1
 105 527 l 1
 251 527 l 1xb8
 267 402 l 1
 307 488 361 538 456 538 c 0xd8
EndSplineSet
Validated: 1
EndChar

StartChar: racute
Encoding: 341 341 218
Width: 600
GlyphClass: 2
Flags: W
HStem: 0 65<105 188 272 379> 461 77<369.663 450> 462 65<105 188>
VStem: 188 84<65 346.133> 450 68<348 452.417>
LayerCount: 2
Fore
SplineSet
453 725 m 1x98
 244 640 l 1
 218 685 l 1
 415 797 l 1
 453 725 l 1x98
456 538 m 0xd8
 485 538 507 533 530 527 c 1xb8
 518 348 l 1
 450 348 l 1
 450 461 l 1
 445 461 l 2xd8
 364 461 306 403 272 287 c 1
 272 65 l 1
 379 65 l 1
 379 0 l 1
 105 0 l 1
 105 65 l 1
 188 65 l 1
 188 462 l 1
 105 462 l 1
 105 527 l 1
 251 527 l 1xb8
 267 402 l 1
 307 488 361 538 456 538 c 0xd8
EndSplineSet
Validated: 1
EndChar

StartChar: rcaron
Encoding: 345 345 219
Width: 600
GlyphClass: 2
Flags: W
HStem: 0 65<105 188 272 379> 461 77<369.663 450> 462 65<105 188>
VStem: 188 84<65 346.133> 450 68<348 452.417>
LayerCount: 2
Fore
SplineSet
360 629 m 1x98
 303 629 l 1
 168 748 l 1
 208 789 l 1
 332 699 l 1
 456 789 l 1
 494 748 l 1
 360 629 l 1x98
456 538 m 0xd8
 485 538 507 533 530 527 c 1xb8
 518 348 l 1
 450 348 l 1
 450 461 l 1
 445 461 l 2xd8
 364 461 306 403 272 287 c 1
 272 65 l 1
 379 65 l 1
 379 0 l 1
 105 0 l 1
 105 65 l 1
 188 65 l 1
 188 462 l 1
 105 462 l 1
 105 527 l 1
 251 527 l 1xb8
 267 402 l 1
 307 488 361 538 456 538 c 0xd8
EndSplineSet
Validated: 1
EndChar

StartChar: rcommaaccent
Encoding: 343 343 220
Width: 600
GlyphClass: 2
Flags: W
HStem: 0 65<105 188 272 379> 461 77<369.663 450> 462 65<105 188>
VStem: 179 109<-168.481 -81.7705> 188 84<65 346.133> 450 68<348 452.417>
LayerCount: 2
Fore
SplineSet
456 538 m 0xcc
 485 538 507 533 530 527 c 1xac
 518 348 l 1
 450 348 l 1
 450 461 l 1
 445 461 l 2xcc
 364 461 306 403 272 287 c 1
 272 65 l 1
 379 65 l 1
 379 0 l 1
 105 0 l 1
 105 65 l 1
 188 65 l 1
 188 462 l 1
 105 462 l 1
 105 527 l 1
 251 527 l 1xac
 267 402 l 1
 307 488 361 538 456 538 c 0xcc
233 -71 m 0
 264 -71 288 -94 288 -124 c 0
 288 -141 283 -156 273 -179 c 2
 222 -286 l 1
 172 -286 l 1
 201 -169 l 1
 187 -158 179 -142 179 -124 c 0x94
 179 -93 203 -71 233 -71 c 0
EndSplineSet
Validated: 1
EndChar

StartChar: s
Encoding: 115 115 221
Width: 600
GlyphClass: 2
Flags: W
HStem: -11 69<177.702 372.339> 470 68<215.134 411.424>
VStem: 103 88<354.476 446.915> 410 91<92.5453 198.811>
LayerCount: 2
Fore
SplineSet
280 58 m 4
 361 58 410 91 410 142 c 4
 410 189 395 214 283 242 c 4
 174 269 103 302 103 394 c 4
 103 482 184 538 303 538 c 4
 388 538 450 512 495 480 c 5
 457 422 l 5
 418 449 373 470 305 470 c 4
 221 470 191 441 191 401 c 4
 191 353 224 337 330 308 c 4
 433 280 501 244 501 146 c 4
 501 33 392 -11 280 -11 c 4
 184 -11 119 21 74 60 c 5
 121 115 l 5
 162 81 218 58 280 58 c 4
EndSplineSet
Validated: 1
EndChar

StartChar: sacute
Encoding: 347 347 222
Width: 600
GlyphClass: 2
Flags: W
HStem: -11 69<177.702 372.339> 470 68<215.134 411.424>
VStem: 103 88<354.476 446.915> 410 91<92.5453 198.811>
LayerCount: 2
Fore
SplineSet
391 797 m 1
 429 725 l 1
 220 640 l 1
 194 685 l 1
 391 797 l 1
280 58 m 0
 361 58 410 91 410 142 c 0
 410 189 395 214 283 242 c 0
 174 269 103 302 103 394 c 0
 103 482 184 538 303 538 c 0
 388 538 450 512 495 480 c 1
 457 422 l 1
 418 449 373 470 305 470 c 0
 221 470 191 441 191 401 c 0
 191 353 224 337 330 308 c 0
 433 280 501 244 501 146 c 0
 501 33 392 -11 280 -11 c 0
 184 -11 119 21 74 60 c 1
 121 115 l 1
 162 81 218 58 280 58 c 0
EndSplineSet
Validated: 1
EndChar

StartChar: scaron
Encoding: 353 353 223
Width: 600
GlyphClass: 2
Flags: W
HStem: -11 69<177.702 372.339> 470 68<215.134 411.424>
VStem: 103 88<354.476 446.915> 410 91<92.5453 198.811>
LayerCount: 2
Fore
SplineSet
432 789 m 1
 470 748 l 1
 336 629 l 1
 279 629 l 1
 144 748 l 1
 184 789 l 1
 308 699 l 1
 432 789 l 1
280 58 m 0
 361 58 410 91 410 142 c 0
 410 189 395 214 283 242 c 0
 174 269 103 302 103 394 c 0
 103 482 184 538 303 538 c 0
 388 538 450 512 495 480 c 1
 457 422 l 1
 418 449 373 470 305 470 c 0
 221 470 191 441 191 401 c 0
 191 353 224 337 330 308 c 0
 433 280 501 244 501 146 c 0
 501 33 392 -11 280 -11 c 0
 184 -11 119 21 74 60 c 1
 121 115 l 1
 162 81 218 58 280 58 c 0
EndSplineSet
Validated: 1
EndChar

StartChar: scedilla
Encoding: 351 351 224
Width: 600
GlyphClass: 2
Flags: W
HStem: -238 56<200.111 331.743> -11 69<179.67 257 317 370.372> 470 68<215.134 411.424>
VStem: 103 88<354.476 446.915> 337 73<-174.385 -106.039> 410 91<91.4326 198.811>
LayerCount: 2
Fore
SplineSet
501 146 m 0xf4
 501 46 415 -1 317 -10 c 1
 317 -57 l 1
 382 -63 410 -101 410 -140 c 0
 410 -206 352 -238 288 -238 c 0
 248 -238 209 -229 183 -214 c 1
 210 -166 l 1
 229 -176 255 -182 277 -182 c 0
 313 -182 337 -170 337 -141 c 0xf8
 337 -104 304 -97 251 -97 c 1
 257 -11 l 1
 174 -6 115 24 74 60 c 1
 121 115 l 1
 162 81 218 58 280 58 c 0
 361 58 410 91 410 142 c 0
 410 189 395 214 283 242 c 0
 174 269 103 302 103 394 c 0
 103 482 184 538 303 538 c 0
 388 538 450 512 495 480 c 1
 457 422 l 1
 418 449 373 470 305 470 c 0
 221 470 191 441 191 401 c 0
 191 353 224 337 330 308 c 0
 433 280 501 244 501 146 c 0xf4
EndSplineSet
Validated: 1
EndChar

StartChar: scircumflex
Encoding: 349 349 225
Width: 600
GlyphClass: 2
Flags: W
HStem: -11 69<177.702 372.339> 470 68<215.134 411.424>
VStem: 103 88<354.476 446.915> 410 91<92.5453 198.811>
LayerCount: 2
Fore
SplineSet
184 629 m 1
 144 670 l 1
 279 789 l 1
 336 789 l 1
 470 670 l 1
 432 629 l 1
 308 720 l 1
 184 629 l 1
280 58 m 0
 361 58 410 91 410 142 c 0
 410 189 395 214 283 242 c 0
 174 269 103 302 103 394 c 0
 103 482 184 538 303 538 c 0
 388 538 450 512 495 480 c 1
 457 422 l 1
 418 449 373 470 305 470 c 0
 221 470 191 441 191 401 c 0
 191 353 224 337 330 308 c 0
 433 280 501 244 501 146 c 0
 501 33 392 -11 280 -11 c 0
 184 -11 119 21 74 60 c 1
 121 115 l 1
 162 81 218 58 280 58 c 0
EndSplineSet
Validated: 1
EndChar

StartChar: scommaaccent
Encoding: 537 537 226
Width: 600
GlyphClass: 2
Flags: W
HStem: -11 69<177.702 372.339> 470 68<215.134 411.424>
VStem: 103 88<354.476 446.915> 246 109<-168.481 -81.7705> 410 91<92.5453 198.811>
LayerCount: 2
Fore
SplineSet
280 58 m 0
 361 58 410 91 410 142 c 0
 410 189 395 214 283 242 c 0
 174 269 103 302 103 394 c 0
 103 482 184 538 303 538 c 0
 388 538 450 512 495 480 c 1
 457 422 l 1
 418 449 373 470 305 470 c 0
 221 470 191 441 191 401 c 0
 191 353 224 337 330 308 c 0
 433 280 501 244 501 146 c 0
 501 33 392 -11 280 -11 c 0
 184 -11 119 21 74 60 c 1
 121 115 l 1
 162 81 218 58 280 58 c 0
300 -71 m 0
 331 -71 355 -94 355 -124 c 0
 355 -141 350 -156 340 -179 c 2
 289 -286 l 1
 239 -286 l 1
 268 -169 l 1
 254 -158 246 -142 246 -124 c 0
 246 -93 270 -71 300 -71 c 0
EndSplineSet
Validated: 1
EndChar

StartChar: germandbls
Encoding: 223 223 227
Width: 600
GlyphClass: 2
Flags: W
HStem: -11 68<272.284 436.265> 0 21G<96 180> 682 67<222.091 361.061>
VStem: 96 84<0 636.542> 274 83<384.476 471.997> 390 81<548.665 653.929> 472 86<93.1518 224.944>
LayerCount: 2
Fore
SplineSet
297 749 m 0x7e
 400 749 471 690 471 605 c 0
 471 508 357 491 357 429 c 0
 357 341 558 335 558 167 c 0
 558 51 472 -11 372 -11 c 0
 318 -11 277 1 242 23 c 1
 277 81 l 1
 301 66 335 57 364 57 c 0xbe
 431 57 472 91 472 163 c 0
 472 291 274 288 274 419 c 0
 274 514 390 523 390 597 c 0
 390 633 368 682 296 682 c 0
 221 682 180 642 180 539 c 2
 180 0 l 1
 96 0 l 1
 96 533 l 2
 96 675 172 749 297 749 c 0x7e
EndSplineSet
Validated: 1
EndChar

StartChar: t
Encoding: 116 116 228
Width: 600
GlyphClass: 2
Flags: W
HStem: -11 70<309.542 483.781> 461 66<79 200 284 456>
VStem: 200 84<84.6473 461 527 646>
LayerCount: 2
Fore
SplineSet
519 27 m 1
 482 3 427 -11 377 -11 c 0
 264 -11 200 55 200 147 c 2
 200 461 l 1
 79 461 l 1
 79 527 l 1
 200 527 l 1
 200 646 l 1
 284 656 l 1
 284 527 l 1
 467 527 l 1
 456 461 l 1
 284 461 l 1
 284 148 l 2
 284 90 313 59 385 59 c 0
 424 59 458 69 486 84 c 1
 519 27 l 1
EndSplineSet
Validated: 1
EndChar

StartChar: tbar
Encoding: 359 359 229
Width: 600
GlyphClass: 2
Flags: W
HStem: -11 70<309.542 483.781> 288 64<90 200 284 457> 461 66<79 200 284 456>
VStem: 200 84<84.6473 288 352 461 527 646>
LayerCount: 2
Fore
SplineSet
486 84 m 1
 519 27 l 1
 482 3 427 -11 377 -11 c 0
 264 -11 200 55 200 147 c 2
 200 288 l 1
 90 288 l 1
 90 352 l 1
 200 352 l 1
 200 461 l 1
 79 461 l 1
 79 527 l 1
 200 527 l 1
 200 646 l 1
 284 656 l 1
 284 527 l 1
 467 527 l 1
 456 461 l 1
 284 461 l 1
 284 352 l 1
 457 352 l 1
 457 288 l 1
 284 288 l 1
 284 148 l 2
 284 90 313 59 385 59 c 0
 424 59 458 69 486 84 c 1
EndSplineSet
Validated: 1
EndChar

StartChar: tcaron
Encoding: 357 357 230
Width: 600
GlyphClass: 2
Flags: W
HStem: -11 70<309.542 483.781> 461 66<79 200 284 456>
VStem: 200 84<84.6473 461 527 646>
LayerCount: 2
Fore
SplineSet
364 762 m 1
 440 752 l 1
 387 574 l 1
 339 581 l 1
 364 762 l 1
519 27 m 1
 482 3 427 -11 377 -11 c 0
 264 -11 200 55 200 147 c 2
 200 461 l 1
 79 461 l 1
 79 527 l 1
 200 527 l 1
 200 646 l 1
 284 656 l 1
 284 527 l 1
 467 527 l 1
 456 461 l 1
 284 461 l 1
 284 148 l 2
 284 90 313 59 385 59 c 0
 424 59 458 69 486 84 c 1
 519 27 l 1
EndSplineSet
Validated: 1
EndChar

StartChar: uni0163
Encoding: 355 355 231
Width: 600
GlyphClass: 2
Flags: W
HStem: -238 56<274.111 405.743> -7 66<313 331 391 479.328> 461 66<79 200 284 456>
VStem: 200 84<85.431 461 527 646> 411 73<-174.385 -106.039>
LayerCount: 2
Fore
SplineSet
391 -57 m 1
 456 -63 484 -101 484 -140 c 0
 484 -206 426 -238 362 -238 c 0
 322 -238 283 -229 257 -214 c 1
 284 -166 l 1
 303 -176 329 -182 351 -182 c 0
 387 -182 411 -170 411 -141 c 0
 411 -104 378 -97 325 -97 c 1
 331 -7 l 1
 247 8 200 68 200 147 c 2
 200 461 l 1
 79 461 l 1
 79 527 l 1
 200 527 l 1
 200 646 l 1
 284 656 l 1
 284 527 l 1
 467 527 l 1
 456 461 l 1
 284 461 l 1
 284 148 l 2
 284 90 313 59 385 59 c 0
 424 59 458 69 486 84 c 1
 519 27 l 1
 486 5 437 -9 391 -11 c 1
 391 -57 l 1
EndSplineSet
Validated: 1
EndChar

StartChar: uni021B
Encoding: 539 539 232
Width: 600
GlyphClass: 2
Flags: W
HStem: -11 70<309.542 483.781> 461 66<79 200 284 456>
VStem: 200 84<84.6473 461 527 646> 320 109<-168.481 -81.7705>
LayerCount: 2
Fore
SplineSet
519 27 m 1
 482 3 427 -11 377 -11 c 0
 264 -11 200 55 200 147 c 2
 200 461 l 1
 79 461 l 1
 79 527 l 1
 200 527 l 1
 200 646 l 1
 284 656 l 1
 284 527 l 1
 467 527 l 1
 456 461 l 1
 284 461 l 1
 284 148 l 2
 284 90 313 59 385 59 c 0
 424 59 458 69 486 84 c 1
 519 27 l 1
374 -71 m 0
 405 -71 429 -94 429 -124 c 0
 429 -141 424 -156 414 -179 c 2
 363 -286 l 1
 313 -286 l 1
 342 -169 l 1
 328 -158 320 -142 320 -124 c 0
 320 -93 344 -71 374 -71 c 0
EndSplineSet
Validated: 1
EndChar

StartChar: u
Encoding: 117 117 233
Width: 600
GlyphClass: 2
Flags: W
HStem: -11 66<208.223 343.731> 0 21G<426.028 500> 507 20G<100 184 416 500>
VStem: 100 84<78.5 527> 416 84<112.597 527> 428 72<0 71>
LayerCount: 2
Fore
SplineSet
184 527 m 1xb4
 184 153 l 2
 184 85 212 55 273 55 c 0
 331 55 387 94 416 139 c 1
 416 527 l 1
 500 527 l 1xb8
 500 0 l 1
 428 0 l 1x74
 421 71 l 1
 379 18 314 -11 252 -11 c 0
 150 -11 100 46 100 144 c 2
 100 527 l 1
 184 527 l 1xb4
EndSplineSet
Validated: 1
EndChar

StartChar: uacute
Encoding: 250 250 234
Width: 600
GlyphClass: 2
Flags: W
HStem: -11 66<208.223 343.731> 0 21G<426.028 500> 507 20G<100 184 416 500>
VStem: 100 84<78.5 527> 416 84<112.597 527> 428 72<0 71>
LayerCount: 2
Fore
SplineSet
384 797 m 1x30
 422 725 l 1
 213 640 l 1
 187 685 l 1
 384 797 l 1x30
184 527 m 1
 184 153 l 2
 184 85 212 55 273 55 c 0
 331 55 387 94 416 139 c 1
 416 527 l 1
 500 527 l 1xb8
 500 0 l 1
 428 0 l 1x74
 421 71 l 1
 379 18 314 -11 252 -11 c 0xb4
 150 -11 100 46 100 144 c 2
 100 527 l 1
 184 527 l 1
EndSplineSet
Validated: 1
EndChar

StartChar: ubreve
Encoding: 365 365 235
Width: 600
GlyphClass: 2
Flags: W
HStem: -11 66<208.223 343.731> 0 21G<426.028 500> 507 20G<100 184 416 500> 630 64<243.347 353.884>
VStem: 100 84<78.5 527> 150 58<731.391 767.569> 391 57<733.758 767.596> 416 84<112.597 527> 428 72<0 71>
LayerCount: 2
Fore
SplineSet
298 630 m 0x36
 207 630 158 705 150 766 c 1
 208 779 l 1
 223 728 251 694 298 694 c 0
 346 694 376 728 391 779 c 1
 448 766 l 1
 440 705 390 630 298 630 c 0x36
184 527 m 1xb880
 184 153 l 2
 184 85 212 55 273 55 c 0
 331 55 387 94 416 139 c 1
 416 527 l 1
 500 527 l 1xb9
 500 0 l 1
 428 0 l 1x7080
 421 71 l 1
 379 18 314 -11 252 -11 c 0
 150 -11 100 46 100 144 c 2
 100 527 l 1
 184 527 l 1xb880
EndSplineSet
Validated: 1
EndChar

StartChar: ucircumflex
Encoding: 251 251 236
Width: 600
GlyphClass: 2
Flags: W
HStem: -11 66<208.223 343.731> 0 21G<426.028 500> 507 20G<100 184 416 500>
VStem: 100 84<78.5 527> 416 84<112.597 527> 428 72<0 71>
LayerCount: 2
Fore
SplineSet
177 629 m 1x30
 137 670 l 1
 272 789 l 1
 329 789 l 1
 463 670 l 1
 425 629 l 1
 301 720 l 1
 177 629 l 1x30
184 527 m 1
 184 153 l 2
 184 85 212 55 273 55 c 0
 331 55 387 94 416 139 c 1
 416 527 l 1
 500 527 l 1xb8
 500 0 l 1
 428 0 l 1x74
 421 71 l 1
 379 18 314 -11 252 -11 c 0xb4
 150 -11 100 46 100 144 c 2
 100 527 l 1
 184 527 l 1
EndSplineSet
Validated: 1
EndChar

StartChar: udieresis
Encoding: 252 252 237
Width: 600
GlyphClass: 2
Flags: W
HStem: -11 66<208.223 343.731> 0 21G<426.028 500> 507 20G<100 184 416 500> 648 108<151.743 239.618 359.382 447.257>
VStem: 100 84<78.5 527> 141 109<658.315 745.551> 349 109<658.315 745.551> 416 84<112.597 527> 428 72<0 71>
LayerCount: 2
Fore
SplineSet
196 648 m 0x34
 165 648 141 671 141 701 c 0
 141 733 165 756 196 756 c 0
 227 756 250 733 250 701 c 0
 250 671 227 648 196 648 c 0x34
403 648 m 0
 372 648 349 671 349 701 c 0
 349 733 372 756 403 756 c 0
 434 756 458 733 458 701 c 0x32
 458 671 434 648 403 648 c 0
184 527 m 1xb880
 184 153 l 2
 184 85 212 55 273 55 c 0
 331 55 387 94 416 139 c 1
 416 527 l 1
 500 527 l 1xb9
 500 0 l 1
 428 0 l 1x7080
 421 71 l 1
 379 18 314 -11 252 -11 c 0
 150 -11 100 46 100 144 c 2
 100 527 l 1
 184 527 l 1xb880
EndSplineSet
Validated: 1
EndChar

StartChar: ugrave
Encoding: 249 249 238
Width: 600
GlyphClass: 2
Flags: W
HStem: -11 66<208.223 343.731> 0 21G<426.028 500> 507 20G<100 184 416 500>
VStem: 100 84<78.5 527> 416 84<112.597 527> 428 72<0 71>
LayerCount: 2
Fore
SplineSet
387 622 m 1x30
 184 715 l 1
 230 787 l 1
 414 668 l 1
 387 622 l 1x30
184 527 m 1
 184 153 l 2
 184 85 212 55 273 55 c 0
 331 55 387 94 416 139 c 1
 416 527 l 1
 500 527 l 1xb8
 500 0 l 1
 428 0 l 1x74
 421 71 l 1
 379 18 314 -11 252 -11 c 0xb4
 150 -11 100 46 100 144 c 2
 100 527 l 1
 184 527 l 1
EndSplineSet
Validated: 1
EndChar

StartChar: uhungarumlaut
Encoding: 369 369 239
Width: 600
GlyphClass: 2
Flags: W
HStem: -11 66<208.223 343.731> 0 21G<426.028 500> 507 20G<100 184 416 500>
VStem: 100 84<78.5 527> 416 84<112.597 527> 428 72<0 71>
LayerCount: 2
Fore
SplineSet
176 662 m 1x30
 254 836 l 1
 329 800 l 1
 232 636 l 1
 176 662 l 1x30
341 662 m 1
 428 836 l 1x34
 502 797 l 1
 394 634 l 1
 341 662 l 1
184 527 m 1
 184 153 l 2
 184 85 212 55 273 55 c 0
 331 55 387 94 416 139 c 1
 416 527 l 1
 500 527 l 1xb8
 500 0 l 1
 428 0 l 1x74
 421 71 l 1
 379 18 314 -11 252 -11 c 0xb4
 150 -11 100 46 100 144 c 2
 100 527 l 1
 184 527 l 1
EndSplineSet
Validated: 1
EndChar

StartChar: umacron
Encoding: 363 363 240
Width: 600
GlyphClass: 2
Flags: W
HStem: -11 66<208.223 343.731> 0 21G<426.028 500> 507 20G<100 184 416 500> 676 64<165 434>
VStem: 100 84<78.5 527> 416 84<112.597 527> 428 72<0 71>
LayerCount: 2
Fore
SplineSet
434 676 m 1x38
 165 676 l 1
 165 740 l 1
 434 740 l 1
 434 676 l 1x38
184 527 m 1
 184 153 l 2
 184 85 212 55 273 55 c 0
 331 55 387 94 416 139 c 1
 416 527 l 1
 500 527 l 1xbc
 500 0 l 1
 428 0 l 1x7a
 421 71 l 1
 379 18 314 -11 252 -11 c 0xba
 150 -11 100 46 100 144 c 2
 100 527 l 1
 184 527 l 1
EndSplineSet
Validated: 1
EndChar

StartChar: uogonek
Encoding: 371 371 241
Width: 600
GlyphClass: 2
Flags: W
HStem: -229 67<381.526 485.235> -11 66<208.223 343.731> 507 20G<100 184 416 500>
VStem: 100 84<78.5 527> 299 77<-154.51 -63.8358> 416 84<112.597 527>
LayerCount: 2
Fore
SplineSet
376 -114 m 0
 376 -144 390 -162 432 -162 c 0
 453 -162 469 -160 493 -155 c 1
 485 -223 l 1
 464 -226 448 -229 421 -229 c 0
 345 -229 299 -187 299 -131 c 0
 299 -73 339 -26 427 10 c 1
 421 71 l 1
 379 18 314 -11 252 -11 c 0
 150 -11 100 46 100 144 c 2
 100 527 l 1
 184 527 l 1
 184 153 l 2
 184 85 212 55 273 55 c 0
 331 55 387 94 416 139 c 1
 416 527 l 1
 500 527 l 1
 500 0 l 1
 397 -45 376 -79 376 -114 c 0
EndSplineSet
Validated: 1
EndChar

StartChar: uring
Encoding: 367 367 242
Width: 600
GlyphClass: 2
Flags: W
HStem: -11 66<208.223 343.731> 0 21G<426.028 500> 507 20G<100 184 416 500> 619 45<255.514 344.633> 777 47<255.155 344.984>
VStem: 100 84<78.5 527> 189 57<673.763 767.873> 354 57<673.407 768.226> 416 84<112.597 527> 428 72<0 71>
LayerCount: 2
Fore
SplineSet
300 824 m 0x3f
 365 824 411 778 411 721 c 0
 411 664 365 619 300 619 c 0
 235 619 189 664 189 721 c 0
 189 778 235 824 300 824 c 0x3f
300 777 m 0
 267 777 246 756 246 721 c 0
 246 685 267 664 300 664 c 0
 334 664 354 685 354 721 c 0
 354 756 334 777 300 777 c 0
184 527 m 1
 184 153 l 2
 184 85 212 55 273 55 c 0
 331 55 387 94 416 139 c 1
 416 527 l 1
 500 527 l 1xbf80
 500 0 l 1
 428 0 l 1x7f40
 421 71 l 1
 379 18 314 -11 252 -11 c 0xbf40
 150 -11 100 46 100 144 c 2
 100 527 l 1
 184 527 l 1
EndSplineSet
Validated: 1
EndChar

StartChar: utilde
Encoding: 361 361 243
Width: 600
GlyphClass: 2
Flags: W
HStem: -11 66<208.223 343.731> 0 21G<426.028 500> 507 20G<100 184 416 500> 659 64<311.768 395.172> 707 65<204.528 290.304>
VStem: 100 84<78.5 527> 416 84<112.597 527> 428 72<0 71>
LayerCount: 2
Fore
SplineSet
358 659 m 0x34
 306 659 278 707 242 707 c 0
 219 707 205 691 189 661 c 1
 136 687 l 1
 159 735 194 772 242 772 c 0x2c
 298 772 321 723 358 723 c 0
 378 723 393 737 411 768 c 1
 465 741 l 1
 439 685 401 659 358 659 c 0x34
184 527 m 1
 184 153 l 2
 184 85 212 55 273 55 c 0
 331 55 387 94 416 139 c 1
 416 527 l 1
 500 527 l 1xa6
 500 0 l 1
 428 0 l 1x65
 421 71 l 1
 379 18 314 -11 252 -11 c 0xa5
 150 -11 100 46 100 144 c 2
 100 527 l 1
 184 527 l 1
EndSplineSet
Validated: 1
EndChar

StartChar: v
Encoding: 118 118 244
Width: 600
GlyphClass: 2
Flags: W
HStem: 0 21G<243.751 355.287> 507 20G<60 156.741 445.348 540>
LayerCount: 2
Fore
SplineSet
540 527 m 1
 348 0 l 1
 251 0 l 1
 60 527 l 1
 150 527 l 1
 302 76 l 1
 452 527 l 1
 540 527 l 1
EndSplineSet
Validated: 1
EndChar

StartChar: w
Encoding: 119 119 245
Width: 600
GlyphClass: 2
Flags: W
HStem: 0 21G<109.395 232.834 368.425 494.454> 507 20G<18 105.863 498.137 582>
VStem: 18 85<488.168 527> 501 81<486.462 527>
LayerCount: 2
Fore
SplineSet
491 0 m 5
 372 0 l 5
 303 386 l 5
 229 0 l 5
 113 0 l 5
 18 527 l 5
 103 527 l 5
 171 52 l 5
 255 460 l 5
 354 460 l 5
 433 52 l 5
 501 527 l 5
 582 527 l 5
 491 0 l 5
EndSplineSet
Validated: 1
EndChar

StartChar: wacute
Encoding: 7811 7811 246
Width: 600
GlyphClass: 2
Flags: W
HStem: 0 21G<109.395 232.834 368.425 494.454> 507 20G<18 105.863 498.137 582>
VStem: 18 85<488.168 527> 501 81<486.462 527>
LayerCount: 2
Fore
SplineSet
384 797 m 1
 422 725 l 1
 213 640 l 1
 187 685 l 1
 384 797 l 1
491 0 m 1
 372 0 l 1
 303 386 l 1
 229 0 l 1
 113 0 l 1
 18 527 l 1
 103 527 l 1
 171 52 l 1
 255 460 l 1
 354 460 l 1
 433 52 l 1
 501 527 l 1
 582 527 l 1
 491 0 l 1
EndSplineSet
Validated: 1
EndChar

StartChar: wcircumflex
Encoding: 373 373 247
Width: 600
GlyphClass: 2
Flags: W
HStem: 0 21G<109.395 232.834 368.425 494.454> 507 20G<18 105.863 498.137 582>
VStem: 18 85<488.168 527> 501 81<486.462 527>
LayerCount: 2
Fore
SplineSet
177 629 m 1
 137 670 l 1
 272 789 l 1
 329 789 l 1
 463 670 l 1
 425 629 l 1
 301 720 l 1
 177 629 l 1
491 0 m 1
 372 0 l 1
 303 386 l 1
 229 0 l 1
 113 0 l 1
 18 527 l 1
 103 527 l 1
 171 52 l 1
 255 460 l 1
 354 460 l 1
 433 52 l 1
 501 527 l 1
 582 527 l 1
 491 0 l 1
EndSplineSet
Validated: 1
EndChar

StartChar: wdieresis
Encoding: 7813 7813 248
Width: 600
GlyphClass: 2
Flags: W
HStem: 0 21G<109.395 232.834 368.425 494.454> 507 20G<18 105.863 498.137 582> 648 108<151.743 239.618 359.382 447.257>
VStem: 18 85<488.168 527> 141 109<658.315 745.551> 349 109<658.315 745.551> 501 81<486.462 527>
LayerCount: 2
Fore
SplineSet
196 648 m 0
 165 648 141 671 141 701 c 0
 141 733 165 756 196 756 c 0
 227 756 250 733 250 701 c 0
 250 671 227 648 196 648 c 0
403 648 m 0
 372 648 349 671 349 701 c 0
 349 733 372 756 403 756 c 0
 434 756 458 733 458 701 c 0
 458 671 434 648 403 648 c 0
491 0 m 1
 372 0 l 1
 303 386 l 1
 229 0 l 1
 113 0 l 1
 18 527 l 1
 103 527 l 1
 171 52 l 1
 255 460 l 1
 354 460 l 1
 433 52 l 1
 501 527 l 1
 582 527 l 1
 491 0 l 1
EndSplineSet
Validated: 1
EndChar

StartChar: wgrave
Encoding: 7809 7809 249
Width: 600
GlyphClass: 2
Flags: W
HStem: 0 21G<109.395 232.834 368.425 494.454> 507 20G<18 105.863 498.137 582>
VStem: 18 85<488.168 527> 501 81<486.462 527>
LayerCount: 2
Fore
SplineSet
387 622 m 1
 184 715 l 1
 230 787 l 1
 414 668 l 1
 387 622 l 1
491 0 m 1
 372 0 l 1
 303 386 l 1
 229 0 l 1
 113 0 l 1
 18 527 l 1
 103 527 l 1
 171 52 l 1
 255 460 l 1
 354 460 l 1
 433 52 l 1
 501 527 l 1
 582 527 l 1
 491 0 l 1
EndSplineSet
Validated: 1
EndChar

StartChar: x
Encoding: 120 120 250
Width: 600
GlyphClass: 2
Flags: W
HStem: 0 21G<56 164.832 429.168 544> 507 20G<79 191.449 411.449 521>
LayerCount: 2
Fore
SplineSet
152 0 m 1
 56 0 l 1
 250 278 l 1
 79 527 l 1
 179 527 l 1
 301 331 l 1
 424 527 l 1
 521 527 l 1
 350 282 l 1
 544 0 l 1
 442 0 l 1
 297 226 l 1
 152 0 l 1
EndSplineSet
Validated: 1
EndChar

StartChar: y
Encoding: 121 121 251
Width: 600
GlyphClass: 2
Flags: W
HStem: -212 67<116.746 177.306> 507 20G<62 157.523 444.564 538>
LayerCount: 2
Fore
SplineSet
538 527 m 1
 354 -3 l 2
 317 -111 258 -197 118 -212 c 1
 106 -145 l 1
 214 -126 246 -81 273 0 c 1
 245 0 l 1
 62 527 l 1
 151 527 l 1
 302 64 l 1
 451 527 l 1
 538 527 l 1
EndSplineSet
Validated: 1
EndChar

StartChar: yacute
Encoding: 253 253 252
Width: 600
GlyphClass: 2
Flags: W
HStem: -212 67<116.746 177.306> 507 20G<62 157.523 444.564 538>
LayerCount: 2
Fore
SplineSet
384 797 m 1
 422 725 l 1
 213 640 l 1
 187 685 l 1
 384 797 l 1
538 527 m 1
 354 -3 l 2
 317 -111 258 -197 118 -212 c 1
 106 -145 l 1
 214 -126 246 -81 273 0 c 1
 245 0 l 1
 62 527 l 1
 151 527 l 1
 302 64 l 1
 451 527 l 1
 538 527 l 1
EndSplineSet
Validated: 1
EndChar

StartChar: ycircumflex
Encoding: 375 375 253
Width: 600
GlyphClass: 2
Flags: W
HStem: -212 67<116.746 177.306> 507 20G<62 157.523 444.564 538>
LayerCount: 2
Fore
SplineSet
177 629 m 1
 137 670 l 1
 272 789 l 1
 329 789 l 1
 463 670 l 1
 425 629 l 1
 301 720 l 1
 177 629 l 1
538 527 m 1
 354 -3 l 2
 317 -111 258 -197 118 -212 c 1
 106 -145 l 1
 214 -126 246 -81 273 0 c 1
 245 0 l 1
 62 527 l 1
 151 527 l 1
 302 64 l 1
 451 527 l 1
 538 527 l 1
EndSplineSet
Validated: 1
EndChar

StartChar: ydieresis
Encoding: 255 255 254
Width: 600
GlyphClass: 2
Flags: W
HStem: -212 67<116.746 177.306> 507 20G<62 157.523 444.564 538> 648 108<151.743 239.618 359.382 447.257>
VStem: 141 109<658.315 745.551> 349 109<658.315 745.551>
LayerCount: 2
Fore
SplineSet
196 648 m 0
 165 648 141 671 141 701 c 0
 141 733 165 756 196 756 c 0
 227 756 250 733 250 701 c 0
 250 671 227 648 196 648 c 0
403 648 m 0
 372 648 349 671 349 701 c 0
 349 733 372 756 403 756 c 0
 434 756 458 733 458 701 c 0
 458 671 434 648 403 648 c 0
538 527 m 1
 354 -3 l 2
 317 -111 258 -197 118 -212 c 1
 106 -145 l 1
 214 -126 246 -81 273 0 c 1
 245 0 l 1
 62 527 l 1
 151 527 l 1
 302 64 l 1
 451 527 l 1
 538 527 l 1
EndSplineSet
Validated: 1
EndChar

StartChar: ygrave
Encoding: 7923 7923 255
Width: 600
GlyphClass: 2
Flags: W
HStem: -212 67<116.746 177.306> 507 20G<62 157.523 444.564 538>
LayerCount: 2
Fore
SplineSet
387 622 m 1
 184 715 l 1
 230 787 l 1
 414 668 l 1
 387 622 l 1
538 527 m 1
 354 -3 l 2
 317 -111 258 -197 118 -212 c 1
 106 -145 l 1
 214 -126 246 -81 273 0 c 1
 245 0 l 1
 62 527 l 1
 151 527 l 1
 302 64 l 1
 451 527 l 1
 538 527 l 1
EndSplineSet
Validated: 1
EndChar

StartChar: z
Encoding: 122 122 256
Width: 600
GlyphClass: 2
Flags: W
HStem: 0 72<205 488> 453 74<125 394>
LayerCount: 2
Fore
SplineSet
205 72 m 5
 498 72 l 5
 488 0 l 5
 102 0 l 5
 102 64 l 5
 394 453 l 5
 125 453 l 5
 125 527 l 5
 495 527 l 5
 495 461 l 5
 205 72 l 5
EndSplineSet
Validated: 1
EndChar

StartChar: zacute
Encoding: 378 378 257
Width: 600
GlyphClass: 2
Flags: W
HStem: 0 72<205 488> 453 74<125 394>
LayerCount: 2
Fore
SplineSet
394 797 m 1
 432 725 l 1
 223 640 l 1
 197 685 l 1
 394 797 l 1
205 72 m 1
 498 72 l 1
 488 0 l 1
 102 0 l 1
 102 64 l 1
 394 453 l 1
 125 453 l 1
 125 527 l 1
 495 527 l 1
 495 461 l 1
 205 72 l 1
EndSplineSet
Validated: 1
EndChar

StartChar: zcaron
Encoding: 382 382 258
Width: 600
GlyphClass: 2
Flags: W
HStem: 0 72<205 488> 453 74<125 394>
LayerCount: 2
Fore
SplineSet
435 789 m 1
 473 748 l 1
 339 629 l 1
 282 629 l 1
 147 748 l 1
 187 789 l 1
 311 699 l 1
 435 789 l 1
205 72 m 1
 498 72 l 1
 488 0 l 1
 102 0 l 1
 102 64 l 1
 394 453 l 1
 125 453 l 1
 125 527 l 1
 495 527 l 1
 495 461 l 1
 205 72 l 1
EndSplineSet
Validated: 1
EndChar

StartChar: zdotaccent
Encoding: 380 380 259
Width: 600
GlyphClass: 2
Flags: W
HStem: 0 72<205 488> 453 74<125 394> 655 118<260.913 358.011>
VStem: 249 121<667.147 760.853>
LayerCount: 2
Fore
SplineSet
309 773 m 0
 346 773 370 748 370 714 c 0
 370 680 346 655 309 655 c 0
 273 655 249 680 249 714 c 0
 249 748 273 773 309 773 c 0
205 72 m 1
 498 72 l 1
 488 0 l 1
 102 0 l 1
 102 64 l 1
 394 453 l 1
 125 453 l 1
 125 527 l 1
 495 527 l 1
 495 461 l 1
 205 72 l 1
EndSplineSet
Validated: 1
EndChar

StartChar: fi
Encoding: 64257 64257 260
Width: 600
GlyphClass: 3
Flags: W
HStem: 0 67<314 407 492 586> 460 67<20 110 195 407> 680 69<223.782 425.912>
VStem: 110 85<0 460 527 649.227> 407 85<67 460>
LayerCount: 2
Fore
SplineSet
586 0 m 1
 314 0 l 1
 314 67 l 1
 407 67 l 1
 407 460 l 1
 195 460 l 1
 195 0 l 1
 110 0 l 1
 110 460 l 1
 20 460 l 1
 20 527 l 1
 110 527 l 1
 110 591 l 2
 110 688 196 749 305 749 c 0
 362 749 407 738 448 721 c 1
 421 658 l 1
 387 673 348 680 308 680 c 0
 233 680 195 651 195 593 c 2
 195 527 l 1
 492 527 l 1
 492 67 l 1
 586 67 l 1
 586 0 l 1
EndSplineSet
Validated: 1
EndChar

StartChar: fl
Encoding: 64258 64258 261
Width: 600
GlyphClass: 3
Flags: W
HStem: -11 70<480.602 583.399> 0 21G<105 190> 460 67<14 105 190 306> 680 69<218.63 387.309>
VStem: 105 85<0 460 527 649.227> 388 85<65.3062 674.354>
LayerCount: 2
Fore
SplineSet
601 10 m 1xbc
 577 -2 553 -11 512 -11 c 0xbc
 442 -11 388 27 388 117 c 2
 388 669 l 1
 361 677 332 680 304 680 c 0
 228 680 190 651 190 593 c 2
 190 527 l 1
 316 527 l 1
 306 460 l 1
 190 460 l 1
 190 0 l 1
 105 0 l 1x7c
 105 460 l 1
 14 460 l 1
 14 527 l 1
 105 527 l 1
 105 591 l 2
 105 688 190 749 300 749 c 0
 338 749 367 742 398 731 c 1
 473 747 l 1
 473 120 l 2
 473 73 492 59 524 59 c 0
 544 59 559 63 578 70 c 1
 601 10 l 1xbc
EndSplineSet
Validated: 1
EndChar

StartChar: ordfeminine
Encoding: 170 170 262
Width: 600
GlyphClass: 2
Flags: W
HStem: 0 75<106 498> 307 60<208.304 340.559 459.812 473.463> 520 57<217.88 378> 685 64<166.205 355.031>
VStem: 102 85<388.067 492.054> 378 78<400.268 520 577 661.014>
LayerCount: 2
Fore
SplineSet
290 749 m 0
 402 749 456 696 456 609 c 2
 456 412 l 2
 456 382 467 368 490 361 c 1
 471 307 l 1
 430 312 402 329 388 366 c 1
 355 328 305 307 254 307 c 0
 163 307 102 360 102 440 c 0
 102 528 183 577 319 577 c 2
 378 577 l 1
 378 606 l 2
 378 662 341 685 279 685 c 0
 250 685 205 678 157 660 c 1
 134 719 l 1
 193 741 245 749 290 749 c 0
378 520 m 1
 320 520 l 2
 226 520 187 492 187 444 c 0
 187 393 218 367 273 367 c 0
 313 367 352 388 378 423 c 1
 378 520 l 1
498 75 m 1
 498 0 l 1
 106 0 l 1
 106 75 l 1
 498 75 l 1
EndSplineSet
Validated: 1
EndChar

StartChar: ordmasculine
Encoding: 186 186 263
Width: 600
GlyphClass: 2
Flags: W
HStem: 0 75<104 497> 307 65<230.068 369.526> 685 64<230.262 369.913>
VStem: 96 84<426.852 629.473> 419 84<427.506 630.345>
LayerCount: 2
Fore
SplineSet
300 749 m 0
 425 749 503 663 503 529 c 0
 503 398 423 307 300 307 c 0
 176 307 96 395 96 529 c 0
 96 659 177 749 300 749 c 0
300 685 m 0
 227 685 180 635 180 529 c 0
 180 421 227 372 300 372 c 0
 373 372 419 421 419 529 c 0
 419 635 373 685 300 685 c 0
497 75 m 1
 497 0 l 1
 104 0 l 1
 104 75 l 1
 497 75 l 1
EndSplineSet
Validated: 1
EndChar

StartChar: uni207F
Encoding: 8319 8319 264
Width: 600
GlyphClass: 2
Flags: W
HStem: 666 57<263.911 354.161>
VStem: 168 71<378 642.058 676 716> 168 64<676 716> 362 71<378 660.695>
LayerCount: 2
Fore
SplineSet
332 723 m 4xb0
 403 723 433 685 433 620 c 6
 433 378 l 5
 362 378 l 5
 362 582 l 6
 362 642 356 666 315 666 c 4
 286 666 256 642 239 619 c 5
 239 378 l 5
 168 378 l 5
 168 716 l 5xd0
 232 716 l 5
 234 676 l 5
 261 709 300 723 332 723 c 4xb0
EndSplineSet
Validated: 1
EndChar

StartChar: uni052C
Encoding: 1324 1324 265
Width: 600
GlyphClass: 2
Flags: W
HStem: 0 73<177 440> 336 71<302 440> 614 75<327 440>
VStem: 53 69<-147 -73.5> 61 89<458.516 689> 440 87<73 336 407 614> 494 68<-147 -78.4>
LayerCount: 2
Fore
SplineSet
527 73 m 1xec
 562 73 l 1
 562 -147 l 1
 494 -147 l 1
 479 0 l 1
 136 0 l 1
 122 -147 l 1
 53 -147 l 1
 53 73 l 1xf2
 89 73 l 1
 125 110 168 190 200 346 c 1
 107 369 61 434 61 558 c 2
 61 689 l 1
 150 689 l 1
 150 562 l 2
 150 488 167 443 214 422 c 1
 223 488 l 1
 248 689 l 1
 527 689 l 1
 527 73 l 1xec
327 614 m 1
 312 484 l 2
 309 457 306 431 302 407 c 1
 440 407 l 1
 440 614 l 1xe4
 327 614 l 1
177 73 m 1
 440 73 l 1
 440 336 l 1
 296 336 l 1
 290 336 l 1
 259 177 218 116 177 73 c 1
EndSplineSet
Validated: 1
EndChar

StartChar: uni052A
Encoding: 1322 1322 266
Width: 600
GlyphClass: 2
Flags: W
HStem: 0 64<90 229> 323 72<302 353 426 452> 622 67<174 229>
VStem: -13 64<-147 -78.4> 229 73<64 323 395 622> 287 80<-64.3125 0> 303 64<-147 -82.6875> 353 73<64 323 395 689>
LayerCount: 2
Fore
SplineSet
515 362 m 1xf9
 612 0 l 1
 529 0 l 1
 452 323 l 1
 426 323 l 1
 426 0 l 1xf9
 367 0 l 1xf4
 367 -147 l 1
 303 -147 l 1xf2
 287 0 l 1xf4
 66 0 l 1
 51 -147 l 1
 -13 -147 l 1
 -13 64 l 1
 21 64 l 1
 44 129 70 195 86 435 c 2
 102 689 l 1
 302 689 l 1
 302 395 l 1
 353 395 l 1
 353 689 l 1
 426 689 l 1
 426 395 l 1
 453 395 l 1
 519 689 l 1
 591 689 l 1
 515 362 l 1xf9
229 64 m 1
 229 622 l 1
 174 622 l 1
 163 431 l 2
 152 210 129 129 90 64 c 1
 229 64 l 1
353 323 m 1
 302 323 l 1
 302 64 l 1
 353 64 l 1
 353 323 l 1
EndSplineSet
Validated: 1
EndChar

StartChar: uni052E
Encoding: 1326 1326 267
Width: 600
GlyphClass: 2
Flags: W
HStem: -11 21G<29.125 86> 614 75<233 399>
VStem: 399 87<73 614> 479 68<-147 -78.4>
LayerCount: 2
Fore
SplineSet
486 73 m 1xe0
 547 73 l 1
 547 -147 l 1
 479 -147 l 1xd0
 464 0 l 1
 399 0 l 1
 399 614 l 1
 233 614 l 1
 208 410 l 2
 170 91 131 50 41 -11 c 1
 3 53 l 1
 48 91 83 120 118 386 c 2
 157 689 l 1
 486 689 l 1
 486 73 l 1xe0
EndSplineSet
Validated: 1
EndChar

StartChar: uni0528
Encoding: 1320 1320 268
Width: 600
GlyphClass: 2
Flags: W
HStem: -212 70<-56.9659 68.2029> 0 21G<430 517> 327 71<170 430> 669 20G<83 170 430 517>
VStem: 83 87<-127.625 327 398 689> 430 87<0 327 398 689>
LayerCount: 2
Fore
SplineSet
430 689 m 1
 517 689 l 1
 517 0 l 1
 430 0 l 1
 430 327 l 1
 170 327 l 1
 170 -62 l 2
 170 -162 113 -212 25 -212 c 0
 -27 -212 -64 -193 -88 -175 c 1
 -54 -118 l 1
 -31 -133 -13 -142 21 -142 c 0
 61 -142 83 -118 83 -67 c 2
 83 689 l 1
 170 689 l 1
 170 398 l 1
 430 398 l 1
 430 689 l 1
EndSplineSet
Validated: 1
EndChar

StartChar: uni0410
Encoding: 1040 1040 269
Width: 600
GlyphClass: 2
Flags: W
HStem: 0 21G<20 112.25 482.75 579> 176 72<184 411> 669 20G<238.469 361.502>
LayerCount: 2
Fore
SplineSet
434 176 m 1
 161 176 l 1
 106 0 l 1
 20 0 l 1
 245 689 l 1
 355 689 l 1
 579 0 l 1
 489 0 l 1
 434 176 l 1
184 248 m 1
 411 248 l 1
 298 615 l 1
 184 248 l 1
EndSplineSet
Validated: 1
EndChar

StartChar: uni0411
Encoding: 1041 1041 270
Width: 600
GlyphClass: 2
Flags: W
HStem: 0 70<187 392.97> 352 69<187 385.906> 616 73<187 477>
VStem: 101 86<70 352 421 616> 452 90<125.512 293.236>
LayerCount: 2
Fore
SplineSet
485 689 m 5
 477 616 l 5
 187 616 l 5
 187 421 l 5
 274 421 l 6
 440 421 542 359 542 215 c 4
 542 57 431 0 275 0 c 6
 101 0 l 5
 101 689 l 5
 485 689 l 5
287 352 m 6
 187 352 l 5
 187 70 l 5
 286 70 l 6
 381 70 452 97 452 214 c 4
 452 315 382 352 287 352 c 6
EndSplineSet
Validated: 1
EndChar

StartChar: uni0412
Encoding: 1042 1042 271
Width: 600
GlyphClass: 2
Flags: W
HStem: 0 72<183 392.194> 324 72<183 379.294> 618 71<183 376.209>
VStem: 96 87<72 324 396 618> 421 89<435.871 577.64> 448 92<120.975 274.564>
LayerCount: 2
Fore
SplineSet
540 196 m 0xf4
 540 46 408 0 282 0 c 2
 96 0 l 1
 96 689 l 1
 266 689 l 2
 387 689 510 650 510 515 c 0xf8
 510 426 447 380 381 365 c 1
 458 352 540 313 540 196 c 0xf4
421 510 m 0
 421 589 369 618 286 618 c 2
 183 618 l 1
 183 396 l 1
 294 396 l 2
 375 396 421 430 421 510 c 0
448 193 m 0xf4
 448 298 381 324 300 324 c 2
 183 324 l 1
 183 72 l 1
 297 72 l 2
 364 72 448 91 448 193 c 0xf4
EndSplineSet
Validated: 1
EndChar

StartChar: uni0413
Encoding: 1043 1043 272
Width: 600
GlyphClass: 2
Flags: W
HStem: 0 21G<136 223> 612 77<223 535>
VStem: 136 87<0 612>
LayerCount: 2
Fore
SplineSet
544 689 m 5
 535 612 l 5
 223 612 l 5
 223 0 l 5
 136 0 l 5
 136 689 l 5
 544 689 l 5
EndSplineSet
Validated: 1
EndChar

StartChar: uni0403
Encoding: 1027 1027 273
Width: 600
GlyphClass: 2
Flags: W
HStem: 0 21G<136 223> 612 77<223 535>
VStem: 136 87<0 612>
LayerCount: 2
Fore
SplineSet
432 906 m 1
 469 834 l 1
 256 755 l 1
 234 801 l 1
 432 906 l 1
544 689 m 1
 535 612 l 1
 223 612 l 1
 223 0 l 1
 136 0 l 1
 136 689 l 1
 544 689 l 1
EndSplineSet
Validated: 1
EndChar

StartChar: uni0490
Encoding: 1168 1168 274
Width: 600
GlyphClass: 2
Flags: W
HStem: 0 21G<136 223> 612 77<223 460>
VStem: 136 87<0 612> 460 84<689 835>
LayerCount: 2
Fore
SplineSet
460 835 m 1
 544 835 l 1
 544 689 l 1
 535 612 l 1
 223 612 l 1
 223 0 l 1
 136 0 l 1
 136 689 l 1
 460 689 l 1
 460 835 l 1
EndSplineSet
Validated: 1
EndChar

StartChar: uni0414
Encoding: 1044 1044 275
Width: 600
GlyphClass: 2
Flags: W
HStem: 0 73<127 426> 615 74<245 426>
VStem: 0 69<-147 -73.5> 426 88<73 615> 496 69<-147 -78.4>
LayerCount: 2
Fore
SplineSet
514 73 m 1xf0
 565 73 l 1
 565 -147 l 1
 496 -147 l 1xe8
 481 0 l 1
 460 0 l 1
 105 0 l 1
 83 0 l 1
 69 -147 l 1
 0 -147 l 1
 0 73 l 1
 43 73 l 1
 98 127 104 197 143 491 c 2
 168 689 l 1
 514 689 l 1
 514 73 l 1xf0
426 73 m 1xf0
 426 615 l 1
 245 615 l 1
 230 485 l 2
 197 207 187 128 127 73 c 1
 426 73 l 1xf0
EndSplineSet
Validated: 1
EndChar

StartChar: uni0415
Encoding: 1045 1045 276
Width: 600
GlyphClass: 2
Flags: W
HStem: 0 70<212 526> 314 71<212 468> 617 72<212 507>
VStem: 126 86<70 314 385 617>
LayerCount: 2
Fore
SplineSet
212 617 m 1
 212 385 l 1
 468 385 l 1
 468 314 l 1
 212 314 l 1
 212 70 l 1
 526 70 l 1
 526 0 l 1
 126 0 l 1
 126 689 l 1
 517 689 l 1
 507 617 l 1
 212 617 l 1
EndSplineSet
Validated: 1
EndChar

StartChar: uni0400
Encoding: 1024 1024 277
Width: 600
GlyphClass: 2
Flags: W
HStem: 0 70<212 526> 314 71<212 468> 617 72<212 507>
VStem: 126 86<70 314 385 617>
LayerCount: 2
Fore
SplineSet
252 909 m 1
 437 801 l 1
 411 755 l 1
 206 837 l 1
 252 909 l 1
212 617 m 1
 212 385 l 1
 468 385 l 1
 468 314 l 1
 212 314 l 1
 212 70 l 1
 526 70 l 1
 526 0 l 1
 126 0 l 1
 126 689 l 1
 517 689 l 1
 507 617 l 1
 212 617 l 1
EndSplineSet
Validated: 1
EndChar

StartChar: uni0401
Encoding: 1025 1025 278
Width: 600
GlyphClass: 2
Flags: W
HStem: 0 70<212 526> 314 71<212 468> 617 72<212 507> 767 108<172.743 260.618 380.382 468.257>
VStem: 126 86<70 314 385 617> 162 109<777.315 864.551> 370 109<777.315 864.551>
LayerCount: 2
Fore
SplineSet
217 767 m 0xf6
 186 767 162 790 162 820 c 0
 162 852 186 875 217 875 c 0
 248 875 271 852 271 820 c 0
 271 790 248 767 217 767 c 0xf6
424 767 m 0
 393 767 370 790 370 820 c 0
 370 852 393 875 424 875 c 0
 455 875 479 852 479 820 c 0
 479 790 455 767 424 767 c 0
212 617 m 1xfa
 212 385 l 1
 468 385 l 1
 468 314 l 1
 212 314 l 1
 212 70 l 1
 526 70 l 1
 526 0 l 1
 126 0 l 1
 126 689 l 1
 517 689 l 1
 507 617 l 1
 212 617 l 1xfa
EndSplineSet
Validated: 1
EndChar

StartChar: uni0416
Encoding: 1046 1046 279
Width: 600
GlyphClass: 2
Flags: W
HStem: 0 21G<12 102.361 261 339 495.7 588> 327 71<201 261 339 399> 669 20G<27 116.254 261 339 484.677 573>
VStem: 261 78<0 327 398 689>
LayerCount: 2
Fore
SplineSet
261 327 m 1
 200 327 l 1
 96 0 l 1
 12 0 l 1
 135 364 l 1
 27 689 l 1
 110 689 l 1
 201 398 l 1
 261 398 l 1
 261 689 l 1
 339 689 l 1
 339 398 l 1
 399 398 l 1
 491 689 l 1
 573 689 l 1
 465 364 l 1
 588 0 l 1
 502 0 l 1
 399 327 l 1
 339 327 l 1
 339 0 l 1
 261 0 l 1
 261 327 l 1
EndSplineSet
Validated: 1
EndChar

StartChar: uni0417
Encoding: 1047 1047 280
Width: 600
GlyphClass: 2
Flags: W
HStem: -11 73<170.19 377.035> 333 73<175 374.141> 629 71<171.003 374.447>
VStem: 428 89<454.402 580.88> 447 94<124.482 275.547>
LayerCount: 2
Fore
SplineSet
281 700 m 0xf0
 427 700 517 626 517 520 c 0xf0
 517 435 453 386 375 375 c 1
 461 367 541 311 541 205 c 0
 541 81 440 -11 278 -11 c 0
 181 -11 95 23 35 86 c 1
 89 135 l 1
 142 88 205 62 278 62 c 0
 386 62 447 115 447 202 c 0xe8
 447 294 378 333 286 333 c 2
 165 333 l 1
 175 406 l 1
 280 406 l 2
 356 406 428 439 428 519 c 0
 428 592 364 629 279 629 c 0
 203 629 149 603 97 563 c 1
 49 614 l 1
 117 671 191 700 281 700 c 0xf0
EndSplineSet
Validated: 1
EndChar

StartChar: uni0418
Encoding: 1048 1048 281
Width: 600
GlyphClass: 2
Flags: W
HStem: 0 21G<83 205.185 431 517> 669 20G<83 169 396.83 517>
VStem: 83 86<87.6283 689> 431 86<0 600.106>
LayerCount: 2
Fore
SplineSet
83 0 m 1
 83 689 l 1
 169 689 l 1
 169 340 l 2
 169 219 164 153 155 77 c 1
 405 689 l 1
 517 689 l 1
 517 0 l 1
 431 0 l 1
 431 349 l 2
 431 454 438 544 445 606 c 1
 197 0 l 1
 83 0 l 1
EndSplineSet
Validated: 1
EndChar

StartChar: uni0419
Encoding: 1049 1049 282
Width: 600
GlyphClass: 2
Flags: W
HStem: 0 21G<83 205.185 431 517> 669 20G<83 169 396.83 517> 773 65<231.258 366.453>
VStem: 83 86<87.6283 689> 151 57<862.274 886.596> 391 58<862.274 886.569> 431 86<0 600.106>
LayerCount: 2
Fore
SplineSet
298 773 m 0xec
 222 773 159 812 151 885 c 1
 208 898 l 1
 223 854 251 838 298 838 c 0
 345 838 376 854 391 898 c 1
 449 885 l 1
 441 812 375 773 298 773 c 0xec
83 0 m 1xf2
 83 689 l 1
 169 689 l 1
 169 340 l 2
 169 219 164 153 155 77 c 1
 405 689 l 1
 517 689 l 1
 517 0 l 1
 431 0 l 1
 431 349 l 2
 431 454 438 544 445 606 c 1
 197 0 l 1
 83 0 l 1xf2
EndSplineSet
Validated: 1
EndChar

StartChar: uni040D
Encoding: 1037 1037 283
Width: 600
GlyphClass: 2
Flags: W
HStem: 0 21G<83 205.185 431 517> 669 20G<83 169 396.83 517>
VStem: 83 86<87.6283 689> 431 86<0 600.106>
LayerCount: 2
Fore
SplineSet
231 909 m 1
 416 801 l 1
 390 755 l 1
 185 837 l 1
 231 909 l 1
83 0 m 1
 83 689 l 1
 169 689 l 1
 169 340 l 2
 169 219 164 153 155 77 c 1
 405 689 l 1
 517 689 l 1
 517 0 l 1
 431 0 l 1
 431 349 l 2
 431 454 438 544 445 606 c 1
 197 0 l 1
 83 0 l 1
EndSplineSet
Validated: 1
EndChar

StartChar: uni048A
Encoding: 1162 1162 284
Width: 600
GlyphClass: 2
Flags: W
HStem: 0 21G<83 205.185> 669 20G<83 169 396.83 517> 773 65<231.258 366.453>
VStem: 83 86<87.6283 689> 151 57<862.274 886.596> 391 58<862.274 886.569> 431 86<69 600.106>
LayerCount: 2
Fore
SplineSet
298 773 m 0xec
 222 773 159 812 151 885 c 1
 208 898 l 1
 223 854 251 838 298 838 c 0
 345 838 376 854 391 898 c 1
 449 885 l 1
 441 812 375 773 298 773 c 0xec
517 69 m 1xf2
 607 69 l 1
 529 -147 l 1
 461 -147 l 1
 496 0 l 1
 431 0 l 1
 431 349 l 2
 431 454 438 544 445 606 c 1
 197 0 l 1
 83 0 l 1
 83 689 l 1
 169 689 l 1
 169 340 l 2
 169 219 164 153 155 77 c 1
 405 689 l 1
 517 689 l 1
 517 69 l 1xf2
EndSplineSet
Validated: 1
EndChar

StartChar: uni041A
Encoding: 1050 1050 285
Width: 600
GlyphClass: 2
Flags: W
HStem: 0 21G<95 181 468.442 587> 326 73<181 261> 669 20G<95 181 459.379 568>
VStem: 95 86<0 326 399 689>
LayerCount: 2
Fore
SplineSet
261 326 m 1
 181 326 l 1
 181 0 l 1
 95 0 l 1
 95 689 l 1
 181 689 l 1
 181 399 l 1
 262 399 l 1
 474 689 l 1
 568 689 l 1
 336 364 l 1
 587 0 l 1
 482 0 l 1
 261 326 l 1
EndSplineSet
Validated: 1
EndChar

StartChar: uni040C
Encoding: 1036 1036 286
Width: 600
GlyphClass: 2
Flags: W
HStem: 0 21G<95 181 468.442 587> 326 73<181 261> 669 20G<95 181 459.379 568>
VStem: 95 86<0 326 399 689>
LayerCount: 2
Fore
SplineSet
402 906 m 1
 439 834 l 1
 226 755 l 1
 204 801 l 1
 402 906 l 1
261 326 m 1
 181 326 l 1
 181 0 l 1
 95 0 l 1
 95 689 l 1
 181 689 l 1
 181 399 l 1
 262 399 l 1
 474 689 l 1
 568 689 l 1
 336 364 l 1
 587 0 l 1
 482 0 l 1
 261 326 l 1
EndSplineSet
Validated: 1
EndChar

StartChar: uni041B
Encoding: 1051 1051 287
Width: 600
GlyphClass: 2
Flags: W
HStem: 0 21G<41.125 98 430 517> 614 75<245 430>
VStem: 430 87<0 614>
LayerCount: 2
Fore
SplineSet
517 689 m 1
 517 0 l 1
 430 0 l 1
 430 614 l 1
 245 614 l 1
 220 410 l 2
 181 91 143 50 53 -11 c 1
 15 53 l 1
 60 91 95 120 130 386 c 2
 169 689 l 1
 517 689 l 1
EndSplineSet
Validated: 1
EndChar

StartChar: uni041C
Encoding: 1052 1052 288
Width: 600
GlyphClass: 2
Flags: W
HStem: 0 21G<30 113 484.833 570> 669 20G<67.8679 194.746 404.466 532.132>
VStem: 30 82<0 123.667>
LayerCount: 2
Fore
SplineSet
531 689 m 1
 570 0 l 1
 486 0 l 1
 465 360 l 2
 459 455 459 575 459 609 c 1
 343 124 l 1
 256 124 l 1
 132 609 l 1
 133 591 134 555 134 513 c 0
 134 464 133 406 130 360 c 2
 112 0 l 1
 30 0 l 1
 69 689 l 1
 190 689 l 1
 302 217 l 1
 409 689 l 1
 531 689 l 1
EndSplineSet
Validated: 1
EndChar

StartChar: uni041D
Encoding: 1053 1053 289
Width: 600
GlyphClass: 2
Flags: W
HStem: 0 21G<83 170 430 517> 327 71<170 430> 669 20G<83 170 430 517>
VStem: 83 87<0 327 398 689> 430 87<0 327 398 689>
LayerCount: 2
Fore
SplineSet
430 0 m 1
 430 327 l 1
 170 327 l 1
 170 0 l 1
 83 0 l 1
 83 689 l 1
 170 689 l 1
 170 398 l 1
 430 398 l 1
 430 689 l 1
 517 689 l 1
 517 0 l 1
 430 0 l 1
EndSplineSet
Validated: 1
EndChar

StartChar: uni041E
Encoding: 1054 1054 290
Width: 600
GlyphClass: 2
Flags: W
HStem: -11 73<222.07 378.575> 627 73<221.425 378.575>
VStem: 47 90<180.35 505.07> 463 90<181.978 506.698>
LayerCount: 2
Fore
SplineSet
553 344 m 4
 553 135 467 -11 300 -11 c 4
 133 -11 47 130 47 343 c 4
 47 551 133 700 300 700 c 4
 467 700 553 556 553 344 c 4
463 344 m 4
 463 527 416 627 300 627 c 4
 184 627 137 526 137 343 c 4
 137 159 187 62 300 62 c 4
 416 62 463 160 463 344 c 4
EndSplineSet
Validated: 1
EndChar

StartChar: uni041F
Encoding: 1055 1055 291
Width: 600
GlyphClass: 2
Flags: W
HStem: 0 21G<83 170 430 517> 613 76<170 430>
VStem: 83 87<0 613> 430 87<0 613>
LayerCount: 2
Fore
SplineSet
430 0 m 1
 430 613 l 1
 170 613 l 1
 170 0 l 1
 83 0 l 1
 83 689 l 1
 517 689 l 1
 517 0 l 1
 430 0 l 1
EndSplineSet
Validated: 1
EndChar

StartChar: uni0420
Encoding: 1056 1056 292
Width: 600
GlyphClass: 2
Flags: W
HStem: 0 21G<116 202> 256 69<202 397.953> 620 69<202 400.444>
VStem: 116 86<0 256 325 620> 464 93<385.438 560.057>
LayerCount: 2
Fore
SplineSet
557 477 m 4
 557 316 446 256 291 256 c 6
 202 256 l 5
 202 0 l 5
 116 0 l 5
 116 689 l 5
 291 689 l 6
 456 689 557 621 557 477 c 4
464 476 m 4
 464 582 395 620 302 620 c 6
 202 620 l 5
 202 325 l 5
 299 325 l 6
 394 325 464 358 464 476 c 4
EndSplineSet
Validated: 1
EndChar

StartChar: uni0421
Encoding: 1057 1057 293
Width: 600
GlyphClass: 2
Flags: W
HStem: -11 74<269.371 466.779> 627 73<270.941 463.201>
VStem: 63 91<200.575 490.445>
LayerCount: 2
Fore
SplineSet
358 700 m 0
 448 700 503 676 558 633 c 1
 509 576 l 1
 465 613 417 627 364 627 c 0
 252 627 154 555 154 345 c 0
 154 140 245 63 363 63 c 0
 440 63 486 91 523 120 c 1
 568 64 l 1
 526 23 460 -11 362 -11 c 0
 194 -11 63 113 63 345 c 0
 63 577 199 700 358 700 c 0
EndSplineSet
Validated: 1
EndChar

StartChar: uni0422
Encoding: 1058 1058 294
Width: 600
GlyphClass: 2
Flags: W
HStem: 0 21G<255 342> 614 75<40 255 342 550>
VStem: 255 87<0 614>
LayerCount: 2
Fore
SplineSet
342 614 m 1
 342 0 l 1
 255 0 l 1
 255 614 l 1
 40 614 l 1
 40 689 l 1
 559 689 l 1
 550 614 l 1
 342 614 l 1
EndSplineSet
Validated: 1
EndChar

StartChar: uni0423
Encoding: 1059 1059 295
Width: 600
GlyphClass: 2
Flags: W
HStem: -11 69<120.681 194.611> 669 20G<26 125.849 484.874 580>
LayerCount: 2
Fore
SplineSet
580 689 m 1
 369 180 l 2
 322 66 267 7 122 -11 c 1
 109 58 l 1
 231 76 263 113 291 190 c 1
 254 190 l 1
 26 689 l 1
 117 689 l 1
 313 246 l 1
 493 689 l 1
 580 689 l 1
EndSplineSet
Validated: 1
EndChar

StartChar: uni040E
Encoding: 1038 1038 296
Width: 600
GlyphClass: 2
Flags: W
HStem: -11 69<120.681 194.611> 669 20G<26 125.849 484.874 580> 759 65<247.34 370.237>
VStem: 161 57<855.041 879.596> 401 58<855.041 879.569>
LayerCount: 2
Fore
SplineSet
308 759 m 0
 232 759 168 805 161 878 c 1
 218 891 l 1
 233 851 261 824 308 824 c 0
 355 824 387 851 401 891 c 1
 459 878 l 1
 451 805 385 759 308 759 c 0
580 689 m 1
 369 180 l 2
 322 66 267 7 122 -11 c 1
 109 58 l 1
 231 76 263 113 291 190 c 1
 254 190 l 1
 26 689 l 1
 117 689 l 1
 313 246 l 1
 493 689 l 1
 580 689 l 1
EndSplineSet
Validated: 1
EndChar

StartChar: uni0424
Encoding: 1060 1060 297
Width: 600
GlyphClass: 2
Flags: W
HStem: 31 64<189.199 258 342 410.468>
VStem: 13 88<196.335 497.976> 258 84<-29 31 95 595 657.608 718> 499 88<196.638 497.976>
CounterMasks: 1 70
LayerCount: 2
Fore
SplineSet
342 718 m 1
 342 659 l 1
 509 647 587 544 587 347 c 0
 587 142 499 39 342 31 c 1
 342 -29 l 1
 258 -29 l 1
 258 31 l 1
 100 38 13 141 13 347 c 0
 13 544 91 647 258 659 c 1
 258 718 l 1
 342 718 l 1
259 595 m 1
 152 591 101 526 101 347 c 0
 101 177 148 105 259 95 c 1
 259 595 l 1
341 595 m 1
 341 95 l 1
 452 105 499 177 499 347 c 0
 499 526 448 591 341 595 c 1
EndSplineSet
Validated: 1
EndChar

StartChar: uni0425
Encoding: 1061 1061 298
Width: 600
GlyphClass: 2
Flags: W
HStem: 0 21G<31 135.19 458.003 569> 669 20G<49 160.396 440.528 545>
LayerCount: 2
Fore
SplineSet
49 689 m 1
 149 689 l 1
 300 424 l 1
 452 689 l 1
 545 689 l 1
 350 372 l 1
 569 0 l 1
 469 0 l 1
 298 311 l 1
 124 0 l 1
 31 0 l 1
 247 367 l 1
 49 689 l 1
EndSplineSet
Validated: 1
EndChar

StartChar: uni0427
Encoding: 1063 1063 299
Width: 600
GlyphClass: 2
Flags: W
HStem: 0 21G<430 517> 219 76<187.466 361.352> 669 20G<51 137 430 517>
VStem: 51 86<348.318 689> 430 87<0 282 337.745 689>
LayerCount: 2
Fore
SplineSet
430 689 m 1
 517 689 l 1
 517 0 l 1
 430 0 l 1
 430 282 l 1
 371 238 324 219 251 219 c 0
 131 219 51 299 51 423 c 2
 51 689 l 1
 137 689 l 1
 137 430 l 2
 137 337 187 295 273 295 c 0
 346 295 396 322 430 356 c 1
 430 689 l 1
EndSplineSet
Validated: 1
EndChar

StartChar: uni0426
Encoding: 1062 1062 300
Width: 600
GlyphClass: 2
Flags: W
HStem: 0 72<170 430> 669 20G<83 170 430 517>
VStem: 83 87<72 689> 430 87<73 689> 509 69<-147 -73.5>
LayerCount: 2
Fore
SplineSet
517 73 m 1xf0
 578 73 l 1
 578 -147 l 1
 509 -147 l 1xe8
 495 0 l 1
 83 0 l 1
 83 689 l 1
 170 689 l 1
 170 72 l 1
 430 72 l 1
 430 689 l 1
 517 689 l 1
 517 73 l 1xf0
EndSplineSet
Validated: 1
EndChar

StartChar: uni0428
Encoding: 1064 1064 301
Width: 600
GlyphClass: 2
Flags: W
HStem: 0 73<128 261 339 472> 669 20G<46 128 261 339 472 554>
VStem: 46 82<73 689> 261 78<73 689> 472 82<73 689>
CounterMasks: 1 38
LayerCount: 2
Fore
SplineSet
554 689 m 1
 554 0 l 1
 46 0 l 1
 46 689 l 1
 128 689 l 1
 128 73 l 1
 261 73 l 1
 261 689 l 1
 339 689 l 1
 339 73 l 1
 472 73 l 1
 472 689 l 1
 554 689 l 1
EndSplineSet
Validated: 1
EndChar

StartChar: uni0429
Encoding: 1065 1065 302
Width: 600
GlyphClass: 2
Flags: W
HStem: 0 73<128 261 339 472> 669 20G<46 128 261 339 472 554>
VStem: 46 82<73 689> 261 78<73 689> 472 82<73 689> 546 69<-147 -73.5>
LayerCount: 2
Fore
SplineSet
554 73 m 1xf8
 615 73 l 1
 615 -147 l 1
 546 -147 l 1xf4
 532 0 l 1
 46 0 l 1
 46 689 l 1
 128 689 l 1
 128 73 l 1
 261 73 l 1
 261 689 l 1
 339 689 l 1
 339 73 l 1
 472 73 l 1
 472 689 l 1
 554 689 l 1
 554 73 l 1xf8
EndSplineSet
Validated: 1
EndChar

StartChar: uni040F
Encoding: 1039 1039 303
Width: 600
GlyphClass: 2
Flags: W
HStem: 0 72<170 259 342 430> 669 20G<83 170 430 517>
VStem: 83 87<72 689> 259 83<-73.5 0> 273 69<-147 -73.5> 430 87<72 689>
LayerCount: 2
Fore
SplineSet
517 689 m 1xec
 517 0 l 1
 342 0 l 1xf4
 342 -147 l 1
 273 -147 l 1xec
 259 0 l 1xf4
 83 0 l 1
 83 689 l 1
 170 689 l 1
 170 72 l 1
 243 72 l 1
 243 73 l 1
 342 73 l 1
 342 72 l 1
 430 72 l 1
 430 689 l 1
 517 689 l 1xec
EndSplineSet
Validated: 1
EndChar

StartChar: uni042C
Encoding: 1068 1068 304
Width: 600
GlyphClass: 2
Flags: W
HStem: 0 71<181 398.343> 364 69<181 395.014> 669 20G<94 181>
VStem: 94 87<71 364 433 689> 459 92<129.224 302.614>
LayerCount: 2
Fore
SplineSet
181 689 m 1
 181 433 l 1
 285 433 l 2
 450 433 551 370 551 221 c 0
 551 61 440 0 286 0 c 2
 94 0 l 1
 94 689 l 1
 181 689 l 1
297 364 m 2
 181 364 l 1
 181 71 l 1
 296 71 l 2
 389 71 459 99 459 220 c 0
 459 327 389 364 297 364 c 2
EndSplineSet
Validated: 1
EndChar

StartChar: uni042A
Encoding: 1066 1066 305
Width: 600
GlyphClass: 2
Flags: W
HStem: 0 71<209 433.869> 364 69<209 426.172> 612 77<0 121>
VStem: 121 88<71 364 433 612> 491 90<129.224 302.614>
LayerCount: 2
Fore
SplineSet
209 689 m 5
 209 433 l 5
 315 433 l 6
 480 433 581 370 581 221 c 4
 581 61 471 0 316 0 c 6
 121 0 l 5
 121 612 l 5
 0 612 l 5
 0 689 l 5
 209 689 l 5
329 364 m 6
 209 364 l 5
 209 71 l 5
 331 71 l 6
 422 71 491 99 491 220 c 4
 491 327 421 364 329 364 c 6
EndSplineSet
Validated: 1
EndChar

StartChar: uni042B
Encoding: 1067 1067 306
Width: 600
GlyphClass: 2
Flags: W
HStem: 0 69<119 282.502> 367 66<119 279.701> 669 20G<31 119 481 569>
VStem: 31 88<69 367 433 689> 338 92<123.966 308.041> 481 88<0 689>
LayerCount: 2
Fore
SplineSet
119 689 m 5
 119 433 l 5
 182 433 l 6
 350 433 430 358 430 221 c 4
 430 72 340 0 184 0 c 6
 31 0 l 5
 31 689 l 5
 119 689 l 5
569 689 m 5
 569 0 l 5
 481 0 l 5
 481 689 l 5
 569 689 l 5
191 367 m 6
 119 367 l 5
 119 69 l 5
 193 69 l 6
 286 69 338 111 338 220 c 4
 338 317 289 367 191 367 c 6
EndSplineSet
Validated: 1
EndChar

StartChar: uni0409
Encoding: 1033 1033 307
Width: 600
GlyphClass: 2
Flags: W
HStem: -11 21G<30.5614 75.5> 0 70<355 461.625> 366 67<355 456.248> 617 72<175 269>
VStem: 269 86<70 366 433 617> 510 90<119.589 316.284>
LayerCount: 2
Fore
SplineSet
355 689 m 1xbc
 355 433 l 1
 518 433 600 368 600 221 c 0
 600 63 509 0 363 0 c 2
 269 0 l 1x7c
 269 617 l 1
 175 617 l 1
 152 311 l 2
 133 66 105 34 46 -11 c 1
 2 46 l 1
 32 80 53 117 69 313 c 2
 99 689 l 1
 355 689 l 1xbc
371 366 m 2
 355 366 l 1
 355 70 l 1
 370 70 l 2
 459 70 510 99 510 220 c 0
 510 328 461 366 371 366 c 2
EndSplineSet
Validated: 1
EndChar

StartChar: uni040A
Encoding: 1034 1034 308
Width: 600
GlyphClass: 2
Flags: W
HStem: 0 68<354 466.102> 349 65<127 269 354 462.03> 669 20G<41 127 269 354>
VStem: 41 86<0 349 414 689> 269 85<68 349 414 689> 509 91<113.261 302.801>
LayerCount: 2
Fore
SplineSet
354 689 m 1
 354 414 l 1
 519 414 600 352 600 212 c 0
 600 56 508 0 363 0 c 2
 269 0 l 1
 269 349 l 1
 127 349 l 1
 127 0 l 1
 41 0 l 1
 41 689 l 1
 127 689 l 1
 127 414 l 1
 269 414 l 1
 269 689 l 1
 354 689 l 1
371 349 m 2
 354 349 l 1
 354 68 l 1
 371 68 l 2
 459 68 509 92 509 211 c 0
 509 315 461 349 371 349 c 2
EndSplineSet
Validated: 1
EndChar

StartChar: uni0405
Encoding: 1029 1029 309
Width: 600
GlyphClass: 2
Flags: W
HStem: -11 72<174.691 379.921> 627 73<210.682 402.358>
VStem: 74 88<469.843 585.532> 446 91<119.664 257.181>
LayerCount: 2
Fore
SplineSet
537 191 m 4
 537 72 445 -11 285 -11 c 4
 184 -11 101 20 43 76 c 5
 95 135 l 5
 143 90 202 61 286 61 c 4
 370 61 446 102 446 189 c 4
 446 256 414 289 296 323 c 4
 159 363 74 413 74 522 c 4
 74 626 165 700 297 700 c 4
 391 700 459 671 517 621 c 5
 465 565 l 5
 416 608 358 627 300 627 c 4
 224 627 162 594 162 525 c 4
 162 466 204 436 335 398 c 4
 443 367 537 322 537 191 c 4
EndSplineSet
Validated: 1
EndChar

StartChar: uni0404
Encoding: 1028 1028 310
Width: 600
GlyphClass: 2
Flags: W
HStem: -11 72<263.725 458.546> 318 72<149 454> 629 71<265.822 459.931>
VStem: 58 89<201.062 318 390 489.802>
LayerCount: 2
Fore
SplineSet
352 700 m 0
 441 700 499 675 552 633 c 1
 507 580 l 1
 461 613 411 629 358 629 c 0
 253 629 163 566 149 390 c 1
 454 390 l 1
 454 318 l 1
 147 318 l 1
 155 136 245 61 357 61 c 0
 434 61 483 91 516 121 c 1
 562 64 l 1
 520 25 453 -11 354 -11 c 0
 182 -11 58 113 58 345 c 0
 58 577 193 700 352 700 c 0
EndSplineSet
Validated: 1
EndChar

StartChar: uni042D
Encoding: 1069 1069 311
Width: 600
GlyphClass: 2
Flags: W
HStem: -11 72<157.12 345.604> 317 74<146 449> 629 71<164.299 354.675>
VStem: 449 90<190.925 317 391 512.296>
LayerCount: 2
Fore
SplineSet
269 700 m 0
 434 700 539 586 539 353 c 0
 539 113 431 -11 261 -11 c 0
 170 -11 93 24 42 77 c 1
 94 126 l 1
 142 83 191 61 256 61 c 0
 376 61 441 141 449 317 c 1
 146 317 l 1
 146 391 l 1
 449 391 l 1
 440 564 374 629 265 629 c 0
 188 629 139 598 98 564 c 1
 50 615 l 1
 102 660 171 700 269 700 c 0
EndSplineSet
Validated: 1
EndChar

StartChar: uni0406
Encoding: 1030 1030 312
Width: 600
GlyphClass: 2
Flags: W
HStem: 0 69<103 256 344 497> 619 70<103 256 344 497>
VStem: 256 88<69 619>
LayerCount: 2
Fore
SplineSet
497 689 m 1
 497 619 l 1
 344 619 l 1
 344 69 l 1
 497 69 l 1
 497 0 l 1
 103 0 l 1
 103 69 l 1
 256 69 l 1
 256 619 l 1
 103 619 l 1
 103 689 l 1
 497 689 l 1
EndSplineSet
Validated: 1
EndChar

StartChar: uni0407
Encoding: 1031 1031 313
Width: 600
GlyphClass: 2
Flags: W
HStem: 0 69<103 256 344 497> 619 70<103 256 344 497> 767 108<151.743 239.618 359.382 447.257>
VStem: 141 109<777.315 864.551> 256 88<69 619> 349 109<777.315 864.551>
LayerCount: 2
Fore
SplineSet
196 767 m 0
 165 767 141 790 141 820 c 0
 141 852 165 875 196 875 c 0
 227 875 250 852 250 820 c 0
 250 790 227 767 196 767 c 0
403 767 m 0
 372 767 349 790 349 820 c 0
 349 852 372 875 403 875 c 0
 434 875 458 852 458 820 c 0
 458 790 434 767 403 767 c 0
497 689 m 1
 497 619 l 1
 344 619 l 1
 344 69 l 1
 497 69 l 1
 497 0 l 1
 103 0 l 1
 103 69 l 1
 256 69 l 1
 256 619 l 1
 103 619 l 1
 103 689 l 1
 497 689 l 1
EndSplineSet
Validated: 1
EndChar

StartChar: uni0408
Encoding: 1032 1032 314
Width: 600
GlyphClass: 2
Flags: W
HStem: -12 73<158.882 338.865> 618 71<206 410>
VStem: 410 87<134.981 618>
LayerCount: 2
Fore
SplineSet
497 689 m 1
 497 229 l 2
 497 114 443 -12 261 -12 c 0
 194 -12 127 10 73 51 c 1
 111 108 l 1
 170 71 220 61 260 61 c 0
 356 61 410 126 410 233 c 2
 410 618 l 1
 206 618 l 1
 206 689 l 1
 497 689 l 1
EndSplineSet
Validated: 1
EndChar

StartChar: uni040B
Encoding: 1035 1035 315
Width: 600
GlyphClass: 2
Flags: W
HStem: 0 21G<157 244 480 566> 374 76<296.997 445.096> 616 73<-5 157 244 404>
VStem: 157 87<0 339.406 390 616> 480 86<0 333.984>
LayerCount: 2
Fore
SplineSet
413 689 m 1
 404 616 l 1
 244 616 l 1
 244 390 l 1
 280 425 326 450 388 450 c 0
 509 450 566 379 566 246 c 2
 566 0 l 1
 480 0 l 1
 480 240 l 2
 480 336 449 374 369 374 c 0
 307 374 269 345 244 321 c 1
 244 0 l 1
 157 0 l 1
 157 616 l 1
 -5 616 l 1
 -5 689 l 1
 413 689 l 1
EndSplineSet
Validated: 1
EndChar

StartChar: uni042E
Encoding: 1070 1070 316
Width: 600
GlyphClass: 2
Flags: W
HStem: -11 71<333.665 440.548> 0 21G<47 130> 321 72<130 198> 629 71<335.714 439.002> 669 20G<47 130>
VStem: 47 83<0 321 393 689> 198 89<135.885 321 393 548.969> 490 89<142.661 554.86>
LayerCount: 2
Fore
SplineSet
388 700 m 0x37
 532 700 579 578 579 344 c 0
 579 115 524 -11 388 -11 c 0xb7
 245 -11 200 122 198 321 c 1
 130 321 l 1
 130 0 l 1
 47 0 l 1
 47 689 l 1
 130 689 l 1x6f
 130 393 l 1
 199 393 l 1
 207 591 257 700 388 700 c 0x37
388 629 m 0
 314 629 287 558 287 345 c 0
 287 132 314 60 388 60 c 0
 458 60 490 131 490 344 c 0
 490 556 458 629 388 629 c 0
EndSplineSet
Validated: 1
EndChar

StartChar: uni042F
Encoding: 1071 1071 317
Width: 600
GlyphClass: 2
Flags: W
HStem: 0 21G<33 141.542 430 517> 277 70<277 430> 619 70<223.078 430>
VStem: 75 93<397.612 566.97> 430 87<0 277 347 619>
LayerCount: 2
Fore
SplineSet
517 689 m 1
 517 0 l 1
 430 0 l 1
 430 277 l 1
 277 277 l 1
 131 0 l 1
 33 0 l 1
 195 297 l 1
 115 333 75 401 75 484 c 0
 75 613 165 689 336 689 c 2
 517 689 l 1
430 619 m 1
 325 619 l 2
 219 619 168 578 168 485 c 0
 168 391 216 347 307 347 c 2
 430 347 l 1
 430 619 l 1
EndSplineSet
Validated: 1
EndChar

StartChar: uni0402
Encoding: 1026 1026 318
Width: 600
GlyphClass: 2
Flags: W
HStem: 0 21G<157 244> 374 76<298.31 445.096> 616 73<-5 157 244 404>
VStem: 157 87<0 339.406 390 616> 480 86<-3.25186 333.984>
LayerCount: 2
Fore
SplineSet
244 616 m 1
 244 390 l 1
 280 423 328 450 388 450 c 0
 509 450 566 379 566 246 c 2
 566 96 l 2
 566 -44 502 -98 393 -135 c 1
 371 -66 l 1
 459 -31 480 6 480 95 c 2
 480 240 l 2
 480 336 449 374 369 374 c 0
 307 374 269 345 244 321 c 1
 244 0 l 1
 157 0 l 1
 157 616 l 1
 -5 616 l 1
 -5 689 l 1
 413 689 l 1
 404 616 l 1
 244 616 l 1
EndSplineSet
Validated: 1
EndChar

StartChar: uni0460
Encoding: 1120 1120 319
Width: 600
GlyphClass: 2
Flags: W
HStem: -11 71<148.408 236.994 367.462 458.328> 669 20G<76 172 429 526>
VStem: 17 85<123.53 514.828> 258 85<94.4166 398> 499 86<113.644 517.759>
LayerCount: 2
Fore
SplineSet
513 689 m 1
 539 619 585 493 585 298 c 0
 585 71 519 -11 423 -11 c 0
 359 -11 322 26 301 93 c 1
 280 26 246 -11 180 -11 c 0
 100 -11 17 65 17 298 c 0
 17 493 64 619 88 689 c 1
 172 689 l 1
 129 576 102 465 102 302 c 0
 102 120 140 60 194 60 c 0
 228 60 258 87 258 169 c 2
 258 398 l 1
 343 398 l 1
 343 170 l 2
 343 90 376 60 413 60 c 0
 460 60 499 98 499 299 c 0
 499 465 468 577 429 689 c 1
 513 689 l 1
EndSplineSet
Validated: 1
EndChar

StartChar: uni0462
Encoding: 1122 1122 320
Width: 600
GlyphClass: 2
Flags: W
HStem: 0 71<241 413.507> 360 68<241 414.661> 530 65<10 154 241 394> 669 20G<154 241>
VStem: 154 87<71 360 428 530 595 689> 475 93<130.54 303.088>
LayerCount: 2
Fore
SplineSet
312 428 m 2
 467 428 568 361 568 221 c 0
 568 65 457 0 300 0 c 2
 154 0 l 1
 154 530 l 1
 10 530 l 1
 10 595 l 1
 154 595 l 1
 154 689 l 1
 241 689 l 1
 241 595 l 1
 394 595 l 1
 394 530 l 1
 241 530 l 1
 241 428 l 1
 312 428 l 2
310 71 m 2
 405 71 475 102 475 219 c 0
 475 323 413 360 314 360 c 2
 241 360 l 1
 241 71 l 1
 310 71 l 2
EndSplineSet
Validated: 1
EndChar

StartChar: uni0464
Encoding: 1124 1124 321
Width: 600
GlyphClass: 2
Flags: W
HStem: -11 73<375.511 533.898> 0 21G<40 128> 317 74<128 198 288 517> 628 72<376.307 539.095>
VStem: 40 88<0 318 393 688> 198 88<184.052 317 393 495.97>
LayerCount: 2
Fore
SplineSet
554 95 m 1xbc
 595 37 l 1
 559 9 518 -11 446 -11 c 0xbc
 300 -11 205 104 198 318 c 1
 128 318 l 1
 128 0 l 1
 40 0 l 1x7c
 40 688 l 1
 128 688 l 1
 128 393 l 1
 199 393 l 1
 212 594 311 700 451 700 c 0
 515 700 550 685 588 659 c 1
 546 602 l 1
 516 620 493 628 453 628 c 0
 366 628 302 566 288 391 c 1
 517 391 l 1
 517 317 l 1
 286 317 l 1
 295 136 357 62 449 62 c 0
 500 62 528 80 554 95 c 1xbc
EndSplineSet
Validated: 1
EndChar

StartChar: uni0466
Encoding: 1126 1126 322
Width: 600
GlyphClass: 2
Flags: W
HStem: 0 21G<20 116.138 257 339 479.862 579> 290 74<222 257 339 374> 669 20G<238.469 361.502>
VStem: 257 82<0 290>
LayerCount: 2
Fore
SplineSet
486 0 m 1
 397 290 l 1
 339 290 l 1
 339 0 l 1
 257 0 l 1
 257 290 l 1
 199 290 l 1
 110 0 l 1
 20 0 l 1
 245 689 l 1
 355 689 l 1
 579 0 l 1
 486 0 l 1
222 364 m 1
 374 364 l 1
 298 612 l 1
 222 364 l 1
EndSplineSet
Validated: 1
EndChar

StartChar: uni0468
Encoding: 1128 1128 323
Width: 600
GlyphClass: 2
Flags: W
HStem: 0 21G<37 123 158 243.467 340 413 509.533 599> 291 69<123 228 319 340 413 434> 669 20G<37 123 318.213 438.79>
VStem: 37 86<0 291 360 689> 340 73<0 291>
LayerCount: 2
Fore
SplineSet
514 0 m 1
 449 291 l 1
 413 291 l 1
 413 0 l 1
 340 0 l 1
 340 291 l 1
 304 291 l 1
 239 0 l 1
 158 0 l 1
 228 291 l 1
 123 291 l 1
 123 0 l 1
 37 0 l 1
 37 689 l 1
 123 689 l 1
 123 360 l 1
 230 360 l 1
 232 311 l 1
 233 313 l 1
 323 689 l 1
 434 689 l 1
 599 0 l 1
 514 0 l 1
319 360 m 1
 434 360 l 1
 377 621 l 1
 319 360 l 1
EndSplineSet
Validated: 1
EndChar

StartChar: uni046A
Encoding: 1130 1130 324
Width: 600
GlyphClass: 2
Flags: W
HStem: 0 21G<38 123.338 258 343 476.727 562> 311 68<201 222 378 400> 626 63<183 426>
VStem: 258 85<0 311>
LayerCount: 2
Fore
SplineSet
459 379 m 5
 562 0 l 5
 482 0 l 5
 400 311 l 5
 343 311 l 5
 343 0 l 5
 258 0 l 5
 258 311 l 5
 201 311 l 5
 118 0 l 5
 38 0 l 5
 150 379 l 5
 222 379 l 5
 93 631 l 5
 93 689 l 5
 513 689 l 5
 513 631 l 5
 378 379 l 5
 459 379 l 5
183 626 m 5
 303 379 l 5
 426 626 l 5
 183 626 l 5
EndSplineSet
Validated: 1
EndChar

StartChar: uni046C
Encoding: 1132 1132 325
Width: 600
GlyphClass: 2
Flags: W
HStem: 0 21G<18 104 131 218.016 337 423 541.048 628> 311 68<104 220 291 305 455 469> 625 64<277 490>
VStem: 18 86<0 311 379 689> 337 86<0 311>
LayerCount: 2
Fore
SplineSet
528 379 m 1
 628 0 l 1
 546 0 l 1
 469 311 l 1
 423 311 l 1
 423 0 l 1
 337 0 l 1
 337 311 l 1
 291 311 l 1
 213 0 l 1
 131 0 l 1
 220 311 l 1
 104 311 l 1
 104 0 l 1
 18 0 l 1
 18 689 l 1
 104 689 l 1
 104 379 l 1
 305 379 l 1
 190 631 l 1
 190 689 l 1
 574 689 l 1
 574 631 l 1
 455 379 l 1
 528 379 l 1
490 625 m 1
 277 625 l 1
 383 379 l 1
 490 625 l 1
EndSplineSet
Validated: 1
EndChar

StartChar: uni046E
Encoding: 1134 1134 326
Width: 600
GlyphClass: 2
Flags: W
HStem: 311 65<264 372.563> 616 73<82 380>
VStem: 96 86<-123.712 -53.7876> 427 91<101.265 260.785>
LayerCount: 2
Fore
SplineSet
312 754 m 1
 255 754 l 1
 120 862 l 1
 158 905 l 1
 283 824 l 1
 409 905 l 1
 446 862 l 1
 312 754 l 1
291 376 m 2
 439 376 518 300 518 177 c 0
 518 51 424 -20 307 -32 c 0
 207 -43 182 -55 182 -85 c 0
 182 -111 208 -134 255 -158 c 1
 223 -214 l 1
 140 -178 96 -135 96 -78 c 0
 96 -12 150 24 263 34 c 0
 366 44 427 87 427 177 c 0
 427 273 375 311 275 311 c 2
 169 311 l 1
 169 375 l 1
 380 616 l 1
 82 616 l 1
 82 689 l 1
 484 689 l 1
 484 616 l 1
 264 376 l 1
 291 376 l 2
EndSplineSet
Validated: 1
EndChar

StartChar: uni0470
Encoding: 1136 1136 327
Width: 600
GlyphClass: 2
Flags: W
HStem: 0 21G<256 345> 192 74<177.526 256 345 422.335> 669 20G<13 102 257 344 498 587>
VStem: 13 89<335.125 689> 257 87<0 193.46 267 689> 498 89<337.396 689>
LayerCount: 2
Fore
SplineSet
256 0 m 1
 256 192 l 1
 88 205 13 301 13 430 c 2
 13 689 l 1
 102 689 l 1
 102 435 l 2
 102 335 140 276 257 266 c 1
 257 689 l 1
 344 689 l 1
 344 267 l 1
 458 277 498 335 498 435 c 2
 498 689 l 1
 587 689 l 1
 587 430 l 2
 587 301 510 207 345 193 c 1
 345 0 l 1
 256 0 l 1
EndSplineSet
Validated: 1
EndChar

StartChar: uni0472
Encoding: 1138 1138 328
Width: 600
GlyphClass: 2
Flags: W
HStem: -11 73<221.515 378.824> 318 66<139 460> 627 73<220.882 379.105>
VStem: 47 91<181.902 318 384 502.497> 461 92<184.453 318 384 505.047>
LayerCount: 2
Fore
SplineSet
553 344 m 0
 553 135 467 -11 300 -11 c 0
 133 -11 47 130 47 343 c 0
 47 551 133 700 300 700 c 0
 467 700 553 556 553 344 c 0
300 627 m 0
 194 627 147 543 139 384 c 1
 460 384 l 1
 453 543 406 627 300 627 c 0
300 62 m 0
 411 62 457 151 461 318 c 1
 138 318 l 1
 142 151 191 62 300 62 c 0
EndSplineSet
Validated: 1
EndChar

StartChar: uni0474
Encoding: 1140 1140 329
Width: 600
GlyphClass: 2
Flags: W
HStem: 0 21G<226.078 333.32> 633 67<494.753 572.726> 669 20G<28 126.365>
LayerCount: 2
Fore
SplineSet
566 626 m 5xc0
 554 630 545 633 532 633 c 4xc0
 506 633 492 616 482 579 c 6
 328 0 l 5
 232 0 l 5
 28 689 l 5
 121 689 l 5xa0
 279 100 l 5
 404 591 l 6
 424 667 460 700 522 700 c 4
 551 700 573 692 594 682 c 5
 566 626 l 5xc0
EndSplineSet
Validated: 1
EndChar

StartChar: uni0476
Encoding: 1142 1142 330
Width: 600
GlyphClass: 2
Flags: W
HStem: 0 21G<226.078 333.32> 633 67<494.753 572.726> 669 20G<28 126.365>
LayerCount: 2
Fore
SplineSet
238 824 m 1x80
 185 796 l 1
 77 959 l 1
 151 998 l 1
 238 824 l 1x80
403 824 m 1
 347 798 l 1
 250 962 l 1
 325 998 l 1
 403 824 l 1
566 626 m 1
 554 630 545 633 532 633 c 0xc0
 506 633 492 616 482 579 c 2
 328 0 l 1
 232 0 l 1
 28 689 l 1
 121 689 l 1xa0
 279 100 l 1
 404 591 l 2
 424 667 460 700 522 700 c 0xc0
 551 700 573 692 594 682 c 1
 566 626 l 1
EndSplineSet
Validated: 1
EndChar

StartChar: uni0478
Encoding: 1144 1144 331
Width: 600
GlyphClass: 2
Flags: W
HStem: -212 64<347.797 380.16> -11 66<127.117 204.024> 507 20G<324 402.635 514.581 594> 633 67<124.169 204.024>
VStem: 9 81<124.463 561.487> 239 81<124.608 562.938> 324 76<483.083 527> 517 77<482.301 527>
LayerCount: 2
Fore
SplineSet
164 -11 m 0
 49 -11 9 119 9 343 c 0
 9 563 49 700 164 700 c 0
 278 700 320 568 320 344 c 0
 320 118 278 -11 164 -11 c 0
164 55 m 0
 224 55 239 142 239 344 c 0
 239 545 224 633 164 633 c 0
 105 633 90 544 90 343 c 0
 90 141 108 55 164 55 c 0
349 -212 m 1
 338 -148 l 1
 395 -131 429 -90 443 0 c 1
 408 0 l 1
 324 527 l 1
 400 527 l 1
 461 64 l 1
 517 527 l 1
 594 527 l 1
 511 -3 l 2
 492 -123 436 -186 349 -212 c 1
EndSplineSet
Validated: 1
EndChar

StartChar: uni0492
Encoding: 1170 1170 332
Width: 600
GlyphClass: 2
Flags: W
HStem: 0 21G<167 253> 366 67<66 167 253 411> 612 77<253 566>
VStem: 167 86<0 366 433 612>
LayerCount: 2
Fore
SplineSet
566 612 m 1
 253 612 l 1
 253 433 l 1
 411 433 l 1
 411 366 l 1
 253 366 l 1
 253 0 l 1
 167 0 l 1
 167 366 l 1
 66 366 l 1
 66 433 l 1
 167 433 l 1
 167 689 l 1
 575 689 l 1
 566 612 l 1
EndSplineSet
Validated: 1
EndChar

StartChar: uni0494
Encoding: 1172 1172 333
Width: 600
GlyphClass: 2
Flags: W
HStem: -211 70<328.646 447.528> 0 21G<85 171> 374 76<246.496 414.837> 616 73<171 458>
VStem: 85 86<0 315.935 374 616> 463 86<-126.625 323.212>
LayerCount: 2
Fore
SplineSet
353 450 m 0
 473 450 549 369 549 235 c 2
 549 -61 l 2
 549 -161 492 -211 404 -211 c 0
 352 -211 316 -192 292 -174 c 1
 325 -117 l 1
 348 -132 367 -141 401 -141 c 0
 440 -141 463 -117 463 -66 c 2
 463 234 l 2
 463 324 421 374 338 374 c 0
 264 374 216 344 171 294 c 1
 171 0 l 1
 85 0 l 1
 85 689 l 1
 171 689 l 1
 469 689 l 1
 458 616 l 1
 171 616 l 1
 171 374 l 1
 217 422 274 450 353 450 c 0
EndSplineSet
Validated: 1
EndChar

